SplineFontDB: 3.0
FontName: BenchTwelve-Bold
FullName: BenchTwelve Bold
FamilyName: BenchTwelve
Weight: Bold
Copyright: vernon adams (c) 2012
Version: 1
ItalicAngle: 0
UnderlinePosition: 0
UnderlineWidth: 0
Ascent: 1638
Descent: 410
sfntRevision: 0x00010000
LayerCount: 2
Layer: 0 1 "Back"  1
Layer: 1 1 "Fore"  0
XUID: [1021 332 1330122705 13618111]
FSType: 0
OS2Version: 4
OS2_WeightWidthSlopeOnly: 1
OS2_UseTypoMetrics: 1
CreationTime: 1342446537
ModificationTime: 1348274184
PfmFamily: 17
TTFWeight: 700
TTFWidth: 6
LineGap: 0
VLineGap: 0
Panose: 2 0 8 3 0 0 0 0 0 0
OS2TypoAscent: 2020
OS2TypoAOffset: 0
OS2TypoDescent: -720
OS2TypoDOffset: 0
OS2TypoLinegap: 0
OS2WinAscent: 2020
OS2WinAOffset: 0
OS2WinDescent: 720
OS2WinDOffset: 0
HheadAscent: 2020
HheadAOffset: 0
HheadDescent: -720
HheadDOffset: 0
OS2SubXSize: 1331
OS2SubYSize: 1433
OS2SubXOff: 0
OS2SubYOff: 286
OS2SupXSize: 1331
OS2SupYSize: 1433
OS2SupXOff: 0
OS2SupYOff: 983
OS2StrikeYSize: 102
OS2StrikeYPos: 530
OS2Vendor: 'newt'
OS2CodePages: 00000093.00000000
OS2UnicodeRanges: a000006f.4000204a.00000000.00000000
Lookup: 4 0 1 "'liga' Standard Ligatures lookup 0"  {"'liga' Standard Ligatures lookup 0 subtable"  } ['liga' ('DFLT' <'dflt' > 'grek' <'dflt' > 'latn' <'dflt' > ) ]
Lookup: 258 0 0 "'kern' Horizontal Kerning in Latin lookup 0"  {"'kern' Horizontal Kerning in Latin lookup 0 per glyph data 0"  "'kern' Horizontal Kerning in Latin lookup 0 kerning class 1"  } ['kern' ('DFLT' <'dflt' > 'latn' <'dflt' > ) ]
MarkAttachClasses: 1
DEI: 91125
KernClass2: 35 30 "'kern' Horizontal Kerning in Latin lookup 0 kerning class 1" 
 89 A Agrave Aacute Acircumflex Atilde Adieresis Aring Amacron Abreve Aogonek uni0200 uni0202
 1 B
 1 C
 111 D O Q Eth Ograve Oacute Ocircumflex Otilde Odieresis Oslash Dcaron Omacron Obreve Ohungarumlaut uni020C uni020E
 1 F
 1 G
 1 K
 1 L
 1 P
 44 R Racute Rcommaaccent Rcaron uni0210 uni0212
 37 S Sacute Scedilla Scaron Scommaaccent
 16 T Tcaron uni021A

StartChar: .notdef
Encoding: 65536 -1 0
Width: 748
Flags: W
LayerCount: 2
Fore
SplineSet
68 0 m 1,0,-1
 68 1365 l 1,1,-1
 612 1365 l 1,2,-1
 612 0 l 1,3,-1
 68 0 l 1,0,-1
136 68 m 1,4,-1
 544 68 l 1,5,-1
 544 1297 l 1,6,-1
 136 1297 l 1,7,-1
 136 68 l 1,4,-1
EndSplineSet
EndChar

StartChar: exclam
Encoding: 33 33 4
Width: 648
GlyphClass: 2
Flags: W
LayerCount: 2
Fore
SplineSet
218 0 m 2,0,1
 186 0 186 0 167.5 19 c 128,-1,2
 149 38 149 38 149 70 c 2,3,-1
 149 219 l 2,4,5
 149 251 149 251 167.5 270 c 128,-1,6
 186 289 186 289 218 289 c 2,7,-1
 427 289 l 2,8,9
 459 289 459 289 478 270 c 128,-1,10
 497 251 497 251 497 219 c 2,11,-1
 497 70 l 2,12,13
 497 38 497 38 478 19 c 128,-1,14
 459 0 459 0 427 0 c 2,15,-1
 218 0 l 2,0,1
304 461 m 2,16,17
 274 461 274 461 263 478 c 128,-1,18
 252 495 252 495 249 531 c 2,19,-1
 161 1397 l 1,20,21
 160 1429 160 1429 179 1448 c 128,-1,22
 198 1467 198 1467 231 1467 c 2,23,-1
 423 1467 l 2,24,25
 454 1467 454 1467 474.5 1439.5 c 128,-1,26
 495 1412 495 1412 493 1378 c 1,27,-1
 410 531 l 2,28,29
 407 495 407 495 396 478 c 128,-1,30
 385 461 385 461 355 461 c 2,31,-1
 304 461 l 2,16,17
EndSplineSet
EndChar

StartChar: quotedbl
Encoding: 34 34 5
Width: 996
GlyphClass: 2
Flags: W
LayerCount: 2
Fore
SplineSet
270 743 m 2,0,1
 241 743 241 743 230.5 759 c 128,-1,2
 220 775 220 775 214 813 c 2,3,-1
 127 1383 l 1,4,5
 123 1416 123 1416 143.5 1441.5 c 128,-1,6
 164 1467 164 1467 196 1467 c 2,7,-1
 367 1467 l 2,8,9
 399 1467 399 1467 419 1441.5 c 128,-1,10
 439 1416 439 1416 436 1383 c 1,11,-1
 354 813 l 2,12,13
 349 775 349 775 339 759 c 128,-1,14
 329 743 329 743 299 743 c 2,15,-1
 270 743 l 2,0,1
698 743 m 2,16,17
 669 743 669 743 659 758.5 c 128,-1,18
 649 774 649 774 643 813 c 2,19,-1
 555 1383 l 1,20,21
 552 1416 552 1416 572.5 1441.5 c 128,-1,22
 593 1467 593 1467 625 1467 c 2,23,-1
 795 1467 l 2,24,25
 827 1467 827 1467 847.5 1441.5 c 128,-1,26
 868 1416 868 1416 865 1383 c 1,27,-1
 783 813 l 2,28,29
 778 776 778 776 767.5 759.5 c 128,-1,30
 757 743 757 743 727 743 c 2,31,-1
 698 743 l 2,16,17
EndSplineSet
EndChar

StartChar: numbersign
Encoding: 35 35 6
Width: 1748
GlyphClass: 2
Flags: W
LayerCount: 2
Fore
SplineSet
247 -205 m 2,0,1
 234 -205 234 -205 226 -194 c 128,-1,2
 218 -183 218 -183 223 -170 c 1,3,-1
 356 400 l 1,4,-1
 203 400 l 2,5,6
 169 400 169 400 152.5 413 c 128,-1,7
 136 426 136 426 136 457 c 2,8,-1
 136 528 l 2,9,10
 136 559 136 559 152.5 572 c 128,-1,11
 169 585 169 585 203 585 c 2,12,-1
 399 585 l 1,13,-1
 454 820 l 1,14,-1
 278 820 l 2,15,16
 244 820 244 820 227.5 833 c 128,-1,17
 211 846 211 846 211 877 c 2,18,-1
 211 949 l 2,19,20
 211 980 211 980 227.5 993 c 128,-1,21
 244 1006 244 1006 278 1006 c 2,22,-1
 498 1006 l 1,23,-1
 640 1612 l 1,24,25
 653 1647 653 1647 690 1647 c 2,26,-1
 828 1647 l 2,27,28
 841 1647 841 1647 849 1636 c 128,-1,29
 857 1625 857 1625 852 1612 c 1,30,-1
 710 1006 l 1,31,-1
 1153 1006 l 1,32,-1
 1295 1612 l 1,33,34
 1308 1647 1308 1647 1345 1647 c 2,35,-1
 1483 1647 l 2,36,37
 1496 1647 1496 1647 1504 1636 c 128,-1,38
 1512 1625 1512 1625 1507 1612 c 1,39,-1
 1365 1006 l 1,40,-1
 1546 1006 l 2,41,42
 1580 1006 1580 1006 1596.5 993 c 128,-1,43
 1613 980 1613 980 1613 949 c 2,44,-1
 1613 877 l 2,45,46
 1613 846 1613 846 1596.5 833 c 128,-1,47
 1580 820 1580 820 1546 820 c 2,48,-1
 1321 820 l 1,49,-1
 1266 585 l 1,50,-1
 1471 585 l 2,51,52
 1505 585 1505 585 1521.5 572 c 128,-1,53
 1538 559 1538 559 1538 528 c 2,54,-1
 1538 457 l 2,55,56
 1538 426 1538 426 1521.5 413 c 128,-1,57
 1505 400 1505 400 1471 400 c 2,58,-1
 1223 400 l 1,59,-1
 1090 -170 l 1,60,61
 1077 -205 1077 -205 1040 -205 c 2,62,-1
 902 -205 l 2,63,64
 889 -205 889 -205 881 -194 c 128,-1,65
 873 -183 873 -183 878 -170 c 1,66,-1
 1011 400 l 1,67,-1
 568 400 l 1,68,-1
 435 -170 l 1,69,70
 422 -205 422 -205 385 -205 c 2,71,-1
 247 -205 l 2,0,1
611 585 m 1,72,-1
 1054 585 l 1,73,-1
 1109 820 l 1,74,-1
 666 820 l 1,75,-1
 611 585 l 1,72,-1
EndSplineSet
EndChar

StartChar: dollar
Encoding: 36 36 7
Width: 2619
GlyphClass: 2
Flags: W
LayerCount: 2
Fore
SplineSet
1055 -197 m 2,0,1
 1021 -197 1021 -197 1021 -129 c 2,2,-1
 1021 -41 l 1,3,4
 780 -40 780 -40 588.5 -9 c 128,-1,5
 397 22 397 22 190 100 c 0,6,7
 169 108 169 108 157.5 130 c 128,-1,8
 146 152 146 152 149 176 c 1,9,-1
 188 281 l 1,10,11
 212 332 212 332 266 327 c 1,12,13
 299 320 299 320 381 296 c 128,-1,14
 463 272 463 272 535 253.5 c 128,-1,15
 607 235 607 235 739 217 c 128,-1,16
 871 199 871 199 1021 195 c 1,17,-1
 1021 605 l 1,18,19
 900 609 900 609 808.5 615 c 128,-1,20
 717 621 717 621 622 634.5 c 128,-1,21
 527 648 527 648 459 667.5 c 128,-1,22
 391 687 391 687 329 718.5 c 128,-1,23
 267 750 267 750 229.5 792 c 128,-1,24
 192 834 192 834 170 892.5 c 128,-1,25
 148 951 148 951 148 1024 c 0,26,27
 148 1106 148 1106 173 1172 c 128,-1,28
 198 1238 198 1238 240 1284.5 c 128,-1,29
 282 1331 282 1331 347 1365.5 c 128,-1,30
 412 1400 412 1400 483 1421 c 128,-1,31
 554 1442 554 1442 646.5 1454 c 128,-1,32
 739 1466 739 1466 826.5 1470.5 c 128,-1,33
 914 1475 914 1475 1021 1475 c 1,34,-1
 1021 1572 l 2,35,36
 1021 1640 1021 1640 1055 1640 c 2,37,-1
 1093 1640 l 2,38,39
 1127 1640 1127 1640 1127 1572 c 2,40,-1
 1127 1473 l 1,41,42
 1341 1469 1341 1469 1504.5 1436 c 128,-1,43
 1668 1403 1668 1403 1822 1337 c 0,44,45
 1843 1329 1843 1329 1854.5 1307 c 128,-1,46
 1866 1285 1866 1285 1862 1262 c 0,47,48
 1862 1257 1862 1257 1847.5 1223.5 c 128,-1,49
 1833 1190 1833 1190 1829 1181 c 2,50,-1
 1826 1174 l 1,51,52
 1822 1168 1822 1168 1819.5 1164 c 128,-1,53
 1817 1160 1817 1160 1812 1153 c 128,-1,54
 1807 1146 1807 1146 1800.5 1142 c 128,-1,55
 1794 1138 1794 1138 1786 1133.5 c 128,-1,56
 1778 1129 1778 1129 1767.5 1127 c 128,-1,57
 1757 1125 1757 1125 1745 1126 c 1,58,59
 1722 1132 1722 1132 1637.5 1155 c 128,-1,60
 1553 1178 1553 1178 1494.5 1192 c 128,-1,61
 1436 1206 1436 1206 1333 1221 c 128,-1,62
 1230 1236 1230 1236 1127 1241 c 1,63,-1
 1127 866 l 1,64,65
 1334 864 1334 864 1486 842.5 c 128,-1,66
 1638 821 1638 821 1754 773.5 c 128,-1,67
 1870 726 1870 726 1929 643.5 c 128,-1,68
 1988 561 1988 561 1988 444 c 0,69,70
 1988 338 1988 338 1956 259 c 128,-1,71
 1924 180 1924 180 1859.5 124 c 128,-1,72
 1795 68 1795 68 1690.5 33 c 128,-1,73
 1586 -2 1586 -2 1449 -19.5 c 128,-1,74
 1312 -37 1312 -37 1127 -40 c 1,75,-1
 1127 -129 l 2,76,77
 1127 -197 1127 -197 1093 -197 c 2,78,-1
 1055 -197 l 2,0,1
1127 194 m 1,79,80
 1242 195 1242 195 1325.5 205 c 128,-1,81
 1409 215 1409 215 1462.5 232 c 128,-1,82
 1516 249 1516 249 1547 276.5 c 128,-1,83
 1578 304 1578 304 1590 335.5 c 128,-1,84
 1602 367 1602 367 1602 410 c 0,85,86
 1602 462 1602 462 1584.5 494.5 c 128,-1,87
 1567 527 1567 527 1517.5 553 c 128,-1,88
 1468 579 1468 579 1373 590.5 c 128,-1,89
 1278 602 1278 602 1127 602 c 1,90,-1
 1127 194 l 1,79,80
1021 868 m 1,91,-1
 1021 1243 l 1,92,93
 755 1240 755 1240 640.5 1192 c 128,-1,94
 526 1144 526 1144 526 1055 c 0,95,96
 526 1008 526 1008 542.5 979.5 c 128,-1,97
 559 951 559 951 610.5 926.5 c 128,-1,98
 662 902 662 902 761 888.5 c 128,-1,99
 860 875 860 875 1021 868 c 1,91,-1
EndSplineSet
EndChar

StartChar: percent
Encoding: 37 37 8
Width: 2648
GlyphClass: 2
Flags: W
LayerCount: 2
Fore
SplineSet
930 -82 m 2,0,1
 902 -82 902 -82 887.5 -59.5 c 128,-1,2
 873 -37 873 -37 884 -12 c 2,3,-1
 1539 1466 l 2,4,5
 1552 1497 1552 1497 1582 1516.5 c 128,-1,6
 1612 1536 1612 1536 1647 1536 c 2,7,-1
 1715 1536 l 2,8,9
 1743 1536 1743 1536 1757.5 1513.5 c 128,-1,10
 1772 1491 1772 1491 1761 1466 c 2,11,-1
 1107 -12 l 2,12,13
 1093 -44 1093 -44 1063 -63 c 128,-1,14
 1033 -82 1033 -82 999 -82 c 2,15,-1
 930 -82 l 2,0,1
577 751 m 0,16,17
 694 751 694 751 755.5 829 c 128,-1,18
 817 907 817 907 817 1047 c 0,19,20
 817 1190 817 1190 756 1267.5 c 128,-1,21
 695 1345 695 1345 577 1345 c 0,22,23
 462 1345 462 1345 399 1266.5 c 128,-1,24
 336 1188 336 1188 336 1047 c 0,25,26
 336 909 336 909 399.5 830 c 128,-1,27
 463 751 463 751 577 751 c 0,16,17
577 599 m 128,-1,29
 469 599 469 599 382 635.5 c 128,-1,30
 295 672 295 672 240.5 734 c 128,-1,31
 186 796 186 796 157 876 c 128,-1,32
 128 956 128 956 128 1047 c 0,33,34
 128 1137 128 1137 156.5 1217 c 128,-1,35
 185 1297 185 1297 239 1360 c 128,-1,36
 293 1423 293 1423 380.5 1460 c 128,-1,37
 468 1497 468 1497 577 1497 c 128,-1,38
 686 1497 686 1497 773 1460 c 128,-1,39
 860 1423 860 1423 914 1360 c 128,-1,40
 968 1297 968 1297 996.5 1217 c 128,-1,41
 1025 1137 1025 1137 1025 1047 c 0,42,43
 1025 956 1025 956 996 876 c 128,-1,44
 967 796 967 796 912.5 734 c 128,-1,45
 858 672 858 672 771.5 635.5 c 128,-1,28
 685 599 685 599 577 599 c 128,-1,29
2069 139 m 0,46,47
 2186 139 2186 139 2248 216.5 c 128,-1,48
 2310 294 2310 294 2310 434 c 0,49,50
 2310 577 2310 577 2249 654.5 c 128,-1,51
 2188 732 2188 732 2069 732 c 0,52,53
 1954 732 1954 732 1891.5 654 c 128,-1,54
 1829 576 1829 576 1829 434 c 0,55,56
 1829 296 1829 296 1892.5 217.5 c 128,-1,57
 1956 139 1956 139 2069 139 c 0,46,47
2069 -13 m 128,-1,59
 1961 -13 1961 -13 1874 23.5 c 128,-1,60
 1787 60 1787 60 1732.5 122 c 128,-1,61
 1678 184 1678 184 1649 264 c 128,-1,62
 1620 344 1620 344 1620 434 c 128,-1,63
 1620 524 1620 524 1648.5 604 c 128,-1,64
 1677 684 1677 684 1731 747 c 128,-1,65
 1785 810 1785 810 1872.5 847 c 128,-1,66
 1960 884 1960 884 2069 884 c 128,-1,67
 2178 884 2178 884 2265.5 847 c 128,-1,68
 2353 810 2353 810 2407 747 c 128,-1,69
 2461 684 2461 684 2489.5 604 c 128,-1,70
 2518 524 2518 524 2518 434 c 128,-1,71
 2518 344 2518 344 2489 264 c 128,-1,72
 2460 184 2460 184 2405.5 122 c 128,-1,73
 2351 60 2351 60 2264 23.5 c 128,-1,58
 2177 -13 2177 -13 2069 -13 c 128,-1,59
EndSplineSet
EndChar

StartChar: ampersand
Encoding: 38 38 9
Width: 2668
GlyphClass: 2
Flags: W
LayerCount: 2
Fore
SplineSet
2167 -41 m 0,0,1
 1900 -41 1900 -41 1766 93 c 1,2,3
 1694 69 1694 69 1638.5 53 c 128,-1,4
 1583 37 1583 37 1479 12 c 128,-1,5
 1375 -13 1375 -13 1253.5 -26.5 c 128,-1,6
 1132 -40 1132 -40 1004 -40 c 0,7,8
 780 -40 780 -40 617.5 -11 c 128,-1,9
 455 18 455 18 355 75.5 c 128,-1,10
 255 133 255 133 208 213 c 128,-1,11
 161 293 161 293 161 400 c 0,12,13
 161 538 161 538 242.5 631 c 128,-1,14
 324 724 324 724 472 740 c 1,15,16
 316 758 316 758 230 840.5 c 128,-1,17
 144 923 144 923 144 1056 c 0,18,19
 144 1270 144 1270 345.5 1372.5 c 128,-1,20
 547 1475 547 1475 994 1475 c 0,21,22
 1126 1475 1126 1475 1284.5 1456.5 c 128,-1,23
 1443 1438 1443 1438 1522 1416 c 0,24,25
 1575 1402 1575 1402 1575 1359 c 0,26,27
 1575 1351 1575 1351 1574 1346 c 2,28,-1
 1564 1242 l 1,29,30
 1558 1198 1558 1198 1520 1198 c 0,31,32
 1510 1198 1510 1198 1497 1201 c 0,33,34
 1494 1201 1494 1201 1467.5 1206.5 c 128,-1,35
 1441 1212 1441 1212 1414.5 1217 c 128,-1,36
 1388 1222 1388 1222 1339.5 1228.5 c 128,-1,37
 1291 1235 1291 1235 1242 1240 c 128,-1,38
 1193 1245 1193 1245 1125 1248.5 c 128,-1,39
 1057 1252 1057 1252 988 1252 c 0,40,41
 853 1252 853 1252 759.5 1238 c 128,-1,42
 666 1224 666 1224 615 1197.5 c 128,-1,43
 564 1171 564 1171 541.5 1139 c 128,-1,44
 519 1107 519 1107 516 1064 c 1,45,46
 512 1025 512 1025 517 995 c 128,-1,47
 522 965 522 965 544.5 934.5 c 128,-1,48
 567 904 567 904 608 884.5 c 128,-1,49
 649 865 649 865 721 852.5 c 128,-1,50
 793 840 793 840 893 840 c 2,51,-1
 1628 840 l 2,52,53
 1658 840 1658 840 1658 870 c 1,54,-1
 1681 1164 l 1,55,56
 1689 1234 1689 1234 1750 1234 c 2,57,-1
 1928 1234 l 2,58,59
 1960 1234 1960 1234 1979 1215 c 128,-1,60
 1998 1196 1998 1196 1998 1164 c 2,61,-1
 1998 870 l 2,62,63
 1998 840 1998 840 2027 840 c 2,64,-1
 2406 840 l 2,65,66
 2438 840 2438 840 2457 821 c 128,-1,67
 2476 802 2476 802 2476 770 c 2,68,-1
 2476 715 l 2,69,70
 2476 683 2476 683 2457 664 c 128,-1,71
 2438 645 2438 645 2406 645 c 2,72,-1
 2027 645 l 2,73,74
 1998 645 1998 645 1998 615 c 2,75,-1
 1998 350 l 2,76,77
 1998 250 1998 250 2057.5 205.5 c 128,-1,78
 2117 161 2117 161 2231 161 c 0,79,80
 2327 161 2327 161 2446 197 c 0,81,82
 2482 208 2482 208 2497.5 196 c 128,-1,83
 2513 184 2513 184 2520 153 c 1,84,-1
 2527 82 l 1,85,86
 2538 26 2538 26 2469 3 c 0,87,88
 2340 -41 2340 -41 2167 -41 c 0,0,1
1011 182 m 0,89,90
 1340 182 1340 182 1666 286 c 1,91,92
 1658 327 1658 327 1658 385 c 2,93,-1
 1658 615 l 2,94,95
 1658 645 1658 645 1628 645 c 2,96,-1
 885 645 l 1,97,98
 801 644 801 644 737.5 632 c 128,-1,99
 674 620 674 620 636.5 600 c 128,-1,100
 599 580 599 580 573.5 553 c 128,-1,101
 548 526 548 526 540.5 496 c 128,-1,102
 533 466 533 466 529.5 434.5 c 128,-1,103
 526 403 526 403 532 373 c 1,104,105
 537 319 537 319 573.5 281 c 128,-1,106
 610 243 610 243 675.5 222 c 128,-1,107
 741 201 741 201 822.5 191.5 c 128,-1,108
 904 182 904 182 1011 182 c 0,89,90
EndSplineSet
EndChar

StartChar: quotesingle
Encoding: 39 39 10
Width: 580
GlyphClass: 2
Flags: W
LayerCount: 2
Fore
SplineSet
273 743 m 2,0,1
 244 743 244 743 234 758.5 c 128,-1,2
 224 774 224 774 218 813 c 2,3,-1
 130 1383 l 1,4,5
 127 1416 127 1416 147.5 1441.5 c 128,-1,6
 168 1467 168 1467 200 1467 c 2,7,-1
 371 1467 l 2,8,9
 403 1467 403 1467 423 1441.5 c 128,-1,10
 443 1416 443 1416 440 1383 c 1,11,-1
 358 813 l 2,12,13
 353 775 353 775 343 759 c 128,-1,14
 333 743 333 743 303 743 c 2,15,-1
 273 743 l 2,0,1
EndSplineSet
EndChar

StartChar: parenleft
Encoding: 40 40 11
Width: 896
GlyphClass: 2
Flags: W
LayerCount: 2
Fore
SplineSet
701 -143 m 0,0,1
 556 -111 556 -111 446 -31.5 c 128,-1,2
 336 48 336 48 270 161.5 c 128,-1,3
 204 275 204 275 172 409.5 c 128,-1,4
 140 544 140 544 140 699 c 0,5,6
 140 852 140 852 174 988 c 128,-1,7
 208 1124 208 1124 275.5 1237.5 c 128,-1,8
 343 1351 343 1351 452 1430.5 c 128,-1,9
 561 1510 561 1510 701 1540 c 0,10,11
 729 1547 729 1547 753.5 1523.5 c 128,-1,12
 778 1500 778 1500 778 1470 c 2,13,-1
 778 1427 l 2,14,15
 778 1407 778 1407 775 1393.5 c 128,-1,16
 772 1380 772 1380 760 1368.5 c 128,-1,17
 748 1357 748 1357 743 1353 c 128,-1,18
 738 1349 738 1349 713.5 1337 c 128,-1,19
 689 1325 689 1325 681 1321 c 0,20,21
 569 1259 569 1259 504 1104 c 128,-1,22
 439 949 439 949 439 699 c 0,23,24
 439 440 439 440 497.5 296.5 c 128,-1,25
 556 153 556 153 681 77 c 0,26,27
 692 70 692 70 718.5 55.5 c 128,-1,28
 745 41 745 41 753 35 c 128,-1,29
 761 29 761 29 769.5 12 c 128,-1,30
 778 -5 778 -5 778 -30 c 2,31,-1
 778 -73 l 2,32,33
 778 -103 778 -103 753.5 -126.5 c 128,-1,34
 729 -150 729 -150 701 -143 c 0,0,1
EndSplineSet
EndChar

StartChar: parenright
Encoding: 41 41 12
Width: 897
GlyphClass: 2
Flags: W
LayerCount: 2
Fore
SplineSet
194 -143 m 0,0,1
 165 -148 165 -148 141 -125 c 128,-1,2
 117 -102 117 -102 117 -73 c 2,3,-1
 117 -29 l 2,4,5
 117 -14 117 -14 118.5 -3 c 128,-1,6
 120 8 120 8 126 17.5 c 128,-1,7
 132 27 132 27 135 32 c 128,-1,8
 138 37 138 37 150 44.5 c 128,-1,9
 162 52 162 52 167 54.5 c 128,-1,10
 172 57 172 57 190 65.5 c 128,-1,11
 208 74 208 74 214 77 c 0,12,13
 457 198 457 198 457 698 c 0,14,15
 457 1200 457 1200 214 1321 c 0,16,17
 207 1325 207 1325 189.5 1333 c 128,-1,18
 172 1341 172 1341 167 1344 c 128,-1,19
 162 1347 162 1347 150.5 1354 c 128,-1,20
 139 1361 139 1361 135.5 1366.5 c 128,-1,21
 132 1372 132 1372 126 1381.5 c 128,-1,22
 120 1391 120 1391 118.5 1402 c 128,-1,23
 117 1413 117 1413 117 1428 c 2,24,-1
 117 1470 l 2,25,26
 117 1499 117 1499 141 1522 c 128,-1,27
 165 1545 165 1545 194 1540 c 0,28,29
 315 1520 315 1520 411 1464 c 128,-1,30
 507 1408 507 1408 570.5 1329 c 128,-1,31
 634 1250 634 1250 676.5 1147 c 128,-1,32
 719 1044 719 1044 737 933 c 128,-1,33
 755 822 755 822 755 698 c 128,-1,34
 755 574 755 574 737 463 c 128,-1,35
 719 352 719 352 676.5 248.5 c 128,-1,36
 634 145 634 145 570.5 66.5 c 128,-1,37
 507 -12 507 -12 411 -67.5 c 128,-1,38
 315 -123 315 -123 194 -143 c 0,0,1
EndSplineSet
EndChar

StartChar: asterisk
Encoding: 42 42 13
Width: 1300
GlyphClass: 2
Flags: W
LayerCount: 2
Fore
SplineSet
393 335 m 0,0,1
 353 335 353 335 322 364.5 c 128,-1,2
 291 394 291 394 291 434 c 0,3,4
 291 457 291 457 313 494 c 128,-1,5
 335 531 335 531 373 575 c 128,-1,6
 411 619 411 619 444.5 654.5 c 128,-1,7
 478 690 478 690 519 731 c 128,-1,8
 560 772 560 772 569 782 c 1,9,-1
 197 864 l 2,10,11
 164 871 164 871 142 897 c 128,-1,12
 120 923 120 923 120 956 c 0,13,14
 120 996 120 996 148 1027.5 c 128,-1,15
 176 1059 176 1059 216 1059 c 0,16,17
 233 1059 233 1059 270 1045 c 128,-1,18
 307 1031 307 1031 359 1004.5 c 128,-1,19
 411 978 411 978 449 957.5 c 128,-1,20
 487 937 487 937 540.5 907.5 c 128,-1,21
 594 878 594 878 600 875 c 1,22,23
 595 912 595 912 580.5 996.5 c 128,-1,24
 566 1081 566 1081 557.5 1148 c 128,-1,25
 549 1215 549 1215 549 1271 c 0,26,27
 549 1310 549 1310 579 1334.5 c 128,-1,28
 609 1359 609 1359 648 1359 c 0,29,30
 688 1359 688 1359 716 1332 c 128,-1,31
 744 1305 744 1305 744 1266 c 0,32,33
 744 1210 744 1210 736 1145.5 c 128,-1,34
 728 1081 728 1081 714 995 c 128,-1,35
 700 909 700 909 695 875 c 1,36,37
 708 882 708 882 755.5 908 c 128,-1,38
 803 934 803 934 845.5 956.5 c 128,-1,39
 888 979 888 979 937.5 1004 c 128,-1,40
 987 1029 987 1029 1024.5 1044 c 128,-1,41
 1062 1059 1062 1059 1079 1059 c 0,42,43
 1120 1059 1120 1059 1147.5 1027.5 c 128,-1,44
 1175 996 1175 996 1175 956 c 0,45,46
 1175 923 1175 923 1153 897 c 128,-1,47
 1131 871 1131 871 1099 864 c 2,48,-1
 727 782 l 1,49,50
 734 775 734 775 791.5 715.5 c 128,-1,51
 849 656 849 656 888.5 613 c 128,-1,52
 928 570 928 570 966 516 c 128,-1,53
 1004 462 1004 462 1004 434 c 0,54,55
 1004 394 1004 394 973 364.5 c 128,-1,56
 942 335 942 335 902 335 c 0,57,58
 875 335 875 335 852 350 c 128,-1,59
 829 365 829 365 817 389 c 2,60,-1
 648 728 l 1,61,-1
 479 389 l 2,62,63
 467 365 467 365 443.5 350 c 128,-1,64
 420 335 420 335 393 335 c 0,0,1
EndSplineSet
EndChar

StartChar: plus
Encoding: 43 43 14
Width: 1229
GlyphClass: 2
Flags: W
LayerCount: 2
Fore
SplineSet
563 47 m 2,0,1
 500 47 500 47 500 117 c 2,2,-1
 500 422 l 2,3,4
 500 438 500 438 492 448.5 c 128,-1,5
 484 459 484 459 470 459 c 2,6,-1
 186 459 l 2,7,8
 123 459 123 459 123 522 c 2,9,-1
 123 624 l 2,10,11
 123 687 123 687 186 687 c 2,12,-1
 470 687 l 2,13,14
 484 687 484 687 492 697.5 c 128,-1,15
 500 708 500 708 500 724 c 2,16,-1
 500 1036 l 2,17,18
 500 1106 500 1106 563 1106 c 2,19,-1
 666 1106 l 2,20,21
 729 1106 729 1106 729 1036 c 2,22,-1
 729 724 l 2,23,24
 729 708 729 708 737 697.5 c 128,-1,25
 745 687 745 687 759 687 c 2,26,-1
 1042 687 l 2,27,28
 1105 687 1105 687 1105 624 c 2,29,-1
 1105 522 l 2,30,31
 1105 459 1105 459 1042 459 c 2,32,-1
 759 459 l 2,33,34
 745 459 745 459 737 448.5 c 128,-1,35
 729 438 729 438 729 422 c 2,36,-1
 729 117 l 2,37,38
 729 47 729 47 666 47 c 2,39,-1
 563 47 l 2,0,1
EndSplineSet
EndChar

StartChar: comma
Encoding: 44 44 15
Width: 613
GlyphClass: 2
Flags: W
LayerCount: 2
Fore
SplineSet
201 -314 m 0,0,1
 173 -319 173 -319 152.5 -307 c 128,-1,2
 132 -295 132 -295 132 -269 c 2,3,-1
 132 -246 l 2,4,5
 132 -226 132 -226 137 -214.5 c 128,-1,6
 142 -203 142 -203 147 -199 c 128,-1,7
 152 -195 152 -195 169 -186 c 128,-1,8
 186 -177 186 -177 196 -171 c 0,9,10
 242 -143 242 -143 266.5 -97.5 c 128,-1,11
 291 -52 291 -52 291 -27 c 0,12,13
 291 0 291 0 274 0 c 2,14,-1
 192 0 l 2,15,16
 132 0 132 0 132 56 c 2,17,-1
 132 259 l 2,18,19
 132 327 132 327 192 327 c 2,20,-1
 407 327 l 2,21,22
 439 327 439 327 461.5 304.5 c 128,-1,23
 484 282 484 282 484 250 c 2,24,-1
 484 74 l 2,25,26
 484 -11 484 -11 459.5 -82.5 c 128,-1,27
 435 -154 435 -154 394 -201 c 128,-1,28
 353 -248 353 -248 304 -276.5 c 128,-1,29
 255 -305 255 -305 201 -314 c 0,0,1
EndSplineSet
EndChar

StartChar: hyphen
Encoding: 45 45 16
Width: 907
GlyphClass: 2
Flags: W
LayerCount: 2
Fore
SplineSet
188 464 m 2,0,1
 124 464 124 464 124 527 c 2,2,-1
 124 624 l 2,3,4
 124 687 124 687 188 687 c 2,5,-1
 720 687 l 2,6,7
 782 687 782 687 782 624 c 2,8,-1
 782 527 l 2,9,10
 782 464 782 464 720 464 c 2,11,-1
 188 464 l 2,0,1
EndSplineSet
EndChar

StartChar: period
Encoding: 46 46 17
Width: 571
GlyphClass: 2
Flags: W
LayerCount: 2
Fore
SplineSet
205 0 m 2,0,1
 173 0 173 0 150.5 22.5 c 128,-1,2
 128 45 128 45 128 77 c 2,3,-1
 128 237 l 2,4,5
 128 269 128 269 150.5 291.5 c 128,-1,6
 173 314 173 314 205 314 c 2,7,-1
 366 314 l 2,8,9
 398 314 398 314 420.5 291.5 c 128,-1,10
 443 269 443 269 443 237 c 2,11,-1
 443 77 l 2,12,13
 443 45 443 45 420.5 22.5 c 128,-1,14
 398 0 398 0 366 0 c 2,15,-1
 205 0 l 2,0,1
EndSplineSet
EndChar

StartChar: slash
Encoding: 47 47 18
Width: 1189
GlyphClass: 2
Flags: W
LayerCount: 2
Fore
SplineSet
172 -230 m 1,0,1
 144 -228 144 -228 129.5 -216.5 c 128,-1,2
 115 -205 115 -205 123 -181 c 1,3,-1
 812 1611 l 2,4,5
 825 1647 825 1647 860 1647 c 2,6,-1
 1028 1647 l 2,7,8
 1055 1647 1055 1647 1065 1628.5 c 128,-1,9
 1075 1610 1075 1610 1064 1577 c 1,10,-1
 386 -181 l 2,11,12
 377 -206 377 -206 363 -218 c 128,-1,13
 349 -230 349 -230 322 -230 c 2,14,-1
 172 -230 l 1,0,1
EndSplineSet
EndChar

StartChar: zero
Encoding: 48 48 19
Width: 2060
GlyphClass: 2
Flags: W
LayerCount: 2
Fore
SplineSet
1031 202 m 0,0,1
 1162 202 1162 202 1254.5 228.5 c 128,-1,2
 1347 255 1347 255 1413.5 315.5 c 128,-1,3
 1480 376 1480 376 1512 478.5 c 128,-1,4
 1544 581 1544 581 1544 729 c 0,5,6
 1544 989 1544 989 1418 1112 c 128,-1,7
 1292 1235 1292 1235 1031 1235 c 128,-1,8
 770 1235 770 1235 643 1112.5 c 128,-1,9
 516 990 516 990 516 729 c 0,10,11
 516 581 516 581 549 478.5 c 128,-1,12
 582 376 582 376 649 315.5 c 128,-1,13
 716 255 716 255 809 228.5 c 128,-1,14
 902 202 902 202 1031 202 c 0,0,1
1031 -41 m 0,15,16
 880 -41 880 -41 753.5 -19 c 128,-1,17
 627 3 627 3 510.5 58 c 128,-1,18
 394 113 394 113 313.5 198.5 c 128,-1,19
 233 284 233 284 185 419 c 128,-1,20
 137 554 137 554 137 729 c 0,21,22
 137 890 137 890 184.5 1018.5 c 128,-1,23
 232 1147 232 1147 313.5 1231 c 128,-1,24
 395 1315 395 1315 510 1371 c 128,-1,25
 625 1427 625 1427 754 1451 c 128,-1,26
 883 1475 883 1475 1031 1475 c 0,27,28
 1180 1475 1180 1475 1309 1451 c 128,-1,29
 1438 1427 1438 1427 1553 1371 c 128,-1,30
 1668 1315 1668 1315 1749 1230.5 c 128,-1,31
 1830 1146 1830 1146 1877 1018 c 128,-1,32
 1924 890 1924 890 1924 729 c 0,33,34
 1924 554 1924 554 1876.5 419 c 128,-1,35
 1829 284 1829 284 1749 198.5 c 128,-1,36
 1669 113 1669 113 1552.5 58 c 128,-1,37
 1436 3 1436 3 1309.5 -19 c 128,-1,38
 1183 -41 1183 -41 1031 -41 c 0,15,16
EndSplineSet
EndChar

StartChar: one
Encoding: 49 49 20
Width: 1001
GlyphClass: 2
Flags: W
LayerCount: 2
Fore
SplineSet
529 0 m 2,0,1
 497 0 497 0 478 19 c 128,-1,2
 459 38 459 38 459 70 c 2,3,-1
 459 1134 l 2,4,5
 459 1149 459 1149 448 1160 c 128,-1,6
 437 1171 437 1171 422 1171 c 1,7,-1
 169 1145 l 1,8,9
 137 1145 137 1145 118 1164 c 128,-1,10
 99 1183 99 1183 99 1215 c 2,11,-1
 99 1308 l 2,12,13
 99 1340 99 1340 118 1359 c 128,-1,14
 137 1378 137 1378 169 1378 c 1,15,-1
 772 1438 l 1,16,17
 804 1438 804 1438 822.5 1419 c 128,-1,18
 841 1400 841 1400 841 1368 c 2,19,-1
 841 70 l 2,20,21
 841 38 841 38 822.5 19 c 128,-1,22
 804 0 804 0 772 0 c 2,23,-1
 529 0 l 2,0,1
EndSplineSet
EndChar

StartChar: two
Encoding: 50 50 21
Width: 2060
GlyphClass: 2
Flags: W
LayerCount: 2
Fore
SplineSet
228 1 m 2,0,1
 182 1 182 1 157 25 c 128,-1,2
 132 49 132 49 132 91 c 0,3,4
 132 95 132 95 133 107.5 c 128,-1,5
 134 120 134 120 136 133.5 c 128,-1,6
 138 147 138 147 138 151 c 0,7,8
 153 242 153 242 185.5 319 c 128,-1,9
 218 396 218 396 252.5 453 c 128,-1,10
 287 510 287 510 349.5 557.5 c 128,-1,11
 412 605 412 605 455 636 c 128,-1,12
 498 667 498 667 582.5 694 c 128,-1,13
 667 721 667 721 710 734 c 128,-1,14
 753 747 753 747 850 761 c 128,-1,15
 947 775 947 775 981.5 779 c 128,-1,16
 1016 783 1016 783 1116 792 c 0,17,18
 1199 800 1199 800 1240 804.5 c 128,-1,19
 1281 809 1281 809 1346 819.5 c 128,-1,20
 1411 830 1411 830 1442.5 843 c 128,-1,21
 1474 856 1474 856 1509.5 876.5 c 128,-1,22
 1545 897 1545 897 1559.5 926.5 c 128,-1,23
 1574 956 1574 956 1574 995 c 0,24,25
 1574 1063 1574 1063 1550.5 1108 c 128,-1,26
 1527 1153 1527 1153 1465.5 1187.5 c 128,-1,27
 1404 1222 1404 1222 1291 1237.5 c 128,-1,28
 1178 1253 1178 1253 1005 1253 c 0,29,30
 871 1253 871 1253 705 1224.5 c 128,-1,31
 539 1196 539 1196 457.5 1174.5 c 128,-1,32
 376 1153 376 1153 342 1141 c 1,33,34
 310 1131 310 1131 296 1131 c 0,35,36
 246 1131 246 1131 239 1161 c 1,37,38
 224 1191 224 1191 213.5 1219.5 c 128,-1,39
 203 1248 203 1248 199.5 1261.5 c 128,-1,40
 196 1275 196 1275 196 1278 c 0,41,42
 196 1330 196 1330 232 1347 c 1,43,44
 337 1388 337 1388 566 1432 c 128,-1,45
 795 1476 795 1476 964 1477 c 0,46,47
 1107 1477 1107 1477 1224.5 1468 c 128,-1,48
 1342 1459 1342 1459 1450 1438 c 128,-1,49
 1558 1417 1558 1417 1638.5 1381 c 128,-1,50
 1719 1345 1719 1345 1779.5 1294 c 128,-1,51
 1840 1243 1840 1243 1872.5 1170.5 c 128,-1,52
 1905 1098 1905 1098 1908 1007 c 0,53,54
 1911 898 1911 898 1875 819 c 128,-1,55
 1839 740 1839 740 1773.5 695 c 128,-1,56
 1708 650 1708 650 1622 621.5 c 128,-1,57
 1536 593 1536 593 1435.5 579 c 128,-1,58
 1335 565 1335 565 1231.5 555 c 128,-1,59
 1128 545 1128 545 1025 529.5 c 128,-1,60
 922 514 922 514 834.5 489.5 c 128,-1,61
 747 465 747 465 675 416 c 128,-1,62
 603 367 603 367 564 295 c 1,63,64
 552 285 552 285 552 267 c 0,65,66
 552 244 552 244 570.5 230 c 128,-1,67
 589 216 589 216 618 216 c 2,68,-1
 1819 216 l 2,69,70
 1867 216 1867 216 1867 152 c 2,71,-1
 1867 59 l 2,72,73
 1867 26 1867 26 1855 13.5 c 128,-1,74
 1843 1 1843 1 1813 1 c 2,75,-1
 228 1 l 2,0,1
EndSplineSet
EndChar

StartChar: three
Encoding: 51 51 22
Width: 2040
GlyphClass: 2
Flags: W
LayerCount: 2
Fore
SplineSet
1017 -40 m 0,0,1
 863 -40 863 -40 575.5 -1 c 128,-1,2
 288 38 288 38 194 66 c 1,3,4
 141 80 141 80 141 123 c 0,5,6
 141 131 141 131 142 136 c 2,7,-1
 153 239 l 1,8,9
 159 283 159 283 197 283 c 0,10,11
 206 283 206 283 220 280 c 0,12,13
 221 280 221 280 258.5 272.5 c 128,-1,14
 296 265 296 265 339 257.5 c 128,-1,15
 382 250 382 250 446.5 239 c 128,-1,16
 511 228 511 228 580 218.5 c 128,-1,17
 649 209 649 209 723.5 200.5 c 128,-1,18
 798 192 798 192 876.5 187 c 128,-1,19
 955 182 955 182 1023 182 c 0,20,21
 1157 182 1157 182 1255.5 198.5 c 128,-1,22
 1354 215 1354 215 1410 245 c 128,-1,23
 1466 275 1466 275 1493 311 c 128,-1,24
 1520 347 1520 347 1524 391 c 0,25,26
 1529 440 1529 440 1513.5 479.5 c 128,-1,27
 1498 519 1498 519 1455.5 553.5 c 128,-1,28
 1413 588 1413 588 1327.5 607 c 128,-1,29
 1242 626 1242 626 1118 626 c 2,30,-1
 882 626 l 2,31,32
 850 626 850 626 850 669 c 2,33,-1
 850 782 l 2,34,35
 850 825 850 825 882 825 c 2,36,-1
 1118 825 l 2,37,38
 1221 825 1221 825 1296 839 c 128,-1,39
 1371 853 1371 853 1412.5 875.5 c 128,-1,40
 1454 898 1454 898 1477.5 931 c 128,-1,41
 1501 964 1501 964 1506.5 996 c 128,-1,42
 1512 1028 1512 1028 1508 1068 c 0,43,44
 1503 1120 1503 1120 1468.5 1156.5 c 128,-1,45
 1434 1193 1434 1193 1371.5 1213.5 c 128,-1,46
 1309 1234 1309 1234 1229 1243 c 128,-1,47
 1149 1252 1149 1252 1043 1252 c 0,48,49
 969 1252 969 1252 887.5 1247 c 128,-1,50
 806 1242 806 1242 730.5 1233.5 c 128,-1,51
 655 1225 655 1225 584.5 1215.5 c 128,-1,52
 514 1206 514 1206 451.5 1195 c 128,-1,53
 389 1184 389 1184 345.5 1176 c 128,-1,54
 302 1168 302 1168 266.5 1160.5 c 128,-1,55
 231 1153 231 1153 229 1153 c 0,56,57
 216 1150 216 1150 206 1150 c 0,58,59
 163 1150 163 1150 157 1194 c 2,60,-1
 142 1296 l 2,61,62
 141 1301 141 1301 141 1309 c 0,63,64
 141 1352 141 1352 194 1366 c 1,65,66
 291 1395 291 1395 580.5 1434.5 c 128,-1,67
 870 1474 870 1474 1040 1474 c 0,68,69
 1337 1474 1337 1474 1525.5 1421.5 c 128,-1,70
 1714 1369 1714 1369 1796.5 1274.5 c 128,-1,71
 1879 1180 1879 1180 1879 1038 c 0,72,73
 1879 904 1879 904 1797.5 821 c 128,-1,74
 1716 738 1716 738 1567 723 c 1,75,76
 1723 704 1723 704 1809.5 617 c 128,-1,77
 1896 530 1896 530 1896 396 c 0,78,79
 1896 -40 1896 -40 1017 -40 c 0,0,1
EndSplineSet
EndChar

StartChar: four
Encoding: 52 52 23
Width: 1801
GlyphClass: 2
Flags: W
LayerCount: 2
Fore
SplineSet
1151 -53 m 2,0,1
 1119 -53 1119 -53 1100 -34 c 128,-1,2
 1081 -15 1081 -15 1081 17 c 2,3,-1
 1081 244 l 1,4,-1
 194 244 l 2,5,6
 165 244 165 244 143.5 259.5 c 128,-1,7
 122 275 122 275 122 300 c 0,8,9
 122 306 122 306 125 314 c 2,10,-1
 447 1368 l 2,11,12
 458 1404 458 1404 472.5 1421 c 128,-1,13
 487 1438 487 1438 517 1438 c 2,14,-1
 726 1438 l 2,15,16
 756 1438 756 1438 777.5 1422.5 c 128,-1,17
 799 1407 799 1407 799 1382 c 0,18,19
 799 1376 799 1376 796 1368 c 2,20,-1
 557 515 l 2,21,22
 556 512 556 512 556 508 c 0,23,24
 556 496 556 496 564.5 488.5 c 128,-1,25
 573 481 573 481 587 481 c 2,26,-1
 1081 481 l 1,27,-1
 1081 1368 l 2,28,29
 1081 1400 1081 1400 1100 1419 c 128,-1,30
 1119 1438 1119 1438 1151 1438 c 2,31,-1
 1315 1438 l 2,32,33
 1347 1438 1347 1438 1365.5 1419 c 128,-1,34
 1384 1400 1384 1400 1384 1368 c 2,35,-1
 1384 481 l 1,36,-1
 1608 481 l 2,37,38
 1640 481 1640 481 1659 462 c 128,-1,39
 1678 443 1678 443 1678 411 c 2,40,-1
 1678 314 l 2,41,42
 1678 282 1678 282 1659 263 c 128,-1,43
 1640 244 1640 244 1608 244 c 2,44,-1
 1384 244 l 1,45,-1
 1384 17 l 2,46,47
 1384 -15 1384 -15 1365.5 -34 c 128,-1,48
 1347 -53 1347 -53 1315 -53 c 2,49,-1
 1151 -53 l 2,0,1
EndSplineSet
EndChar

StartChar: five
Encoding: 53 53 24
Width: 2141
GlyphClass: 2
Flags: W
LayerCount: 2
Fore
SplineSet
978 -40 m 1,0,1
 815 -39 815 -39 572 -0.5 c 128,-1,2
 329 38 329 38 224 69 c 1,3,4
 171 83 171 83 171 126 c 0,5,6
 171 138 171 138 185 241 c 0,7,8
 191 285 191 285 229 285 c 0,9,10
 238 285 238 285 252 282 c 0,11,12
 254 282 254 282 309 269.5 c 128,-1,13
 364 257 364 257 433 244 c 128,-1,14
 502 231 502 231 592 216.5 c 128,-1,15
 682 202 682 202 786.5 193 c 128,-1,16
 891 184 891 184 985 184 c 0,17,18
 1343 184 1343 184 1489 246 c 128,-1,19
 1635 308 1635 308 1635 465 c 0,20,21
 1635 531 1635 531 1606 579 c 128,-1,22
 1577 627 1577 627 1511 664 c 128,-1,23
 1445 701 1445 701 1329.5 719.5 c 128,-1,24
 1214 738 1214 738 1049 738 c 0,25,26
 939 738 939 738 852 723.5 c 128,-1,27
 765 709 765 709 713.5 688.5 c 128,-1,28
 662 668 662 668 621.5 647.5 c 128,-1,29
 581 627 581 627 541.5 612.5 c 128,-1,30
 502 598 502 598 461 598 c 2,31,-1
 277 598 l 2,32,33
 266 598 266 598 257 599 c 128,-1,34
 248 600 248 600 241.5 604 c 128,-1,35
 235 608 235 608 230 610 c 128,-1,36
 225 612 225 612 221.5 619 c 128,-1,37
 218 626 218 626 216 628.5 c 128,-1,38
 214 631 214 631 212.5 641 c 128,-1,39
 211 651 211 651 210.5 652.5 c 128,-1,40
 210 654 210 654 209 666.5 c 128,-1,41
 208 679 208 679 208 680 c 2,42,-1
 144 1318 l 1,43,44
 144 1378 144 1378 164.5 1408 c 128,-1,45
 185 1438 185 1438 234 1438 c 2,46,-1
 1809 1438 l 2,47,48
 1836 1438 1836 1438 1849 1421.5 c 128,-1,49
 1862 1405 1862 1405 1862 1380 c 0,50,51
 1862 1372 1862 1372 1861 1367 c 2,52,-1
 1848 1263 l 2,53,54
 1842 1219 1842 1219 1804 1219 c 2,55,-1
 590 1233 l 2,56,57
 519 1233 519 1233 522 1161 c 2,58,-1
 535 803 l 1,59,60
 648 866 648 866 787 900 c 128,-1,61
 926 934 926 934 1169 934 c 0,62,63
 1361 934 1361 934 1507.5 910 c 128,-1,64
 1654 886 1654 886 1748 844 c 128,-1,65
 1842 802 1842 802 1901 739.5 c 128,-1,66
 1960 677 1960 677 1984 606 c 128,-1,67
 2008 535 2008 535 2008 447 c 0,68,69
 2008 351 2008 351 1974.5 275.5 c 128,-1,70
 1941 200 1941 200 1875.5 147 c 128,-1,71
 1810 94 1810 94 1722.5 57 c 128,-1,72
 1635 20 1635 20 1515.5 -1 c 128,-1,73
 1396 -22 1396 -22 1267.5 -31 c 128,-1,74
 1139 -40 1139 -40 981 -40 c 2,75,-1
 978 -40 l 1,0,1
EndSplineSet
EndChar

StartChar: six
Encoding: 54 54 25
Width: 2018
GlyphClass: 2
Flags: W
LayerCount: 2
Fore
SplineSet
1004 -41 m 0,0,1
 815 -41 815 -41 668.5 -6 c 128,-1,2
 522 29 522 29 422.5 93 c 128,-1,3
 323 157 323 157 259 251.5 c 128,-1,4
 195 346 195 346 167 459.5 c 128,-1,5
 139 573 139 573 139 713 c 0,6,7
 139 922 139 922 193.5 1067 c 128,-1,8
 248 1212 248 1212 364.5 1302.5 c 128,-1,9
 481 1393 481 1393 653 1433 c 128,-1,10
 825 1473 825 1473 1071 1473 c 0,11,12
 1213 1473 1213 1473 1408 1440.5 c 128,-1,13
 1603 1408 1603 1408 1697 1373 c 0,14,15
 1732 1361 1732 1361 1732 1329 c 0,16,17
 1732 1320 1732 1320 1730 1315 c 2,18,-1
 1700 1186 l 2,19,20
 1693 1155 1693 1155 1663 1155 c 0,21,22
 1654 1155 1654 1155 1645 1158 c 0,23,24
 1577 1185 1577 1185 1396 1217 c 128,-1,25
 1215 1249 1215 1249 1068 1248 c 0,26,27
 784 1247 784 1247 658.5 1166.5 c 128,-1,28
 533 1086 533 1086 534 909 c 1,29,-1
 534 860 l 1,30,31
 863 907 863 907 1065 907 c 0,32,33
 1247 907 1247 907 1388.5 883 c 128,-1,34
 1530 859 1530 859 1622.5 816.5 c 128,-1,35
 1715 774 1715 774 1775 713.5 c 128,-1,36
 1835 653 1835 653 1860 584 c 128,-1,37
 1885 515 1885 515 1885 433 c 0,38,39
 1885 324 1885 324 1840.5 241 c 128,-1,40
 1796 158 1796 158 1720 105 c 128,-1,41
 1644 52 1644 52 1530 18.5 c 128,-1,42
 1416 -15 1416 -15 1289 -28 c 128,-1,43
 1162 -41 1162 -41 1004 -41 c 0,0,1
1009 175 m 0,44,45
 1113 175 1113 175 1189 182 c 128,-1,46
 1265 189 1265 189 1329 206.5 c 128,-1,47
 1393 224 1393 224 1432 254.5 c 128,-1,48
 1471 285 1471 285 1492.5 332 c 128,-1,49
 1514 379 1514 379 1514 444 c 0,50,51
 1514 496 1514 496 1502 535.5 c 128,-1,52
 1490 575 1490 575 1458.5 610.5 c 128,-1,53
 1427 646 1427 646 1375 668.5 c 128,-1,54
 1323 691 1323 691 1240 704 c 128,-1,55
 1157 717 1157 717 1046 717 c 0,56,57
 836 717 836 717 526 670 c 1,58,-1
 526 540 l 2,59,60
 526 353 526 353 644.5 264 c 128,-1,61
 763 175 763 175 1009 175 c 0,44,45
EndSplineSet
EndChar

StartChar: seven
Encoding: 55 55 26
Width: 1215
GlyphClass: 2
Flags: W
LayerCount: 2
Fore
SplineSet
415 0 m 2,0,1
 381 0 381 0 359.5 20 c 128,-1,2
 338 40 338 40 345 70 c 1,3,-1
 683 1171 l 2,4,5
 687 1185 687 1185 678 1195 c 128,-1,6
 669 1205 669 1205 654 1205 c 2,7,-1
 163 1205 l 2,8,9
 131 1205 131 1205 112.5 1224 c 128,-1,10
 94 1243 94 1243 94 1275 c 2,11,-1
 94 1368 l 2,12,13
 94 1400 94 1400 112.5 1419 c 128,-1,14
 131 1438 131 1438 163 1438 c 2,15,-1
 1038 1438 l 2,16,17
 1070 1438 1070 1438 1089 1419 c 128,-1,18
 1108 1400 1108 1400 1108 1368 c 1,19,-1
 714 70 l 1,20,21
 706 35 706 35 690 17.5 c 128,-1,22
 674 0 674 0 644 0 c 2,23,-1
 415 0 l 2,0,1
EndSplineSet
EndChar

StartChar: eight
Encoding: 56 56 27
Width: 2046
GlyphClass: 2
Flags: W
LayerCount: 2
Fore
SplineSet
1024 -41 m 0,0,1
 916 -41 916 -41 829.5 -37 c 128,-1,2
 743 -33 743 -33 648 -20.5 c 128,-1,3
 553 -8 553 -8 481.5 12.5 c 128,-1,4
 410 33 410 33 343 67.5 c 128,-1,5
 276 102 276 102 232.5 149.5 c 128,-1,6
 189 197 189 197 163.5 264.5 c 128,-1,7
 138 332 138 332 138 416 c 0,8,9
 138 533 138 533 224.5 628 c 128,-1,10
 311 723 311 723 425 768 c 1,11,12
 388 787 388 787 353.5 814.5 c 128,-1,13
 319 842 319 842 286 879.5 c 128,-1,14
 253 917 253 917 233 968 c 128,-1,15
 213 1019 213 1019 213 1073 c 0,16,17
 213 1474 213 1474 1024 1474 c 0,18,19
 1164 1474 1164 1474 1277 1462 c 128,-1,20
 1390 1450 1390 1450 1492 1420 c 128,-1,21
 1594 1390 1594 1390 1662.5 1342 c 128,-1,22
 1731 1294 1731 1294 1771 1219 c 128,-1,23
 1811 1144 1811 1144 1811 1045 c 0,24,25
 1811 942 1811 942 1745 852 c 128,-1,26
 1679 762 1679 762 1592 731 c 1,27,28
 1731 694 1731 694 1820.5 609.5 c 128,-1,29
 1910 525 1910 525 1910 405 c 0,30,31
 1910 326 1910 326 1884.5 261.5 c 128,-1,32
 1859 197 1859 197 1815.5 151 c 128,-1,33
 1772 105 1772 105 1706 70.5 c 128,-1,34
 1640 36 1640 36 1567 15 c 128,-1,35
 1494 -6 1494 -6 1401 -19 c 128,-1,36
 1308 -32 1308 -32 1219 -36.5 c 128,-1,37
 1130 -41 1130 -41 1024 -41 c 0,0,1
1024 160 m 0,38,39
 1323 160 1323 160 1438.5 210.5 c 128,-1,40
 1554 261 1554 261 1554 406 c 0,41,42
 1554 454 1554 454 1527.5 488 c 128,-1,43
 1501 522 1501 522 1441.5 546 c 128,-1,44
 1382 570 1382 570 1309.5 585 c 128,-1,45
 1237 600 1237 600 1122 615 c 0,46,47
 1069 622 1069 622 993.5 632.5 c 128,-1,48
 918 643 918 643 813.5 658 c 128,-1,49
 709 673 709 673 646 682 c 1,50,51
 571 636 571 636 532 568 c 128,-1,52
 493 500 493 500 493 428 c 0,53,54
 493 363 493 363 516 316 c 128,-1,55
 539 269 539 269 580.5 239 c 128,-1,56
 622 209 622 209 690 191.5 c 128,-1,57
 758 174 758 174 837 167 c 128,-1,58
 916 160 916 160 1024 160 c 0,38,39
1355 796 m 1,59,60
 1488 918 1488 918 1488 1040 c 0,61,62
 1488 1175 1488 1175 1376 1232.5 c 128,-1,63
 1264 1290 1264 1290 1024 1290 c 0,64,65
 783 1290 783 1290 671 1241 c 128,-1,66
 559 1192 559 1192 559 1069 c 0,67,68
 559 883 559 883 886 848 c 1,69,70
 1062 822 1062 822 1355 796 c 1,59,60
EndSplineSet
EndChar

StartChar: nine
Encoding: 57 57 28
Width: 2012
GlyphClass: 2
Flags: W
LayerCount: 2
Fore
SplineSet
940 -41 m 0,0,1
 800 -41 800 -41 605 -8.5 c 128,-1,2
 410 24 410 24 315 59 c 0,3,4
 280 71 280 71 280 103 c 0,5,6
 280 112 280 112 281 117 c 2,7,-1
 311 246 l 2,8,9
 319 277 319 277 349 277 c 0,10,11
 358 277 358 277 367 274 c 0,12,13
 436 247 436 247 616.5 215 c 128,-1,14
 797 183 797 183 944 184 c 0,15,16
 1228 185 1228 185 1353.5 265.5 c 128,-1,17
 1479 346 1479 346 1478 523 c 1,18,-1
 1478 572 l 1,19,20
 1153 524 1153 524 947 524 c 0,21,22
 765 524 765 524 623.5 548.5 c 128,-1,23
 482 573 482 573 390.5 615 c 128,-1,24
 299 657 299 657 239.5 718.5 c 128,-1,25
 180 780 180 780 155.5 849 c 128,-1,26
 131 918 131 918 131 1000 c 0,27,28
 131 1109 131 1109 175 1192 c 128,-1,29
 219 1275 219 1275 294.5 1328 c 128,-1,30
 370 1381 370 1381 483.5 1414 c 128,-1,31
 597 1447 597 1447 723.5 1460 c 128,-1,32
 850 1473 850 1473 1008 1473 c 0,33,34
 1197 1473 1197 1473 1343.5 1438 c 128,-1,35
 1490 1403 1490 1403 1589 1339.5 c 128,-1,36
 1688 1276 1688 1276 1752 1181 c 128,-1,37
 1816 1086 1816 1086 1844 972.5 c 128,-1,38
 1872 859 1872 859 1872 719 c 0,39,40
 1872 509 1872 509 1818 364.5 c 128,-1,41
 1764 220 1764 220 1647.5 129.5 c 128,-1,42
 1531 39 1531 39 1358.5 -1 c 128,-1,43
 1186 -41 1186 -41 940 -41 c 0,0,1
966 715 m 0,44,45
 1177 715 1177 715 1485 762 c 1,46,-1
 1485 892 l 2,47,48
 1485 1079 1485 1079 1367 1168.5 c 128,-1,49
 1249 1258 1249 1258 1003 1258 c 0,50,51
 899 1258 899 1258 823 1251 c 128,-1,52
 747 1244 747 1244 683 1226 c 128,-1,53
 619 1208 619 1208 580 1177.5 c 128,-1,54
 541 1147 541 1147 519.5 1100 c 128,-1,55
 498 1053 498 1053 498 988 c 0,56,57
 498 936 498 936 510 896.5 c 128,-1,58
 522 857 522 857 553.5 821.5 c 128,-1,59
 585 786 585 786 637 763.5 c 128,-1,60
 689 741 689 741 771.5 728 c 128,-1,61
 854 715 854 715 966 715 c 0,44,45
EndSplineSet
EndChar

StartChar: colon
Encoding: 58 58 29
Width: 614
GlyphClass: 2
Flags: W
LayerCount: 2
Fore
SplineSet
226 0 m 2,0,1
 194 0 194 0 171.5 22.5 c 128,-1,2
 149 45 149 45 149 77 c 2,3,-1
 149 237 l 2,4,5
 149 269 149 269 171.5 291.5 c 128,-1,6
 194 314 194 314 226 314 c 2,7,-1
 388 314 l 2,8,9
 420 314 420 314 442.5 291.5 c 128,-1,10
 465 269 465 269 465 237 c 2,11,-1
 465 77 l 2,12,13
 465 45 465 45 442.5 22.5 c 128,-1,14
 420 0 420 0 388 0 c 2,15,-1
 226 0 l 2,0,1
226 725 m 2,16,17
 194 725 194 725 171.5 747.5 c 128,-1,18
 149 770 149 770 149 802 c 2,19,-1
 149 961 l 2,20,21
 149 993 149 993 171.5 1015.5 c 128,-1,22
 194 1038 194 1038 226 1038 c 2,23,-1
 388 1038 l 2,24,25
 420 1038 420 1038 442.5 1015.5 c 128,-1,26
 465 993 465 993 465 961 c 2,27,-1
 465 802 l 2,28,29
 465 770 465 770 442.5 747.5 c 128,-1,30
 420 725 420 725 388 725 c 2,31,-1
 226 725 l 2,16,17
EndSplineSet
EndChar

StartChar: semicolon
Encoding: 59 59 30
Width: 646
GlyphClass: 2
Flags: W
LayerCount: 2
Fore
SplineSet
217 -314 m 0,0,1
 189 -319 189 -319 168.5 -307 c 128,-1,2
 148 -295 148 -295 148 -269 c 2,3,-1
 148 -246 l 2,4,5
 148 -226 148 -226 153 -214.5 c 128,-1,6
 158 -203 158 -203 163 -199 c 128,-1,7
 168 -195 168 -195 185 -186 c 128,-1,8
 202 -177 202 -177 212 -171 c 0,9,10
 258 -143 258 -143 282.5 -97.5 c 128,-1,11
 307 -52 307 -52 307 -27 c 0,12,13
 307 0 307 0 290 0 c 2,14,-1
 208 0 l 2,15,16
 148 0 148 0 148 56 c 2,17,-1
 148 259 l 2,18,19
 148 327 148 327 208 327 c 2,20,-1
 423 327 l 2,21,22
 455 327 455 327 477.5 304.5 c 128,-1,23
 500 282 500 282 500 250 c 2,24,-1
 500 74 l 2,25,26
 500 -11 500 -11 475.5 -82.5 c 128,-1,27
 451 -154 451 -154 410 -201 c 128,-1,28
 369 -248 369 -248 320 -276.5 c 128,-1,29
 271 -305 271 -305 217 -314 c 0,0,1
241 725 m 2,30,31
 209 725 209 725 186.5 747.5 c 128,-1,32
 164 770 164 770 164 802 c 2,33,-1
 164 961 l 2,34,35
 164 993 164 993 186.5 1015.5 c 128,-1,36
 209 1038 209 1038 241 1038 c 2,37,-1
 403 1038 l 2,38,39
 435 1038 435 1038 457.5 1015.5 c 128,-1,40
 480 993 480 993 480 961 c 2,41,-1
 480 802 l 2,42,43
 480 770 480 770 457.5 747.5 c 128,-1,44
 435 725 435 725 403 725 c 2,45,-1
 241 725 l 2,30,31
EndSplineSet
EndChar

StartChar: less
Encoding: 60 60 31
Width: 1236
GlyphClass: 2
Flags: W
LayerCount: 2
Fore
SplineSet
1060 -46 m 0,0,1
 1056 -46 1056 -46 1022 -32 c 1,2,-1
 194 395 l 1,3,4
 163 409 163 409 145.5 439.5 c 128,-1,5
 128 470 128 470 128 503 c 2,6,-1
 128 705 l 2,7,8
 128 768 128 768 194 806 c 1,9,-1
 1022 1252 l 2,10,11
 1041 1262 1041 1262 1056 1262 c 0,12,13
 1089 1262 1089 1262 1089 1219 c 2,14,-1
 1089 1037 l 2,15,16
 1089 981 1089 981 1021 946 c 2,17,-1
 372 606 l 2,18,19
 363 602 363 602 363 592 c 0,20,21
 363 584 363 584 372 579 c 2,22,-1
 1021 266 l 2,23,24
 1089 233 1089 233 1089 167 c 2,25,-1
 1089 -6 l 2,26,27
 1089 -46 1089 -46 1060 -46 c 0,0,1
EndSplineSet
EndChar

StartChar: equal
Encoding: 61 61 32
Width: 1003
GlyphClass: 2
Flags: W
LayerCount: 2
Fore
SplineSet
202 283 m 2,0,1
 139 283 139 283 139 346 c 2,2,-1
 139 406 l 2,3,4
 139 469 139 469 202 469 c 2,5,-1
 801 469 l 2,6,7
 864 469 864 469 864 406 c 2,8,-1
 864 346 l 2,9,10
 864 283 864 283 801 283 c 2,11,-1
 202 283 l 2,0,1
202 619 m 2,12,13
 139 619 139 619 139 682 c 2,14,-1
 139 743 l 2,15,16
 139 806 139 806 202 806 c 2,17,-1
 801 806 l 2,18,19
 864 806 864 806 864 743 c 2,20,-1
 864 682 l 2,21,22
 864 619 864 619 801 619 c 2,23,-1
 202 619 l 2,12,13
EndSplineSet
EndChar

StartChar: greater
Encoding: 62 62 33
Width: 1237
GlyphClass: 2
Flags: W
LayerCount: 2
Fore
SplineSet
180 -46 m 0,0,1
 146 -46 146 -46 146 -3 c 2,2,-1
 146 179 l 2,3,4
 146 235 146 235 213 270 c 2,5,-1
 863 610 l 2,6,7
 873 616 873 616 873 624 c 0,8,9
 873 633 873 633 863 637 c 2,10,-1
 213 950 l 1,11,12
 146 984 146 984 146 1049 c 2,13,-1
 146 1222 l 2,14,15
 146 1262 146 1262 176 1262 c 0,16,17
 181 1262 181 1262 213 1248 c 1,18,-1
 1041 821 l 1,19,20
 1072 807 1072 807 1090 776.5 c 128,-1,21
 1108 746 1108 746 1108 713 c 2,22,-1
 1108 511 l 2,23,24
 1108 449 1108 449 1041 410 c 1,25,-1
 213 -36 l 2,26,27
 196 -46 196 -46 180 -46 c 0,0,1
EndSplineSet
EndChar

StartChar: question
Encoding: 63 63 34
Width: 1789
GlyphClass: 2
Flags: W
LayerCount: 2
Fore
SplineSet
609 567 m 0,0,1
 609 606 609 606 642 642 c 128,-1,2
 675 678 675 678 728 706 c 128,-1,3
 781 734 781 734 845 760.5 c 128,-1,4
 909 787 909 787 973 814 c 128,-1,5
 1037 841 1037 841 1089.5 869.5 c 128,-1,6
 1142 898 1142 898 1175 934 c 128,-1,7
 1208 970 1208 970 1208 1010 c 0,8,9
 1208 1059 1208 1059 1180 1094.5 c 128,-1,10
 1152 1130 1152 1130 1091 1155.5 c 128,-1,11
 1030 1181 1030 1181 930.5 1193 c 128,-1,12
 831 1205 831 1205 690 1205 c 0,13,14
 605 1205 605 1205 497.5 1189.5 c 128,-1,15
 390 1174 390 1174 306 1158.5 c 128,-1,16
 222 1143 222 1143 192 1143 c 0,17,18
 171 1143 171 1143 157 1158 c 128,-1,19
 143 1173 143 1173 134 1203 c 0,20,21
 132 1210 132 1210 130 1219 c 128,-1,22
 128 1228 128 1228 126 1237.5 c 128,-1,23
 124 1247 124 1247 122.5 1256 c 128,-1,24
 121 1265 121 1265 120 1272.5 c 128,-1,25
 119 1280 119 1280 118.5 1285 c 128,-1,26
 118 1290 118 1290 118 1291 c 0,27,28
 118 1313 118 1313 148.5 1331.5 c 128,-1,29
 179 1350 179 1350 227 1362.5 c 128,-1,30
 275 1375 275 1375 337.5 1385 c 128,-1,31
 400 1395 400 1395 460 1401 c 128,-1,32
 520 1407 520 1407 579 1410.5 c 128,-1,33
 638 1414 638 1414 675.5 1415 c 128,-1,34
 713 1416 713 1416 733 1416 c 0,35,36
 894 1416 894 1416 1027 1392.5 c 128,-1,37
 1160 1369 1160 1369 1262 1321 c 128,-1,38
 1364 1273 1364 1273 1421 1195 c 128,-1,39
 1478 1117 1478 1117 1478 1014 c 0,40,41
 1478 974 1478 974 1466 938 c 128,-1,42
 1454 902 1454 902 1438 874.5 c 128,-1,43
 1422 847 1422 847 1385 816.5 c 128,-1,44
 1348 786 1348 786 1320.5 766.5 c 128,-1,45
 1293 747 1293 747 1234 716.5 c 128,-1,46
 1175 686 1175 686 1138 668.5 c 128,-1,47
 1101 651 1101 651 1023 615 c 0,48,49
 921 569 921 569 865 542 c 0,50,51
 816 519 816 519 765.5 482 c 128,-1,52
 715 445 715 445 701 440 c 1,53,54
 609 508 609 508 609 567 c 0,0,1
625 0 m 2,55,56
 563 0 563 0 563 63 c 2,57,-1
 563 211 l 2,58,59
 563 274 563 274 625 274 c 2,60,-1
 811 274 l 2,61,62
 874 274 874 274 874 211 c 2,63,-1
 874 63 l 2,64,65
 874 0 874 0 811 0 c 2,66,-1
 625 0 l 2,55,56
EndSplineSet
EndChar

StartChar: at
Encoding: 64 64 35
Width: 2244
GlyphClass: 2
Flags: W
LayerCount: 2
Fore
SplineSet
1068 -285 m 0,0,1
 843 -285 843 -285 662.5 -213 c 128,-1,2
 482 -141 482 -141 369 -18.5 c 128,-1,3
 256 104 256 104 196.5 261 c 128,-1,4
 137 418 137 418 137 595 c 0,5,6
 137 780 137 780 208 941 c 128,-1,7
 279 1102 279 1102 407 1220.5 c 128,-1,8
 535 1339 535 1339 725.5 1407 c 128,-1,9
 916 1475 916 1475 1144 1475 c 0,10,11
 1325 1475 1325 1475 1481 1428.5 c 128,-1,12
 1637 1382 1637 1382 1751 1300 c 128,-1,13
 1865 1218 1865 1218 1946 1107.5 c 128,-1,14
 2027 997 2027 997 2067.5 868.5 c 128,-1,15
 2108 740 2108 740 2109 601 c 0,16,17
 2109 499 2109 499 2090.5 416.5 c 128,-1,18
 2072 334 2072 334 2041.5 281 c 128,-1,19
 2011 228 2011 228 1969.5 192.5 c 128,-1,20
 1928 157 1928 157 1884.5 142 c 128,-1,21
 1841 127 1841 127 1794 127 c 0,22,23
 1703 127 1703 127 1632.5 178.5 c 128,-1,24
 1562 230 1562 230 1558 301 c 1,25,26
 1553 339 1553 339 1541 339 c 0,27,28
 1539 339 1539 339 1536.5 337.5 c 128,-1,29
 1534 336 1534 336 1532 333 c 128,-1,30
 1530 330 1530 330 1528 327.5 c 128,-1,31
 1526 325 1526 325 1523.5 321 c 128,-1,32
 1521 317 1521 317 1520 315 c 0,33,34
 1380 101 1380 101 1112 101 c 0,35,36
 1004 101 1004 101 908 132 c 128,-1,37
 812 163 812 163 737.5 220.5 c 128,-1,38
 663 278 663 278 619.5 369.5 c 128,-1,39
 576 461 576 461 576 573 c 0,40,41
 576 715 576 715 644.5 820.5 c 128,-1,42
 713 926 713 926 827.5 978.5 c 128,-1,43
 942 1031 942 1031 1085 1031 c 0,44,45
 1234 1031 1234 1031 1347.5 967 c 128,-1,46
 1461 903 1461 903 1508 810 c 0,47,48
 1514 798 1514 798 1518 798 c 0,49,50
 1521 798 1521 798 1524 811 c 1,51,-1
 1543 936 l 1,52,53
 1552 986 1552 986 1620 986 c 2,54,-1
 1636 986 l 2,55,56
 1664 986 1664 986 1683 968.5 c 128,-1,57
 1702 951 1702 951 1702 925 c 2,58,-1
 1702 403 l 2,59,60
 1702 338 1702 338 1729 307.5 c 128,-1,61
 1756 277 1756 277 1797 277 c 0,62,63
 1821 277 1821 277 1837.5 287 c 128,-1,64
 1854 297 1854 297 1871.5 327.5 c 128,-1,65
 1889 358 1889 358 1898 427 c 128,-1,66
 1907 496 1907 496 1907 601 c 0,67,68
 1907 743 1907 743 1858 866 c 128,-1,69
 1809 989 1809 989 1716 1083 c 128,-1,70
 1623 1177 1623 1177 1477 1231 c 128,-1,71
 1331 1285 1331 1285 1148 1285 c 0,72,73
 963 1285 963 1285 814.5 1230 c 128,-1,74
 666 1175 666 1175 571 1080 c 128,-1,75
 476 985 476 985 426 859.5 c 128,-1,76
 376 734 376 734 376 590 c 0,77,78
 376 483 376 483 401.5 383.5 c 128,-1,79
 427 284 427 284 484 194.5 c 128,-1,80
 541 105 541 105 623 38.5 c 128,-1,81
 705 -28 705 -28 827 -67 c 128,-1,82
 949 -106 949 -106 1096 -106 c 0,83,84
 1266 -106 1266 -106 1398 -53 c 1,85,-1
 1449 -223 l 1,86,87
 1278 -285 1278 -285 1068 -285 c 0,0,1
1120 283 m 0,88,89
 1187 283 1187 283 1245 297 c 128,-1,90
 1303 311 1303 311 1353.5 342 c 128,-1,91
 1404 373 1404 373 1433.5 429.5 c 128,-1,92
 1463 486 1463 486 1463 564 c 0,93,94
 1463 636 1463 636 1433 691.5 c 128,-1,95
 1403 747 1403 747 1352.5 778 c 128,-1,96
 1302 809 1302 809 1243 824.5 c 128,-1,97
 1184 840 1184 840 1119 840 c 0,98,99
 1040 840 1040 840 981 816.5 c 128,-1,100
 922 793 922 793 888.5 752.5 c 128,-1,101
 855 712 855 712 839.5 663.5 c 128,-1,102
 824 615 824 615 824 559 c 0,103,104
 824 441 824 441 899.5 362 c 128,-1,105
 975 283 975 283 1120 283 c 0,88,89
EndSplineSet
EndChar

StartChar: A
Encoding: 65 65 36
Width: 2066
GlyphClass: 2
Flags: W
LayerCount: 2
Fore
SplineSet
150 0 m 2,0,1
 129 0 129 0 117 10 c 128,-1,2
 105 20 105 20 105 37 c 0,3,4
 105 52 105 52 113 68 c 2,5,-1
 787 1370 l 2,6,7
 820 1435 820 1435 885 1438 c 1,8,-1
 1210 1438 l 1,9,10
 1276 1435 1276 1435 1309 1370 c 2,11,-1
 1949 68 l 2,12,13
 1959 48 1959 48 1959 36 c 0,14,15
 1959 20 1959 20 1947 10 c 128,-1,16
 1935 0 1935 0 1914 0 c 2,17,-1
 1639 0 l 2,18,19
 1568 0 1568 0 1538 64 c 2,20,-1
 1436 280 l 1,21,22
 1432 292 1432 292 1419 292 c 2,23,-1
 600 292 l 2,24,25
 588 292 588 292 582 279 c 2,26,-1
 477 64 l 1,27,28
 447 0 447 0 378 0 c 2,29,-1
 150 0 l 2,0,1
693 495 m 2,30,-1
 1338 495 l 2,31,32
 1348 495 1348 495 1348 504 c 0,33,34
 1348 508 1348 508 1346 510 c 2,35,-1
 1029 1186 l 2,36,37
 1028 1190 1028 1190 1024 1190 c 0,38,39
 1021 1190 1021 1190 1019 1186 c 2,40,-1
 682 509 l 2,41,42
 682 508 682 508 681.5 507 c 128,-1,43
 681 506 681 506 681 505 c 0,44,45
 681 495 681 495 693 495 c 2,30,-1
EndSplineSet
EndChar

StartChar: B
Encoding: 66 66 37
Width: 2312
GlyphClass: 2
Flags: W
LayerCount: 2
Fore
SplineSet
237 0 m 2,0,1
 205 0 205 0 182.5 22.5 c 128,-1,2
 160 45 160 45 160 77 c 2,3,-1
 160 1359 l 2,4,5
 160 1391 160 1391 182.5 1414.5 c 128,-1,6
 205 1438 205 1438 237 1438 c 2,7,-1
 1435 1438 l 2,8,9
 1767 1438 1767 1438 1922.5 1348 c 128,-1,10
 2078 1258 2078 1258 2078 1040 c 0,11,12
 2078 887 2078 887 1909 788 c 0,13,14
 1907 787 1907 787 1905 785 c 128,-1,15
 1903 783 1903 783 1902 781 c 128,-1,16
 1901 779 1901 779 1900.5 777 c 128,-1,17
 1900 775 1900 775 1900 773 c 0,18,19
 1900 762 1900 762 1912 757 c 0,20,21
 2176 649 2176 649 2176 424 c 0,22,23
 2176 327 2176 327 2141.5 254 c 128,-1,24
 2107 181 2107 181 2043.5 133 c 128,-1,25
 1980 85 1980 85 1881.5 55 c 128,-1,26
 1783 25 1783 25 1664 12.5 c 128,-1,27
 1545 0 1545 0 1390 0 c 2,28,-1
 237 0 l 2,0,1
567 222 m 2,29,-1
 1387 222 l 2,30,31
 1441 222 1441 222 1483 224.5 c 128,-1,32
 1525 227 1525 227 1575.5 234.5 c 128,-1,33
 1626 242 1626 242 1662.5 258 c 128,-1,34
 1699 274 1699 274 1731 297.5 c 128,-1,35
 1763 321 1763 321 1779.5 358.5 c 128,-1,36
 1796 396 1796 396 1796 445 c 0,37,38
 1796 498 1796 498 1779 536.5 c 128,-1,39
 1762 575 1762 575 1732.5 598 c 128,-1,40
 1703 621 1703 621 1656.5 634.5 c 128,-1,41
 1610 648 1610 648 1559.5 653 c 128,-1,42
 1509 658 1509 658 1441 658 c 2,43,-1
 567 658 l 2,44,45
 530 658 530 658 530 620 c 2,46,-1
 530 257 l 2,47,48
 530 222 530 222 567 222 c 2,29,-1
567 844 m 2,49,-1
 1458 844 l 1,50,51
 1525 846 1525 846 1569 854 c 128,-1,52
 1613 862 1613 862 1651 881.5 c 128,-1,53
 1689 901 1689 901 1707 937 c 128,-1,54
 1725 973 1725 973 1725 1027 c 0,55,56
 1725 1069 1725 1069 1713.5 1102 c 128,-1,57
 1702 1135 1702 1135 1686 1156 c 128,-1,58
 1670 1177 1670 1177 1640 1192 c 128,-1,59
 1610 1207 1610 1207 1585 1215 c 128,-1,60
 1560 1223 1560 1223 1518.5 1227 c 128,-1,61
 1477 1231 1477 1231 1450.5 1231.5 c 128,-1,62
 1424 1232 1424 1232 1378 1232 c 2,63,-1
 567 1232 l 2,64,65
 530 1232 530 1232 530 1192 c 2,66,-1
 530 899 l 2,67,68
 530 877 530 877 541 860.5 c 128,-1,69
 552 844 552 844 567 844 c 2,49,-1
EndSplineSet
EndChar

StartChar: C
Encoding: 67 67 38
Width: 2284
GlyphClass: 2
Flags: W
LayerCount: 2
Fore
SplineSet
1192 -41 m 0,0,1
 1080 -41 1080 -41 976.5 -31.5 c 128,-1,2
 873 -22 873 -22 765 2 c 128,-1,3
 657 26 657 26 566.5 64 c 128,-1,4
 476 102 476 102 394.5 162 c 128,-1,5
 313 222 313 222 256.5 299 c 128,-1,6
 200 376 200 376 167 483.5 c 128,-1,7
 134 591 134 591 134 720 c 0,8,9
 134 842 134 842 167 945.5 c 128,-1,10
 200 1049 200 1049 256.5 1125.5 c 128,-1,11
 313 1202 313 1202 394 1262.5 c 128,-1,12
 475 1323 475 1323 566.5 1362 c 128,-1,13
 658 1401 658 1401 765 1427 c 128,-1,14
 872 1453 872 1453 976.5 1464 c 128,-1,15
 1081 1475 1081 1475 1192 1475 c 0,16,17
 1315 1475 1315 1475 1428.5 1460.5 c 128,-1,18
 1542 1446 1542 1446 1655.5 1411.5 c 128,-1,19
 1769 1377 1769 1377 1860.5 1325 c 128,-1,20
 1952 1273 1952 1273 2025.5 1191.5 c 128,-1,21
 2099 1110 2099 1110 2137 1007 c 1,22,23
 2140 992 2140 992 2140 990 c 0,24,25
 2140 977 2140 977 2123 974 c 0,26,27
 2068 966 2068 966 2001.5 959 c 128,-1,28
 1935 952 1935 952 1896 949 c 2,29,-1
 1857 946 l 1,30,31
 1812 944 1812 944 1789 981 c 1,32,33
 1614 1237 1614 1237 1192 1237 c 1,34,35
 1082 1236 1082 1236 985 1218.5 c 128,-1,36
 888 1201 888 1201 802.5 1161.5 c 128,-1,37
 717 1122 717 1122 656 1063 c 128,-1,38
 595 1004 595 1004 559.5 916.5 c 128,-1,39
 524 829 524 829 524 720 c 0,40,41
 524 597 524 597 561 504 c 128,-1,42
 598 411 598 411 658.5 354 c 128,-1,43
 719 297 719 297 807.5 261.5 c 128,-1,44
 896 226 896 226 988 212.5 c 128,-1,45
 1080 199 1080 199 1192 198 c 1,46,47
 1410 198 1410 198 1560 255 c 128,-1,48
 1710 312 1710 312 1791 446 c 1,49,50
 1803 469 1803 469 1817.5 481 c 128,-1,51
 1832 493 1832 493 1858 492 c 0,52,53
 1861 492 1861 492 1897.5 488.5 c 128,-1,54
 1934 485 1934 485 1998.5 477 c 128,-1,55
 2063 469 2063 469 2116 461 c 1,56,57
 2140 460 2140 460 2144 431 c 1,58,59
 2144 414 2144 414 2143 407 c 1,60,61
 2113 321 2113 321 2057.5 251 c 128,-1,62
 2002 181 2002 181 1927.5 133 c 128,-1,63
 1853 85 1853 85 1767 50 c 128,-1,64
 1681 15 1681 15 1582.5 -4 c 128,-1,65
 1484 -23 1484 -23 1389 -32 c 128,-1,66
 1294 -41 1294 -41 1192 -41 c 0,0,1
EndSplineSet
EndChar

StartChar: D
Encoding: 68 68 39
Width: 2281
GlyphClass: 2
Flags: W
LayerCount: 2
Fore
SplineSet
560 226 m 0,0,1
 566 226 566 226 626 226 c 128,-1,2
 686 226 686 226 770.5 226 c 128,-1,3
 855 226 855 226 936 226 c 128,-1,4
 1017 226 1017 226 1080 226 c 128,-1,5
 1143 226 1143 226 1144 226 c 0,6,7
 1227 226 1227 226 1291.5 230.5 c 128,-1,8
 1356 235 1356 235 1424.5 248 c 128,-1,9
 1493 261 1493 261 1543 283.5 c 128,-1,10
 1593 306 1593 306 1639.5 343.5 c 128,-1,11
 1686 381 1686 381 1714.5 432.5 c 128,-1,12
 1743 484 1743 484 1760 557.5 c 128,-1,13
 1777 631 1777 631 1777 723 c 0,14,15
 1777 835 1777 835 1745 921 c 128,-1,16
 1713 1007 1713 1007 1657.5 1062 c 128,-1,17
 1602 1117 1602 1117 1521.5 1152 c 128,-1,18
 1441 1187 1441 1187 1351.5 1201 c 128,-1,19
 1262 1215 1262 1215 1153 1215 c 0,20,21
 1144 1215 1144 1215 854 1214.5 c 128,-1,22
 564 1214 564 1214 556 1214 c 0,23,24
 551 1214 551 1214 540.5 1204 c 128,-1,25
 530 1194 530 1194 530 1190 c 2,26,-1
 530 252 l 2,27,28
 530 248 530 248 543 237 c 128,-1,29
 556 226 556 226 560 226 c 0,0,1
230 0 m 2,30,31
 198 0 198 0 179 19 c 128,-1,32
 160 38 160 38 160 70 c 2,33,-1
 160 1367 l 2,34,35
 160 1399 160 1399 179 1418.5 c 128,-1,36
 198 1438 198 1438 230 1438 c 2,37,-1
 1198 1438 l 2,38,39
 1304 1438 1304 1438 1401 1428 c 128,-1,40
 1498 1418 1498 1418 1594.5 1394 c 128,-1,41
 1691 1370 1691 1370 1771.5 1333.5 c 128,-1,42
 1852 1297 1852 1297 1922 1240 c 128,-1,43
 1992 1183 1992 1183 2041 1111 c 128,-1,44
 2090 1039 2090 1039 2117.5 940.5 c 128,-1,45
 2145 842 2145 842 2145 725 c 0,46,47
 2145 589 2145 589 2116 481 c 128,-1,48
 2087 373 2087 373 2039 298 c 128,-1,49
 1991 223 1991 223 1915.5 168 c 128,-1,50
 1840 113 1840 113 1761 81 c 128,-1,51
 1682 49 1682 49 1576.5 30.5 c 128,-1,52
 1471 12 1471 12 1377 6 c 128,-1,53
 1283 0 1283 0 1165 0 c 2,54,-1
 230 0 l 2,30,31
EndSplineSet
EndChar

StartChar: E
Encoding: 69 69 40
Width: 1868
GlyphClass: 2
Flags: W
LayerCount: 2
Fore
SplineSet
230 0 m 2,0,1
 198 0 198 0 179 19 c 128,-1,2
 160 38 160 38 160 70 c 2,3,-1
 160 1361 l 2,4,5
 160 1394 160 1394 179 1416 c 128,-1,6
 198 1438 198 1438 230 1438 c 2,7,-1
 1640 1438 l 2,8,9
 1671 1438 1671 1438 1690 1416 c 128,-1,10
 1709 1394 1709 1394 1709 1361 c 2,11,-1
 1709 1290 l 2,12,13
 1709 1257 1709 1257 1690 1235 c 128,-1,14
 1671 1213 1671 1213 1640 1213 c 2,15,-1
 571 1213 l 2,16,17
 556 1213 556 1213 549.5 1208 c 128,-1,18
 543 1203 543 1203 543 1188 c 2,19,-1
 543 863 l 2,20,21
 543 858 543 858 550.5 847.5 c 128,-1,22
 558 837 558 837 562 837 c 2,23,-1
 1535 837 l 2,24,25
 1567 837 1567 837 1586 815 c 128,-1,26
 1605 793 1605 793 1605 760 c 2,27,-1
 1605 717 l 2,28,29
 1605 684 1605 684 1586 662 c 128,-1,30
 1567 640 1567 640 1535 640 c 2,31,-1
 566 640 l 2,32,33
 561 640 561 640 552 632 c 128,-1,34
 543 624 543 624 543 620 c 2,35,-1
 543 243 l 2,36,37
 543 238 543 238 550.5 230.5 c 128,-1,38
 558 223 558 223 562 223 c 2,39,-1
 1659 223 l 2,40,41
 1691 223 1691 223 1710 201.5 c 128,-1,42
 1729 180 1729 180 1729 147 c 2,43,-1
 1729 77 l 2,44,45
 1729 44 1729 44 1710 22 c 128,-1,46
 1691 0 1691 0 1659 0 c 2,47,-1
 230 0 l 2,0,1
EndSplineSet
EndChar

StartChar: F
Encoding: 70 70 41
Width: 1806
GlyphClass: 2
Flags: W
LayerCount: 2
Fore
SplineSet
230 0 m 2,0,1
 198 0 198 0 179 19 c 128,-1,2
 160 38 160 38 160 70 c 2,3,-1
 160 1361 l 2,4,5
 160 1394 160 1394 179 1416 c 128,-1,6
 198 1438 198 1438 230 1438 c 2,7,-1
 1625 1438 l 2,8,9
 1656 1438 1656 1438 1675 1416 c 128,-1,10
 1694 1394 1694 1394 1694 1361 c 2,11,-1
 1694 1288 l 2,12,13
 1694 1255 1694 1255 1675 1233 c 128,-1,14
 1656 1211 1656 1211 1625 1211 c 2,15,-1
 568 1211 l 2,16,17
 553 1211 553 1211 548 1204.5 c 128,-1,18
 543 1198 543 1198 543 1183 c 2,19,-1
 543 804 l 2,20,21
 543 800 543 800 549.5 793.5 c 128,-1,22
 556 787 556 787 560 787 c 2,23,-1
 1436 787 l 2,24,25
 1468 787 1468 787 1487 765 c 128,-1,26
 1506 743 1506 743 1506 710 c 2,27,-1
 1506 646 l 2,28,29
 1506 613 1506 613 1487 591 c 128,-1,30
 1468 569 1468 569 1436 569 c 2,31,-1
 564 569 l 2,32,33
 560 569 560 569 551.5 560 c 128,-1,34
 543 551 543 551 543 546 c 2,35,-1
 543 70 l 2,36,37
 543 38 543 38 524 19 c 128,-1,38
 505 0 505 0 473 0 c 2,39,-1
 230 0 l 2,0,1
EndSplineSet
EndChar

StartChar: G
Encoding: 71 71 42
Width: 2352
GlyphClass: 2
Flags: W
LayerCount: 2
Fore
SplineSet
1166 -41 m 0,0,1
 1056 -41 1056 -41 954 -30.5 c 128,-1,2
 852 -20 852 -20 747.5 5 c 128,-1,3
 643 30 643 30 554 69 c 128,-1,4
 465 108 465 108 386.5 168.5 c 128,-1,5
 308 229 308 229 253 306 c 128,-1,6
 198 383 198 383 166 489 c 128,-1,7
 134 595 134 595 134 720 c 0,8,9
 134 842 134 842 167 945.5 c 128,-1,10
 200 1049 200 1049 257 1125.5 c 128,-1,11
 314 1202 314 1202 395 1262.5 c 128,-1,12
 476 1323 476 1323 567.5 1362 c 128,-1,13
 659 1401 659 1401 766 1427 c 128,-1,14
 873 1453 873 1453 978 1464 c 128,-1,15
 1083 1475 1083 1475 1194 1475 c 0,16,17
 1316 1475 1316 1475 1431 1461 c 128,-1,18
 1546 1447 1546 1447 1662.5 1413.5 c 128,-1,19
 1779 1380 1779 1380 1873.5 1328.5 c 128,-1,20
 1968 1277 1968 1277 2044.5 1197.5 c 128,-1,21
 2121 1118 2121 1118 2160 1017 c 0,22,23
 2163 1008 2163 1008 2163 998 c 0,24,25
 2163 984 2163 984 2146 981 c 1,26,27
 2084 976 2084 976 2021 969 c 128,-1,28
 1958 962 1958 962 1924 957 c 128,-1,29
 1890 952 1890 952 1889 952 c 0,30,31
 1832 952 1832 952 1792 1010 c 0,32,33
 1713 1123 1713 1123 1556.5 1182.5 c 128,-1,34
 1400 1242 1400 1242 1194 1242 c 1,35,36
 1055 1241 1055 1241 937 1211 c 128,-1,37
 819 1181 819 1181 725 1120.5 c 128,-1,38
 631 1060 631 1060 577.5 957.5 c 128,-1,39
 524 855 524 855 524 720 c 0,40,41
 524 195 524 195 1189 195 c 0,42,43
 1330 195 1330 195 1457 226 c 128,-1,44
 1584 257 1584 257 1671.5 307 c 128,-1,45
 1759 357 1759 357 1810.5 421 c 128,-1,46
 1862 485 1862 485 1862 550 c 0,47,48
 1862 564 1862 564 1856 576 c 128,-1,49
 1850 588 1850 588 1840 588 c 2,50,-1
 1360 588 l 2,51,52
 1327 588 1327 588 1305 607.5 c 128,-1,53
 1283 627 1283 627 1283 659 c 2,54,-1
 1283 695 l 2,55,56
 1283 727 1283 727 1305 746.5 c 128,-1,57
 1327 766 1327 766 1360 766 c 2,58,-1
 2124 766 l 2,59,60
 2156 766 2156 766 2178.5 743.5 c 128,-1,61
 2201 721 2201 721 2201 689 c 2,62,-1
 2201 77 l 2,63,64
 2201 44 2201 44 2182 22 c 128,-1,65
 2163 0 2163 0 2131 0 c 0,66,67
 2062 0 2062 0 2039 70 c 0,68,69
 2018 134 2018 134 1994 259 c 1,70,71
 1988 279 1988 279 1983 279 c 0,72,73
 1979 279 1979 279 1969 269 c 1,74,75
 1915 196 1915 196 1837 140 c 128,-1,76
 1759 84 1759 84 1678 50.5 c 128,-1,77
 1597 17 1597 17 1503 -4.5 c 128,-1,78
 1409 -26 1409 -26 1328.5 -33.5 c 128,-1,79
 1248 -41 1248 -41 1166 -41 c 0,0,1
EndSplineSet
EndChar

StartChar: H
Encoding: 72 72 43
Width: 2159
GlyphClass: 2
Flags: W
LayerCount: 2
Fore
SplineSet
230 0 m 2,0,1
 198 0 198 0 179 19 c 128,-1,2
 160 38 160 38 160 70 c 2,3,-1
 160 1368 l 2,4,5
 160 1400 160 1400 179 1419 c 128,-1,6
 198 1438 198 1438 230 1438 c 2,7,-1
 454 1438 l 2,8,9
 486 1438 486 1438 504.5 1419 c 128,-1,10
 523 1400 523 1400 523 1368 c 2,11,-1
 523 874 l 2,12,13
 523 869 523 869 531.5 860.5 c 128,-1,14
 540 852 540 852 544 852 c 2,15,-1
 1607 852 l 2,16,17
 1612 852 1612 852 1621.5 862 c 128,-1,18
 1631 872 1631 872 1631 876 c 2,19,-1
 1631 1368 l 2,20,21
 1631 1400 1631 1400 1650 1419 c 128,-1,22
 1669 1438 1669 1438 1701 1438 c 2,23,-1
 1929 1438 l 2,24,25
 1961 1438 1961 1438 1980 1419 c 128,-1,26
 1999 1400 1999 1400 1999 1368 c 2,27,-1
 1999 70 l 2,28,29
 1999 38 1999 38 1980 19 c 128,-1,30
 1961 0 1961 0 1929 0 c 2,31,-1
 1700 0 l 2,32,33
 1668 0 1668 0 1649 19 c 128,-1,34
 1630 38 1630 38 1630 70 c 2,35,-1
 1630 607 l 2,36,37
 1630 612 1630 612 1621 621.5 c 128,-1,38
 1612 631 1612 631 1608 631 c 2,39,-1
 547 631 l 2,40,41
 543 631 543 631 534 622 c 128,-1,42
 525 613 525 613 525 609 c 2,43,-1
 525 70 l 2,44,45
 525 38 525 38 506 19 c 128,-1,46
 487 0 487 0 455 0 c 2,47,-1
 230 0 l 2,0,1
EndSplineSet
EndChar

StartChar: I
Encoding: 73 73 44
Width: 695
GlyphClass: 2
Flags: W
LayerCount: 2
Fore
SplineSet
230 0 m 2,0,1
 198 0 198 0 179 19 c 128,-1,2
 160 38 160 38 160 70 c 2,3,-1
 160 1368 l 2,4,5
 160 1400 160 1400 179 1419 c 128,-1,6
 198 1438 198 1438 230 1438 c 2,7,-1
 465 1438 l 2,8,9
 497 1438 497 1438 516 1419 c 128,-1,10
 535 1400 535 1400 535 1368 c 2,11,-1
 535 70 l 2,12,13
 535 38 535 38 516 19 c 128,-1,14
 497 0 497 0 465 0 c 2,15,-1
 230 0 l 2,0,1
EndSplineSet
EndChar

StartChar: J
Encoding: 74 74 45
Width: 1271
GlyphClass: 2
Flags: W
LayerCount: 2
Fore
SplineSet
123 -210 m 0,0,1
 110 -210 110 -210 100 -196.5 c 128,-1,2
 90 -183 90 -183 90 -162 c 2,3,-1
 90 -16 l 2,4,5
 90 8 90 8 100 20.5 c 128,-1,6
 110 33 110 33 123 33 c 0,7,8
 204 34 204 34 263 38 c 128,-1,9
 322 42 322 42 387.5 54 c 128,-1,10
 453 66 453 66 498.5 86.5 c 128,-1,11
 544 107 544 107 587.5 142 c 128,-1,12
 631 177 631 177 657 226 c 128,-1,13
 683 275 683 275 698.5 345 c 128,-1,14
 714 415 714 415 714 504 c 2,15,-1
 714 1380 l 2,16,17
 714 1407 714 1407 730 1422.5 c 128,-1,18
 746 1438 746 1438 773 1438 c 2,19,-1
 1057 1438 l 2,20,21
 1085 1438 1085 1438 1100.5 1422.5 c 128,-1,22
 1116 1407 1116 1407 1116 1380 c 2,23,-1
 1116 504 l 2,24,25
 1116 374 1116 374 1085 268.5 c 128,-1,26
 1054 163 1054 163 1003 90 c 128,-1,27
 952 17 952 17 874.5 -38 c 128,-1,28
 797 -93 797 -93 714.5 -125 c 128,-1,29
 632 -157 632 -157 527 -176.5 c 128,-1,30
 422 -196 422 -196 328.5 -203 c 128,-1,31
 235 -210 235 -210 123 -210 c 0,0,1
EndSplineSet
EndChar

StartChar: K
Encoding: 75 75 46
Width: 1808
GlyphClass: 2
Flags: W
LayerCount: 2
Fore
SplineSet
230 0 m 2,0,1
 198 0 198 0 179 19 c 128,-1,2
 160 38 160 38 160 70 c 2,3,-1
 160 1368 l 2,4,5
 160 1400 160 1400 179 1419 c 128,-1,6
 198 1438 198 1438 230 1438 c 2,7,-1
 465 1438 l 2,8,9
 497 1438 497 1438 516 1419 c 128,-1,10
 535 1400 535 1400 535 1368 c 2,11,-1
 535 782 l 1,12,-1
 1176 1377 l 1,13,14
 1239 1438 1239 1438 1290 1438 c 2,15,-1
 1562 1438 l 2,16,17
 1592 1438 1592 1438 1601.5 1415 c 128,-1,18
 1611 1392 1611 1392 1587 1369 c 1,19,-1
 940 790 l 2,20,21
 937 786 937 786 930.5 780 c 128,-1,22
 924 774 924 774 922 771 c 1,23,24
 933 758 933 758 938 753 c 2,25,-1
 1664 66 l 1,26,27
 1688 41 1688 41 1679 20.5 c 128,-1,28
 1670 0 1670 0 1639 0 c 2,29,-1
 1327 0 l 2,30,31
 1297 0 1297 0 1271.5 16.5 c 128,-1,32
 1246 33 1246 33 1213 66 c 1,33,-1
 535 711 l 1,34,-1
 535 70 l 2,35,36
 535 38 535 38 516 19 c 128,-1,37
 497 0 497 0 465 0 c 2,38,-1
 230 0 l 2,0,1
EndSplineSet
EndChar

StartChar: L
Encoding: 76 76 47
Width: 1565
GlyphClass: 2
Flags: W
LayerCount: 2
Fore
SplineSet
230 0 m 2,0,1
 198 0 198 0 179 19 c 128,-1,2
 160 38 160 38 160 70 c 2,3,-1
 160 1368 l 2,4,5
 160 1400 160 1400 179 1419 c 128,-1,6
 198 1438 198 1438 230 1438 c 2,7,-1
 473 1438 l 2,8,9
 505 1438 505 1438 524 1419 c 128,-1,10
 543 1400 543 1400 543 1368 c 2,11,-1
 543 264 l 2,12,13
 543 249 543 249 554 238 c 128,-1,14
 565 227 565 227 580 227 c 2,15,-1
 1381 227 l 2,16,17
 1413 227 1413 227 1431.5 208.5 c 128,-1,18
 1450 190 1450 190 1450 158 c 2,19,-1
 1450 70 l 2,20,21
 1450 38 1450 38 1431.5 19 c 128,-1,22
 1413 0 1413 0 1381 0 c 2,23,-1
 230 0 l 2,0,1
EndSplineSet
EndChar

StartChar: M
Encoding: 77 77 48
Width: 2595
GlyphClass: 2
Flags: W
LayerCount: 2
Fore
SplineSet
213 0 m 2,0,1
 181 0 181 0 163 19 c 128,-1,2
 145 38 145 38 146 70 c 1,3,-1
 251 1368 l 2,4,5
 253 1400 253 1400 271 1418.5 c 128,-1,6
 289 1437 289 1437 319 1438 c 1,7,-1
 595 1438 l 1,8,9
 662 1435 662 1435 698 1371 c 2,10,-1
 1279 366 l 2,11,12
 1284 357 1284 357 1291.5 357 c 128,-1,13
 1299 357 1299 357 1304 366 c 2,14,-1
 1899 1371 l 2,15,16
 1936 1435 1936 1435 2003 1438 c 1,17,-1
 2280 1438 l 1,18,19
 2310 1437 2310 1437 2328 1418.5 c 128,-1,20
 2346 1400 2346 1400 2348 1368 c 2,21,-1
 2448 70 l 2,22,23
 2450 38 2450 38 2432 19 c 128,-1,24
 2414 0 2414 0 2382 0 c 2,25,-1
 2174 0 l 2,26,27
 2142 0 2142 0 2122 19 c 128,-1,28
 2102 38 2102 38 2100 70 c 2,29,-1
 2027 982 l 2,30,31
 2026 991 2026 991 2022 992 c 0,32,33
 2021 992 2021 992 2020 991.5 c 128,-1,34
 2019 991 2019 991 2018 990 c 128,-1,35
 2017 989 2017 989 2015.5 987.5 c 128,-1,36
 2014 986 2014 986 2013 984 c 2,37,-1
 1468 67 l 2,38,39
 1430 2 1430 2 1363 0 c 1,40,-1
 1217 0 l 1,41,42
 1150 2 1150 2 1113 67 c 2,43,-1
 585 974 l 2,44,45
 581 981 581 981 577 981 c 0,46,47
 573 980 573 980 572 970 c 2,48,-1
 493 70 l 1,49,50
 492 38 492 38 472.5 19 c 128,-1,51
 453 0 453 0 421 0 c 2,52,-1
 213 0 l 2,0,1
EndSplineSet
EndChar

StartChar: N
Encoding: 78 78 49
Width: 2208
GlyphClass: 2
Flags: W
LayerCount: 2
Fore
SplineSet
230 0 m 2,0,1
 198 0 198 0 179 19 c 128,-1,2
 160 38 160 38 160 70 c 2,3,-1
 160 1373 l 2,4,5
 160 1405 160 1405 179 1424 c 128,-1,6
 198 1443 198 1443 230 1443 c 2,7,-1
 518 1443 l 2,8,9
 566 1443 566 1443 592 1415 c 1,10,-1
 1687 464 l 2,11,12
 1688 463 1688 463 1692 465 c 128,-1,13
 1696 467 1696 467 1699.5 471 c 128,-1,14
 1703 475 1703 475 1703 477 c 2,15,-1
 1703 1367 l 2,16,17
 1703 1399 1703 1399 1722 1418 c 128,-1,18
 1741 1437 1741 1437 1773 1437 c 2,19,-1
 1978 1437 l 2,20,21
 2010 1437 2010 1437 2029 1418 c 128,-1,22
 2048 1399 2048 1399 2048 1367 c 2,23,-1
 2048 65 l 2,24,25
 2048 33 2048 33 2029 14 c 128,-1,26
 2010 -5 2010 -5 1978 -5 c 2,27,-1
 1746 -5 l 2,28,29
 1698 -5 1698 -5 1672 23 c 1,30,-1
 525 1029 l 2,31,32
 523 1031 523 1031 515 1026.5 c 128,-1,33
 507 1022 507 1022 507 1019 c 2,34,-1
 507 70 l 2,35,36
 507 38 507 38 488.5 19 c 128,-1,37
 470 0 470 0 438 0 c 2,38,-1
 230 0 l 2,0,1
EndSplineSet
EndChar

StartChar: O
Encoding: 79 79 50
Width: 2343
GlyphClass: 2
Flags: W
LayerCount: 2
Fore
SplineSet
1172 196 m 128,-1,1
 1283 196 1283 196 1372 209.5 c 128,-1,2
 1461 223 1461 223 1544.5 258.5 c 128,-1,3
 1628 294 1628 294 1684 352 c 128,-1,4
 1740 410 1740 410 1773.5 504 c 128,-1,5
 1807 598 1807 598 1807 723 c 0,6,7
 1807 861 1807 861 1758.5 962.5 c 128,-1,8
 1710 1064 1710 1064 1622 1123.5 c 128,-1,9
 1534 1183 1534 1183 1422 1211.5 c 128,-1,10
 1310 1240 1310 1240 1172 1240 c 0,11,12
 1063 1240 1063 1240 969.5 1223 c 128,-1,13
 876 1206 876 1206 795 1167 c 128,-1,14
 714 1128 714 1128 657.5 1069 c 128,-1,15
 601 1010 601 1010 568.5 922 c 128,-1,16
 536 834 536 834 536 723 c 0,17,18
 536 598 536 598 569.5 504 c 128,-1,19
 603 410 603 410 659.5 352 c 128,-1,20
 716 294 716 294 799.5 258.5 c 128,-1,21
 883 223 883 223 972 209.5 c 128,-1,0
 1061 196 1061 196 1172 196 c 128,-1,1
1172 -41 m 128,-1,23
 1063 -41 1063 -41 963.5 -32 c 128,-1,24
 864 -23 864 -23 757.5 1 c 128,-1,25
 651 25 651 25 562 62 c 128,-1,26
 473 99 473 99 392 159 c 128,-1,27
 311 219 311 219 255.5 296.5 c 128,-1,28
 200 374 200 374 167 483 c 128,-1,29
 134 592 134 592 134 723 c 0,30,31
 134 844 134 844 166.5 947.5 c 128,-1,32
 199 1051 199 1051 255.5 1126.5 c 128,-1,33
 312 1202 312 1202 392 1262.5 c 128,-1,34
 472 1323 472 1323 562 1362 c 128,-1,35
 652 1401 652 1401 757 1427 c 128,-1,36
 862 1453 862 1453 963.5 1464 c 128,-1,37
 1065 1475 1065 1475 1172 1475 c 128,-1,38
 1279 1475 1279 1475 1380.5 1464 c 128,-1,39
 1482 1453 1482 1453 1586.5 1427 c 128,-1,40
 1691 1401 1691 1401 1781.5 1362 c 128,-1,41
 1872 1323 1872 1323 1951.5 1262.5 c 128,-1,42
 2031 1202 2031 1202 2087.5 1126.5 c 128,-1,43
 2144 1051 2144 1051 2176.5 947.5 c 128,-1,44
 2209 844 2209 844 2209 723 c 0,45,46
 2209 592 2209 592 2176 483 c 128,-1,47
 2143 374 2143 374 2087.5 296.5 c 128,-1,48
 2032 219 2032 219 1951.5 159 c 128,-1,49
 1871 99 1871 99 1782 62 c 128,-1,50
 1693 25 1693 25 1586.5 1 c 128,-1,51
 1480 -23 1480 -23 1380.5 -32 c 128,-1,22
 1281 -41 1281 -41 1172 -41 c 128,-1,23
EndSplineSet
EndChar

StartChar: P
Encoding: 80 80 51
Width: 2136
GlyphClass: 2
Flags: W
LayerCount: 2
Fore
SplineSet
230 0 m 2,0,1
 198 0 198 0 179 19 c 128,-1,2
 160 38 160 38 160 70 c 2,3,-1
 160 1367 l 2,4,5
 160 1399 160 1399 179 1418 c 128,-1,6
 198 1437 198 1437 230 1437 c 0,7,8
 284 1437 284 1437 642 1437.5 c 128,-1,9
 1000 1438 1000 1438 1053 1438 c 0,10,11
 1178 1438 1178 1438 1260 1435.5 c 128,-1,12
 1342 1433 1342 1433 1451.5 1423 c 128,-1,13
 1561 1413 1561 1413 1632 1394 c 128,-1,14
 1703 1375 1703 1375 1779.5 1339.5 c 128,-1,15
 1856 1304 1856 1304 1900 1253.5 c 128,-1,16
 1944 1203 1944 1203 1973 1127 c 128,-1,17
 2002 1051 2002 1051 2002 954 c 0,18,19
 2002 864 2002 864 1986 792.5 c 128,-1,20
 1970 721 1970 721 1933 669 c 128,-1,21
 1896 617 1896 617 1855 579.5 c 128,-1,22
 1814 542 1814 542 1744 518 c 128,-1,23
 1674 494 1674 494 1614.5 479 c 128,-1,24
 1555 464 1555 464 1458 457.5 c 128,-1,25
 1361 451 1361 451 1288 448.5 c 128,-1,26
 1215 446 1215 446 1098 446 c 2,27,-1
 554 446 l 2,28,29
 544 446 544 446 537 438.5 c 128,-1,30
 530 431 530 431 530 420 c 2,31,-1
 530 70 l 2,32,33
 530 38 530 38 511 19 c 128,-1,34
 492 0 492 0 460 0 c 2,35,-1
 230 0 l 2,0,1
552 661 m 2,36,-1
 1073 661 l 2,37,38
 1159 661 1159 661 1208 662 c 128,-1,39
 1257 663 1257 663 1320 666.5 c 128,-1,40
 1383 670 1383 670 1417 678 c 128,-1,41
 1451 686 1451 686 1492 700 c 128,-1,42
 1533 714 1533 714 1552.5 734.5 c 128,-1,43
 1572 755 1572 755 1591.5 785 c 128,-1,44
 1611 815 1611 815 1618 855.5 c 128,-1,45
 1625 896 1625 896 1625 948 c 0,46,47
 1625 1003 1625 1003 1607.5 1045 c 128,-1,48
 1590 1087 1590 1087 1565.5 1115 c 128,-1,49
 1541 1143 1541 1143 1490 1162 c 128,-1,50
 1439 1181 1439 1181 1398 1191 c 128,-1,51
 1357 1201 1357 1201 1279 1205.5 c 128,-1,52
 1201 1210 1201 1210 1150 1211 c 128,-1,53
 1099 1212 1099 1212 1002 1212 c 2,54,-1
 552 1212 l 2,55,56
 543 1212 543 1212 536.5 1205.5 c 128,-1,57
 530 1199 530 1199 530 1189 c 2,58,-1
 530 687 l 2,59,60
 530 676 530 676 536.5 668.5 c 128,-1,61
 543 661 543 661 552 661 c 2,36,-1
EndSplineSet
EndChar

StartChar: Q
Encoding: 81 81 52
Width: 2343
GlyphClass: 2
Flags: W
LayerCount: 2
Fore
SplineSet
1643 -513 m 1,0,1
 1614 -529 1614 -529 1587 -523.5 c 128,-1,2
 1560 -518 1560 -518 1544 -491 c 2,3,-1
 1293 -37 l 1,4,5
 1234 -40 1234 -40 1172 -40 c 0,6,7
 1063 -40 1063 -40 963.5 -31 c 128,-1,8
 864 -22 864 -22 757.5 2 c 128,-1,9
 651 26 651 26 562 63 c 128,-1,10
 473 100 473 100 392 160 c 128,-1,11
 311 220 311 220 255.5 297.5 c 128,-1,12
 200 375 200 375 167 484 c 128,-1,13
 134 593 134 593 134 724 c 0,14,15
 134 845 134 845 166.5 948.5 c 128,-1,16
 199 1052 199 1052 255.5 1127.5 c 128,-1,17
 312 1203 312 1203 392 1263.5 c 128,-1,18
 472 1324 472 1324 562 1363 c 128,-1,19
 652 1402 652 1402 757 1428 c 128,-1,20
 862 1454 862 1454 963.5 1465 c 128,-1,21
 1065 1476 1065 1476 1172 1476 c 128,-1,22
 1279 1476 1279 1476 1380.5 1465 c 128,-1,23
 1482 1454 1482 1454 1586.5 1428 c 128,-1,24
 1691 1402 1691 1402 1781.5 1363 c 128,-1,25
 1872 1324 1872 1324 1951.5 1263.5 c 128,-1,26
 2031 1203 2031 1203 2087.5 1127.5 c 128,-1,27
 2144 1052 2144 1052 2176.5 948.5 c 128,-1,28
 2209 845 2209 845 2209 724 c 0,29,30
 2209 593 2209 593 2176.5 484.5 c 128,-1,31
 2144 376 2144 376 2088.5 298.5 c 128,-1,32
 2033 221 2033 221 1952.5 161 c 128,-1,33
 1872 101 1872 101 1783.5 63.5 c 128,-1,34
 1695 26 1695 26 1590 2 c 1,35,-1
 1795 -366 l 2,36,37
 1811 -395 1811 -395 1800 -420.5 c 128,-1,38
 1789 -446 1789 -446 1760 -462 c 1,39,-1
 1643 -513 l 1,0,1
1172 197 m 128,-1,41
 1283 197 1283 197 1372 210.5 c 128,-1,42
 1461 224 1461 224 1544.5 259.5 c 128,-1,43
 1628 295 1628 295 1684 353 c 128,-1,44
 1740 411 1740 411 1773.5 505 c 128,-1,45
 1807 599 1807 599 1807 724 c 0,46,47
 1807 861 1807 861 1758.5 963 c 128,-1,48
 1710 1065 1710 1065 1622 1124.5 c 128,-1,49
 1534 1184 1534 1184 1422 1212.5 c 128,-1,50
 1310 1241 1310 1241 1172 1241 c 0,51,52
 1063 1241 1063 1241 969.5 1223.5 c 128,-1,53
 876 1206 876 1206 795 1167 c 128,-1,54
 714 1128 714 1128 657.5 1069 c 128,-1,55
 601 1010 601 1010 568.5 922 c 128,-1,56
 536 834 536 834 536 724 c 0,57,58
 536 599 536 599 569.5 505 c 128,-1,59
 603 411 603 411 659.5 353 c 128,-1,60
 716 295 716 295 799.5 259.5 c 128,-1,61
 883 224 883 224 972 210.5 c 128,-1,40
 1061 197 1061 197 1172 197 c 128,-1,41
EndSplineSet
EndChar

StartChar: R
Encoding: 82 82 53
Width: 2224
GlyphClass: 2
Flags: W
LayerCount: 2
Fore
SplineSet
230 0 m 2,0,1
 198 0 198 0 179 19 c 128,-1,2
 160 38 160 38 160 70 c 2,3,-1
 160 1368 l 2,4,5
 160 1400 160 1400 179 1419 c 128,-1,6
 198 1438 198 1438 230 1438 c 2,7,-1
 1124 1438 l 2,8,9
 1238 1438 1238 1438 1294.5 1437.5 c 128,-1,10
 1351 1437 1351 1437 1449 1433.5 c 128,-1,11
 1547 1430 1547 1430 1596.5 1422.5 c 128,-1,12
 1646 1415 1646 1415 1722 1400.5 c 128,-1,13
 1798 1386 1798 1386 1836.5 1365 c 128,-1,14
 1875 1344 1875 1344 1923 1312 c 128,-1,15
 1971 1280 1971 1280 1993.5 1238 c 128,-1,16
 2016 1196 2016 1196 2032.5 1139.5 c 128,-1,17
 2049 1083 2049 1083 2049 1013 c 0,18,19
 2049 916 2049 916 2023.5 844 c 128,-1,20
 1998 772 1998 772 1948.5 725.5 c 128,-1,21
 1899 679 1899 679 1836 652 c 128,-1,22
 1773 625 1773 625 1688 609 c 0,23,24
 1682 607 1682 607 1682 606 c 0,25,26
 1682 602 1682 602 1687 601 c 0,27,28
 1890 554 1890 554 1974 298 c 1,29,30
 1975 288 1975 288 2022 176 c 128,-1,31
 2069 64 2069 64 2069 61 c 1,32,33
 2080 35 2080 35 2062.5 17.5 c 128,-1,34
 2045 0 2045 0 2014 0 c 2,35,-1
 1768 0 l 2,36,37
 1734 0 1734 0 1719.5 15 c 128,-1,38
 1705 30 1705 30 1688 68 c 1,39,40
 1684 88 1684 88 1635.5 214 c 128,-1,41
 1587 340 1587 340 1576 361 c 0,42,43
 1557 400 1557 400 1530 429.5 c 128,-1,44
 1503 459 1503 459 1470 476 c 128,-1,45
 1437 493 1437 493 1408 504 c 128,-1,46
 1379 515 1379 515 1340 519 c 128,-1,47
 1301 523 1301 523 1279.5 524 c 128,-1,48
 1258 525 1258 525 1224 525 c 2,49,-1
 552 525 l 2,50,51
 548 525 548 525 539 516.5 c 128,-1,52
 530 508 530 508 530 503 c 2,53,-1
 530 70 l 2,54,55
 530 38 530 38 511 19 c 128,-1,56
 492 0 492 0 460 0 c 2,57,-1
 230 0 l 2,0,1
552 737 m 2,58,-1
 1158 737 l 2,59,60
 1292 737 1292 737 1360 740 c 128,-1,61
 1428 743 1428 743 1501.5 755 c 128,-1,62
 1575 767 1575 767 1605.5 793 c 128,-1,63
 1636 819 1636 819 1656 864 c 128,-1,64
 1676 909 1676 909 1676 980 c 0,65,66
 1676 1025 1676 1025 1661.5 1059.5 c 128,-1,67
 1647 1094 1647 1094 1622.5 1118.5 c 128,-1,68
 1598 1143 1598 1143 1556.5 1160 c 128,-1,69
 1515 1177 1515 1177 1471 1187 c 128,-1,70
 1427 1197 1427 1197 1362 1203 c 128,-1,71
 1297 1209 1297 1209 1237.5 1210.5 c 128,-1,72
 1178 1212 1178 1212 1094 1212 c 2,73,-1
 552 1212 l 2,74,75
 548 1212 548 1212 539 1203.5 c 128,-1,76
 530 1195 530 1195 530 1191 c 2,77,-1
 530 757 l 2,78,79
 530 753 530 753 538.5 745 c 128,-1,80
 547 737 547 737 552 737 c 2,58,-1
EndSplineSet
EndChar

StartChar: S
Encoding: 83 83 54
Width: 2122
GlyphClass: 2
Flags: W
LayerCount: 2
Fore
SplineSet
1039 -41 m 0,0,1
 790 -41 790 -41 595.5 -10.5 c 128,-1,2
 401 20 401 20 190 100 c 0,3,4
 168 108 168 108 156.5 129.5 c 128,-1,5
 145 151 145 151 149 175 c 1,6,-1
 188 281 l 1,7,8
 212 332 212 332 266 326 c 1,9,10
 297 320 297 320 383 294 c 128,-1,11
 469 268 469 268 547.5 248.5 c 128,-1,12
 626 229 626 229 774.5 211.5 c 128,-1,13
 923 194 923 194 1095 194 c 0,14,15
 1297 194 1297 194 1410.5 218 c 128,-1,16
 1524 242 1524 242 1563 283.5 c 128,-1,17
 1602 325 1602 325 1602 395 c 0,18,19
 1602 446 1602 446 1585 477 c 128,-1,20
 1568 508 1568 508 1516.5 532.5 c 128,-1,21
 1465 557 1465 557 1368 569 c 128,-1,22
 1271 581 1271 581 1114 585 c 0,23,24
 972 589 972 589 878 594.5 c 128,-1,25
 784 600 784 600 673 612.5 c 128,-1,26
 562 625 562 625 491 644.5 c 128,-1,27
 420 664 420 664 348.5 696 c 128,-1,28
 277 728 277 728 237 772 c 128,-1,29
 197 816 197 816 172 879.5 c 128,-1,30
 147 943 147 943 147 1024 c 0,31,32
 147 1106 147 1106 171.5 1172 c 128,-1,33
 196 1238 196 1238 238 1285 c 128,-1,34
 280 1332 280 1332 346 1366 c 128,-1,35
 412 1400 412 1400 484 1421 c 128,-1,36
 556 1442 556 1442 651.5 1454 c 128,-1,37
 747 1466 747 1466 838 1470.5 c 128,-1,38
 929 1475 929 1475 1042 1475 c 0,39,40
 1292 1475 1292 1475 1472.5 1442 c 128,-1,41
 1653 1409 1653 1409 1822 1337 c 0,42,43
 1843 1329 1843 1329 1854 1307.5 c 128,-1,44
 1865 1286 1865 1286 1861 1262 c 0,45,46
 1861 1257 1861 1257 1846 1221.5 c 128,-1,47
 1831 1186 1831 1186 1828 1181 c 2,48,-1
 1826 1176 l 2,49,50
 1824 1172 1824 1172 1823 1170 c 128,-1,51
 1822 1168 1822 1168 1819 1163 c 128,-1,52
 1816 1158 1816 1158 1813.5 1155 c 128,-1,53
 1811 1152 1811 1152 1806.5 1147.5 c 128,-1,54
 1802 1143 1802 1143 1798 1140 c 128,-1,55
 1794 1137 1794 1137 1788 1134 c 128,-1,56
 1782 1131 1782 1131 1775.5 1129 c 128,-1,57
 1769 1127 1769 1127 1761.5 1126 c 128,-1,58
 1754 1125 1754 1125 1745 1126 c 1,59,60
 1720 1132 1720 1132 1637.5 1156 c 128,-1,61
 1555 1180 1555 1180 1488.5 1196.5 c 128,-1,62
 1422 1213 1422 1213 1302.5 1228 c 128,-1,63
 1183 1243 1183 1243 1054 1243 c 0,64,65
 860 1243 860 1243 740 1220 c 128,-1,66
 620 1197 620 1197 573 1159 c 128,-1,67
 526 1121 526 1121 526 1065 c 0,68,69
 526 1031 526 1031 533.5 1009 c 128,-1,70
 541 987 541 987 563.5 966 c 128,-1,71
 586 945 586 945 628 932 c 128,-1,72
 670 919 670 919 740 908 c 128,-1,73
 810 897 810 897 910.5 891 c 128,-1,74
 1011 885 1011 885 1152 881 c 0,75,76
 1326 876 1326 876 1453 861 c 128,-1,77
 1580 846 1580 846 1685 815 c 128,-1,78
 1790 784 1790 784 1854 735.5 c 128,-1,79
 1918 687 1918 687 1952.5 615 c 128,-1,80
 1987 543 1987 543 1987 444 c 0,81,82
 1987 333 1987 333 1951.5 251.5 c 128,-1,83
 1916 170 1916 170 1846 113.5 c 128,-1,84
 1776 57 1776 57 1660.5 23 c 128,-1,85
 1545 -11 1545 -11 1394.5 -26 c 128,-1,86
 1244 -41 1244 -41 1039 -41 c 0,0,1
EndSplineSet
EndChar

StartChar: T
Encoding: 84 84 55
Width: 1834
GlyphClass: 2
Flags: W
LayerCount: 2
Fore
SplineSet
803 0 m 2,0,1
 771 0 771 0 752.5 19 c 128,-1,2
 734 38 734 38 734 70 c 2,3,-1
 734 1188 l 2,4,5
 734 1217 734 1217 704 1217 c 2,6,-1
 156 1217 l 2,7,8
 124 1217 124 1217 105 1239 c 128,-1,9
 86 1261 86 1261 86 1294 c 2,10,-1
 86 1361 l 2,11,12
 86 1394 86 1394 105 1416 c 128,-1,13
 124 1438 124 1438 156 1438 c 2,14,-1
 1674 1438 l 2,15,16
 1706 1438 1706 1438 1725 1416 c 128,-1,17
 1744 1394 1744 1394 1744 1361 c 2,18,-1
 1744 1294 l 2,19,20
 1744 1261 1744 1261 1725 1239 c 128,-1,21
 1706 1217 1706 1217 1674 1217 c 2,22,-1
 1128 1217 l 2,23,24
 1099 1217 1099 1217 1099 1188 c 2,25,-1
 1099 70 l 2,26,27
 1099 38 1099 38 1080 19 c 128,-1,28
 1061 0 1061 0 1029 0 c 2,29,-1
 803 0 l 2,0,1
EndSplineSet
EndChar

StartChar: U
Encoding: 85 85 56
Width: 2355
GlyphClass: 2
Flags: W
LayerCount: 2
Fore
SplineSet
1184 -41 m 0,0,1
 1071 -41 1071 -41 976 -34.5 c 128,-1,2
 881 -28 881 -28 772 -9 c 128,-1,3
 663 10 663 10 577 41.5 c 128,-1,4
 491 73 491 73 409 128 c 128,-1,5
 327 183 327 183 272.5 256 c 128,-1,6
 218 329 218 329 185 435 c 128,-1,7
 152 541 152 541 152 672 c 2,8,-1
 152 1368 l 2,9,10
 152 1398 152 1398 175.5 1418 c 128,-1,11
 199 1438 199 1438 223 1438 c 2,12,-1
 484 1438 l 2,13,14
 525 1438 525 1438 539.5 1420.5 c 128,-1,15
 554 1403 554 1403 554 1368 c 2,16,-1
 554 672 l 2,17,18
 554 582 554 582 571.5 511 c 128,-1,19
 589 440 589 440 618.5 390.5 c 128,-1,20
 648 341 648 341 695 305 c 128,-1,21
 742 269 742 269 792 248.5 c 128,-1,22
 842 228 842 228 910.5 216 c 128,-1,23
 979 204 979 204 1041 200 c 128,-1,24
 1103 196 1103 196 1184 196 c 0,25,26
 1266 196 1266 196 1328 200 c 128,-1,27
 1390 204 1390 204 1458.5 216 c 128,-1,28
 1527 228 1527 228 1577 248.5 c 128,-1,29
 1627 269 1627 269 1674 305 c 128,-1,30
 1721 341 1721 341 1750 390.5 c 128,-1,31
 1779 440 1779 440 1796.5 511 c 128,-1,32
 1814 582 1814 582 1814 672 c 2,33,-1
 1814 1368 l 2,34,35
 1814 1400 1814 1400 1833 1419 c 128,-1,36
 1852 1438 1852 1438 1884 1438 c 2,37,-1
 2134 1438 l 2,38,39
 2166 1438 2166 1438 2185 1419 c 128,-1,40
 2204 1400 2204 1400 2204 1368 c 2,41,-1
 2204 672 l 2,42,43
 2204 541 2204 541 2171.5 435 c 128,-1,44
 2139 329 2139 329 2085.5 256 c 128,-1,45
 2032 183 2032 183 1951 128 c 128,-1,46
 1870 73 1870 73 1785 41.5 c 128,-1,47
 1700 10 1700 10 1592.5 -9 c 128,-1,48
 1485 -28 1485 -28 1390.5 -34.5 c 128,-1,49
 1296 -41 1296 -41 1184 -41 c 0,0,1
EndSplineSet
EndChar

StartChar: V
Encoding: 86 86 57
Width: 2087
GlyphClass: 2
Flags: W
LayerCount: 2
Fore
SplineSet
943 0 m 1,0,1
 877 3 877 3 839 67 c 1,2,-1
 100 1371 l 2,3,4
 83 1400 83 1400 92 1419 c 128,-1,5
 101 1438 101 1438 132 1438 c 2,6,-1
 389 1438 l 2,7,8
 459 1438 459 1438 497 1371 c 1,9,-1
 1075 319 l 1,10,-1
 1615 1371 l 2,11,12
 1631 1402 1631 1402 1659 1420 c 128,-1,13
 1687 1438 1687 1438 1720 1438 c 2,14,-1
 1947 1438 l 2,15,16
 1978 1438 1978 1438 1987.5 1419 c 128,-1,17
 1997 1400 1997 1400 1982 1371 c 2,18,-1
 1286 67 l 2,19,20
 1252 3 1252 3 1187 0 c 1,21,-1
 943 0 l 1,0,1
EndSplineSet
EndChar

StartChar: W
Encoding: 87 87 58
Width: 3304
GlyphClass: 2
Flags: W
LayerCount: 2
Fore
SplineSet
840 0 m 1,0,1
 774 3 774 3 739 68 c 1,2,-1
 104 1370 l 1,3,4
 88 1400 88 1400 97 1419 c 128,-1,5
 106 1438 106 1438 137 1438 c 2,6,-1
 394 1438 l 2,7,8
 465 1438 465 1438 500 1370 c 1,9,-1
 972 359 l 1,10,-1
 1453 1370 l 2,11,12
 1468 1402 1468 1402 1495 1420 c 128,-1,13
 1522 1438 1522 1438 1553 1438 c 2,14,-1
 1772 1438 l 1,15,16
 1841 1436 1841 1436 1876 1370 c 1,17,-1
 2391 356 l 1,18,-1
 2835 1370 l 1,19,20
 2867 1438 2867 1438 2939 1438 c 2,21,-1
 3160 1438 l 2,22,23
 3191 1438 3191 1438 3201 1419 c 128,-1,24
 3211 1400 3211 1400 3196 1370 c 1,25,-1
 2601 68 l 1,26,27
 2569 3 2569 3 2503 0 c 1,28,-1
 2257 0 l 1,29,30
 2188 3 2188 3 2156 68 c 2,31,-1
 1651 1065 l 1,32,-1
 1173 68 l 2,33,34
 1143 5 1143 5 1078 0 c 1,35,-1
 840 0 l 1,0,1
EndSplineSet
EndChar

StartChar: X
Encoding: 88 88 59
Width: 2113
GlyphClass: 2
Flags: W
LayerCount: 2
Fore
SplineSet
147 0 m 2,0,1
 114 0 114 0 114 23 c 0,2,3
 114 39 114 39 136 62 c 1,4,-1
 855 725 l 1,5,-1
 211 1375 l 1,6,7
 185 1399 185 1399 185 1416 c 0,8,9
 185 1438 185 1438 218 1438 c 2,10,-1
 545 1438 l 2,11,12
 615 1438 615 1438 678 1375 c 2,13,-1
 1100 955 l 1,14,-1
 1559 1376 l 1,15,16
 1619 1438 1619 1438 1688 1438 c 2,17,-1
 1927 1438 l 2,18,19
 1960 1438 1960 1438 1960 1415 c 0,20,21
 1960 1401 1960 1401 1938 1376 c 1,22,-1
 1277 770 l 1,23,-1
 1973 63 l 2,24,25
 1998 38 1998 38 1998 23 c 0,26,27
 1998 0 1998 0 1965 0 c 2,28,-1
 1649 0 l 2,29,30
 1579 0 1579 0 1516 63 c 2,31,-1
 1033 542 l 1,32,-1
 506 62 l 1,33,34
 446 0 446 0 377 0 c 2,35,-1
 147 0 l 2,0,1
EndSplineSet
EndChar

StartChar: Y
Encoding: 89 89 60
Width: 1856
GlyphClass: 2
Flags: W
LayerCount: 2
Fore
SplineSet
811 0 m 2,0,1
 779 0 779 0 760.5 19 c 128,-1,2
 742 38 742 38 742 70 c 2,3,-1
 742 628 l 1,4,-1
 99 1373 l 1,5,6
 73 1396 73 1396 73 1414 c 0,7,8
 73 1438 73 1438 108 1438 c 2,9,-1
 388 1438 l 2,10,11
 457 1438 457 1438 517 1373 c 1,12,-1
 947 884 l 1,13,-1
 1368 1372 l 2,14,15
 1425 1438 1425 1438 1494 1438 c 2,16,-1
 1743 1438 l 2,17,18
 1778 1438 1778 1438 1778 1413 c 0,19,20
 1778 1392 1778 1392 1756 1373 c 1,21,-1
 1117 632 l 1,22,-1
 1117 70 l 2,23,24
 1117 38 1117 38 1098 19 c 128,-1,25
 1079 0 1079 0 1047 0 c 2,26,-1
 811 0 l 2,0,1
EndSplineSet
EndChar

StartChar: Z
Encoding: 90 90 61
Width: 1766
GlyphClass: 2
Flags: W
LayerCount: 2
Fore
SplineSet
204 0 m 2,0,1
 172 0 172 0 153 22 c 128,-1,2
 134 44 134 44 134 77 c 2,3,-1
 134 157 l 2,4,5
 134 208 134 208 165 237 c 1,6,-1
 1101 1170 l 1,7,8
 1113 1184 1113 1184 1113 1194 c 0,9,10
 1113 1212 1113 1212 1087 1212 c 2,11,-1
 220 1212 l 2,12,13
 189 1212 189 1212 170 1234 c 128,-1,14
 151 1256 151 1256 151 1289 c 2,15,-1
 151 1361 l 2,16,17
 151 1394 151 1394 170 1416 c 128,-1,18
 189 1438 189 1438 220 1438 c 2,19,-1
 1537 1438 l 2,20,21
 1569 1438 1569 1438 1588 1416 c 128,-1,22
 1607 1394 1607 1394 1607 1361 c 2,23,-1
 1607 1285 l 2,24,25
 1607 1253 1607 1253 1595 1222 c 128,-1,26
 1583 1191 1583 1191 1567 1176 c 2,27,-1
 648 258 l 2,28,29
 637 247 637 247 637 241 c 0,30,31
 637 227 637 227 656 227 c 2,32,-1
 1563 227 l 2,33,34
 1595 227 1595 227 1614 205 c 128,-1,35
 1633 183 1633 183 1633 150 c 2,36,-1
 1633 77 l 2,37,38
 1633 44 1633 44 1614 22 c 128,-1,39
 1595 0 1595 0 1563 0 c 2,40,-1
 204 0 l 2,0,1
EndSplineSet
EndChar

StartChar: bracketleft
Encoding: 91 91 62
Width: 1126
GlyphClass: 2
Flags: W
LayerCount: 2
Fore
SplineSet
238 -107 m 2,0,1
 206 -107 206 -107 183.5 -84.5 c 128,-1,2
 161 -62 161 -62 161 -30 c 2,3,-1
 161 1479 l 2,4,5
 161 1511 161 1511 183.5 1533.5 c 128,-1,6
 206 1556 206 1556 238 1556 c 2,7,-1
 929 1556 l 2,8,9
 999 1556 999 1556 999 1493 c 2,10,-1
 999 1383 l 2,11,12
 999 1320 999 1320 929 1320 c 2,13,-1
 541 1320 l 2,14,15
 511 1320 511 1320 511 1290 c 2,16,-1
 511 152 l 2,17,18
 511 122 511 122 541 122 c 2,19,-1
 929 122 l 2,20,21
 999 122 999 122 999 59 c 2,22,-1
 999 -44 l 2,23,24
 999 -107 999 -107 929 -107 c 2,25,-1
 238 -107 l 2,0,1
EndSplineSet
EndChar

StartChar: backslash
Encoding: 92 92 63
Width: 1189
GlyphClass: 2
Flags: W
LayerCount: 2
Fore
SplineSet
808 -206 m 2,0,1
 771 -206 771 -206 758 -171 c 2,2,-1
 71 1612 l 2,3,4
 66 1625 66 1625 74 1636 c 128,-1,5
 82 1647 82 1647 95 1647 c 2,6,-1
 359 1647 l 2,7,8
 376 1647 376 1647 390 1637.5 c 128,-1,9
 404 1628 404 1628 409 1612 c 1,10,-1
 1096 -170 l 2,11,12
 1101 -183 1101 -183 1093 -194 c 128,-1,13
 1085 -205 1085 -205 1072 -205 c 2,14,-1
 808 -206 l 2,0,1
EndSplineSet
EndChar

StartChar: bracketright
Encoding: 93 93 64
Width: 1126
GlyphClass: 2
Flags: W
LayerCount: 2
Fore
SplineSet
197 -107 m 2,0,1
 128 -107 128 -107 128 -44 c 2,2,-1
 128 66 l 2,3,4
 128 129 128 129 197 129 c 2,5,-1
 586 129 l 2,6,7
 616 129 616 129 616 159 c 2,8,-1
 616 1297 l 2,9,10
 616 1327 616 1327 586 1327 c 2,11,-1
 197 1327 l 2,12,13
 128 1327 128 1327 128 1390 c 2,14,-1
 128 1493 l 2,15,16
 128 1556 128 1556 197 1556 c 2,17,-1
 889 1556 l 2,18,19
 921 1556 921 1556 943.5 1533.5 c 128,-1,20
 966 1511 966 1511 966 1479 c 2,21,-1
 966 -30 l 2,22,23
 966 -62 966 -62 943.5 -84.5 c 128,-1,24
 921 -107 921 -107 889 -107 c 2,25,-1
 197 -107 l 2,0,1
EndSplineSet
EndChar

StartChar: asciicircum
Encoding: 94 94 65
Width: 1299
GlyphClass: 2
Flags: W
LayerCount: 2
Fore
SplineSet
49 201 m 2,0,1
 29 201 29 201 16 214.5 c 128,-1,2
 3 228 3 228 3 246 c 0,3,4
 3 258 3 258 9 268 c 2,5,-1
 444 1140 l 1,6,7
 481 1207 481 1207 544 1207 c 2,8,-1
 720 1207 l 2,9,10
 783 1207 783 1207 819 1139 c 1,11,-1
 1252 269 l 2,12,13
 1257 260 1257 260 1257 247 c 0,14,15
 1257 228 1257 228 1244 214.5 c 128,-1,16
 1231 201 1231 201 1211 201 c 2,17,-1
 1038 201 l 2,18,19
 975 201 975 201 943 270 c 1,20,-1
 642 895 l 1,21,22
 636 905 636 905 626 905 c 0,23,24
 614 905 614 905 610 895 c 2,25,-1
 321 270 l 1,26,27
 287 201 287 201 226 201 c 2,28,-1
 49 201 l 2,0,1
EndSplineSet
EndChar

StartChar: underscore
Encoding: 95 95 66
Width: 1169
GlyphClass: 2
Flags: W
LayerCount: 2
Fore
SplineSet
167 -194 m 2,0,1
 103 -194 103 -194 103 -131 c 2,2,-1
 103 -62 l 2,3,4
 103 0 103 0 167 0 c 2,5,-1
 999 0 l 2,6,7
 1063 0 1063 0 1063 -62 c 2,8,-1
 1063 -131 l 2,9,10
 1063 -194 1063 -194 999 -194 c 2,11,-1
 167 -194 l 2,0,1
EndSplineSet
EndChar

StartChar: grave
Encoding: 96 96 67
Width: 1745
GlyphClass: 2
Flags: W
LayerCount: 2
Fore
SplineSet
1105 1173 m 2,0,1
 1098 1173 1098 1173 1092.5 1174.5 c 128,-1,2
 1087 1176 1087 1176 1081.5 1179 c 128,-1,3
 1076 1182 1076 1182 1072.5 1185 c 128,-1,4
 1069 1188 1069 1188 1065 1193 c 128,-1,5
 1061 1198 1061 1198 1059 1200.5 c 128,-1,6
 1057 1203 1057 1203 1053.5 1209 c 128,-1,7
 1050 1215 1050 1215 1049 1216 c 2,8,-1
 845 1547 l 2,9,10
 834 1564 834 1564 831 1573.5 c 128,-1,11
 828 1583 828 1583 833.5 1588.5 c 128,-1,12
 839 1594 839 1594 855 1595 c 1,13,14
 855 1598 855 1598 912 1601 c 128,-1,15
 969 1604 969 1604 985 1604 c 0,16,17
 1088 1604 1088 1604 1101 1591 c 1,18,19
 1126 1582 1126 1582 1132 1548 c 2,20,-1
 1189 1220 l 2,21,22
 1195 1190 1195 1190 1189.5 1181 c 128,-1,23
 1184 1172 1184 1172 1168 1173 c 1,24,-1
 1105 1173 l 2,0,1
EndSplineSet
EndChar

StartChar: a
Encoding: 97 97 68
Width: 1780
GlyphClass: 2
Flags: W
LayerCount: 2
Fore
SplineSet
725 -41 m 0,0,1
 441 -41 441 -41 291 32 c 128,-1,2
 141 105 141 105 139 238 c 0,3,4
 138 325 138 325 201 392 c 128,-1,5
 264 459 264 459 366 497.5 c 128,-1,6
 468 536 468 536 591.5 562.5 c 128,-1,7
 715 589 715 589 838.5 600.5 c 128,-1,8
 962 612 962 612 1064 618 c 128,-1,9
 1166 624 1166 624 1230 628.5 c 128,-1,10
 1294 633 1294 633 1294 640 c 2,11,-1
 1294 655 l 2,12,13
 1294 712 1294 712 1277 752 c 128,-1,14
 1260 792 1260 792 1217.5 822.5 c 128,-1,15
 1175 853 1175 853 1098.5 867.5 c 128,-1,16
 1022 882 1022 882 908 882 c 0,17,18
 848 882 848 882 778 876.5 c 128,-1,19
 708 871 708 871 615.5 847.5 c 128,-1,20
 523 824 523 824 483 785 c 0,21,22
 438 740 438 740 413 740 c 0,23,24
 411 740 411 740 393 742 c 2,25,-1
 207 765 l 2,26,27
 194 766 194 766 184.5 777.5 c 128,-1,28
 175 789 175 789 175 802 c 0,29,30
 175 827 175 827 186 846 c 0,31,32
 249 954 249 954 418 1003.5 c 128,-1,33
 587 1053 587 1053 905 1053 c 0,34,35
 1284 1053 1284 1053 1460 945 c 128,-1,36
 1636 837 1636 837 1636 589 c 2,37,-1
 1636 84 l 2,38,39
 1636 0 1636 0 1582 0 c 2,40,-1
 1524 0 l 2,41,42
 1496 0 1496 0 1479 24.5 c 128,-1,43
 1462 49 1462 49 1447 101 c 2,44,-1
 1412 226 l 1,45,46
 1405 257 1405 257 1400 257 c 0,47,48
 1398 257 1398 257 1395.5 252.5 c 128,-1,49
 1393 248 1393 248 1390 240.5 c 128,-1,50
 1387 233 1387 233 1386 231 c 0,51,52
 1318 107 1318 107 1151.5 33 c 128,-1,53
 985 -41 985 -41 725 -41 c 0,0,1
768 128 m 0,54,55
 913 128 913 128 1030.5 163 c 128,-1,56
 1148 198 1148 198 1223.5 275.5 c 128,-1,57
 1299 353 1299 353 1299 462 c 0,58,59
 1299 471 1299 471 1298.5 474.5 c 128,-1,60
 1298 478 1298 478 1294.5 481.5 c 128,-1,61
 1291 485 1291 485 1283 485 c 0,62,63
 1280 485 1280 485 1213.5 481.5 c 128,-1,64
 1147 478 1147 478 1144 477 c 0,65,66
 891 457 891 457 745.5 428.5 c 128,-1,67
 600 400 600 400 537 359.5 c 128,-1,68
 474 319 474 319 475 258 c 0,69,70
 476 193 476 193 543 160.5 c 128,-1,71
 610 128 610 128 768 128 c 0,54,55
EndSplineSet
EndChar

StartChar: b
Encoding: 98 98 69
Width: 1796
GlyphClass: 2
Flags: W
LayerCount: 2
Fore
SplineSet
981 -41 m 0,0,1
 811 -41 811 -41 655 23.5 c 128,-1,2
 499 88 499 88 410 206 c 1,3,4
 406 213 406 213 401 213 c 128,-1,5
 396 213 396 213 390 201 c 2,6,-1
 352 120 l 2,7,8
 314 38 314 38 298 21 c 0,9,10
 279 0 279 0 257 0 c 2,11,-1
 215 0 l 2,12,13
 184 0 184 0 172 16.5 c 128,-1,14
 160 33 160 33 160 67 c 2,15,-1
 160 1364 l 2,16,17
 160 1396 160 1396 179 1415 c 128,-1,18
 198 1434 198 1434 230 1434 c 2,19,-1
 421 1434 l 2,20,21
 453 1434 453 1434 472 1415 c 128,-1,22
 491 1396 491 1396 491 1364 c 2,23,-1
 491 885 l 2,24,25
 491 874 491 874 497 874 c 0,26,27
 498 874 498 874 501 876 c 2,28,-1
 504 878 l 1,29,30
 584 964 584 964 707.5 1008.5 c 128,-1,31
 831 1053 831 1053 979 1053 c 0,32,33
 1081 1053 1081 1053 1177 1035 c 128,-1,34
 1273 1017 1273 1017 1363 974.5 c 128,-1,35
 1453 932 1453 932 1519.5 870 c 128,-1,36
 1586 808 1586 808 1626 713 c 128,-1,37
 1666 618 1666 618 1666 502 c 0,38,39
 1666 390 1666 390 1625 297.5 c 128,-1,40
 1584 205 1584 205 1516 143.5 c 128,-1,41
 1448 82 1448 82 1358.5 39.5 c 128,-1,42
 1269 -3 1269 -3 1174 -22 c 128,-1,43
 1079 -41 1079 -41 981 -41 c 0,0,1
911 159 m 0,44,45
 1093 159 1093 159 1209.5 252 c 128,-1,46
 1326 345 1326 345 1326 507 c 0,47,48
 1326 622 1326 622 1268 703 c 128,-1,49
 1210 784 1210 784 1118 821 c 128,-1,50
 1026 858 1026 858 911 858 c 0,51,52
 824 858 824 858 749 836 c 128,-1,53
 674 814 674 814 616 771.5 c 128,-1,54
 558 729 558 729 524.5 661 c 128,-1,55
 491 593 491 593 491 507 c 0,56,57
 491 346 491 346 608.5 252.5 c 128,-1,58
 726 159 726 159 911 159 c 0,44,45
EndSplineSet
EndChar

StartChar: c
Encoding: 99 99 70
Width: 1627
GlyphClass: 2
Flags: W
LayerCount: 2
Fore
SplineSet
918 -41 m 0,0,1
 805 -41 805 -41 697 -23.5 c 128,-1,2
 589 -6 589 -6 484.5 35.5 c 128,-1,3
 380 77 380 77 302 138.5 c 128,-1,4
 224 200 224 200 176 294.5 c 128,-1,5
 128 389 128 389 128 506 c 0,6,7
 128 604 128 604 161 687 c 128,-1,8
 194 770 194 770 252.5 828.5 c 128,-1,9
 311 887 311 887 386.5 931 c 128,-1,10
 462 975 462 975 551.5 1001.5 c 128,-1,11
 641 1028 641 1028 731.5 1040.5 c 128,-1,12
 822 1053 822 1053 915 1053 c 0,13,14
 1055 1053 1055 1053 1197.5 1023 c 128,-1,15
 1340 993 1340 993 1445 938 c 0,16,17
 1495 911 1495 911 1476 864 c 0,18,19
 1474 858 1474 858 1460.5 825 c 128,-1,20
 1447 792 1447 792 1445 786 c 0,21,22
 1426 739 1426 739 1363 766 c 1,23,24
 1170 857 1170 857 940 857 c 0,25,26
 851 857 851 857 769.5 837 c 128,-1,27
 688 817 688 817 619 777 c 128,-1,28
 550 737 550 737 509 667 c 128,-1,29
 468 597 468 597 468 506 c 0,30,31
 468 419 468 419 507.5 350 c 128,-1,32
 547 281 547 281 616 238.5 c 128,-1,33
 685 196 685 196 772 174.5 c 128,-1,34
 859 153 859 153 958 153 c 0,35,36
 1145 153 1145 153 1352 237 c 0,37,38
 1414 262 1414 262 1430 215 c 0,39,40
 1432 210 1432 210 1438 195 c 128,-1,41
 1444 180 1444 180 1449.5 164 c 128,-1,42
 1455 148 1455 148 1459 134 c 1,43,44
 1468 112 1468 112 1460 92 c 128,-1,45
 1452 72 1452 72 1422 58 c 0,46,47
 1320 12 1320 12 1181.5 -14.5 c 128,-1,48
 1043 -41 1043 -41 918 -41 c 0,0,1
EndSplineSet
EndChar

StartChar: d
Encoding: 100 100 71
Width: 1797
GlyphClass: 2
Flags: W
LayerCount: 2
Fore
SplineSet
816 -41 m 0,0,1
 718 -41 718 -41 623 -22 c 128,-1,2
 528 -3 528 -3 438 39.5 c 128,-1,3
 348 82 348 82 280 143.5 c 128,-1,4
 212 205 212 205 171 297.5 c 128,-1,5
 130 390 130 390 130 502 c 0,6,7
 130 618 130 618 170 713 c 128,-1,8
 210 808 210 808 276.5 870 c 128,-1,9
 343 932 343 932 433 974.5 c 128,-1,10
 523 1017 523 1017 619 1035 c 128,-1,11
 715 1053 715 1053 817 1053 c 0,12,13
 964 1053 964 1053 1086.5 1009 c 128,-1,14
 1209 965 1209 965 1290 880 c 0,15,16
 1292 878 1292 878 1296 874.5 c 128,-1,17
 1300 871 1300 871 1301 870 c 1,18,19
 1306 870 1306 870 1306 889 c 2,20,-1
 1306 1364 l 2,21,22
 1306 1396 1306 1396 1324.5 1415 c 128,-1,23
 1343 1434 1343 1434 1375 1434 c 2,24,-1
 1567 1434 l 2,25,26
 1599 1434 1599 1434 1618 1415 c 128,-1,27
 1637 1396 1637 1396 1637 1364 c 2,28,-1
 1637 70 l 2,29,30
 1637 0 1637 0 1577 0 c 2,31,-1
 1548 0 l 2,32,33
 1502 0 1502 0 1466 69 c 1,34,35
 1419 166 1419 166 1408 201 c 1,36,37
 1402 214 1402 214 1397 217 c 1,38,39
 1388 210 1388 210 1383 202 c 0,40,41
 1294 86 1294 86 1139 22.5 c 128,-1,42
 984 -41 984 -41 816 -41 c 0,0,1
886 159 m 0,43,44
 1071 159 1071 159 1189 252.5 c 128,-1,45
 1307 346 1307 346 1306 507 c 0,46,47
 1306 621 1306 621 1248 702 c 128,-1,48
 1190 783 1190 783 1096.5 820.5 c 128,-1,49
 1003 858 1003 858 885 858 c 0,50,51
 770 858 770 858 678 821 c 128,-1,52
 586 784 586 784 528 703 c 128,-1,53
 470 622 470 622 470 507 c 0,54,55
 470 345 470 345 587 252 c 128,-1,56
 704 159 704 159 886 159 c 0,43,44
EndSplineSet
EndChar

StartChar: e
Encoding: 101 101 72
Width: 1703
GlyphClass: 2
Flags: W
LayerCount: 2
Fore
SplineSet
914 -42 m 0,0,1
 796 -42 796 -42 691 -27.5 c 128,-1,2
 586 -13 586 -13 481 25.5 c 128,-1,3
 376 64 376 64 300.5 123.5 c 128,-1,4
 225 183 225 183 178 280.5 c 128,-1,5
 131 378 131 378 131 504 c 0,6,7
 131 626 131 626 177 723 c 128,-1,8
 223 820 223 820 297 880.5 c 128,-1,9
 371 941 371 941 471.5 981 c 128,-1,10
 572 1021 572 1021 674 1037 c 128,-1,11
 776 1053 776 1053 886 1053 c 0,12,13
 1184 1053 1184 1053 1363 922.5 c 128,-1,14
 1542 792 1542 792 1569 581 c 1,15,-1
 1569 533 l 1,16,17
 1567 502 1567 502 1542.5 476 c 128,-1,18
 1518 450 1518 450 1462 450 c 2,19,-1
 494 450 l 2,20,21
 475 450 475 450 475 433 c 0,22,23
 475 379 475 379 503 329.5 c 128,-1,24
 531 280 531 280 586.5 238 c 128,-1,25
 642 196 642 196 738.5 170.5 c 128,-1,26
 835 145 835 145 959 145 c 0,27,28
 1195 145 1195 145 1405 229 c 1,29,30
 1436 240 1436 240 1456 234.5 c 128,-1,31
 1476 229 1476 229 1483 208 c 0,32,33
 1486 199 1486 199 1493.5 176.5 c 128,-1,34
 1501 154 1501 154 1505 141 c 0,35,36
 1523 84 1523 84 1470 62 c 0,37,38
 1369 20 1369 20 1204.5 -11 c 128,-1,39
 1040 -42 1040 -42 914 -42 c 0,0,1
488 599 m 2,40,-1
 1275 599 l 2,41,42
 1278 599 1278 599 1278 609 c 1,43,44
 1265 653 1265 653 1249 687 c 128,-1,45
 1233 721 1233 721 1203 758.5 c 128,-1,46
 1173 796 1173 796 1133 820.5 c 128,-1,47
 1093 845 1093 845 1030.5 861 c 128,-1,48
 968 877 968 877 889 877 c 0,49,50
 789 877 789 877 702.5 849 c 128,-1,51
 616 821 616 821 553.5 760 c 128,-1,52
 491 699 491 699 478 614 c 1,53,54
 478 599 478 599 488 599 c 2,40,-1
EndSplineSet
EndChar

StartChar: f
Encoding: 102 102 73
Width: 1345
GlyphClass: 2
Flags: W
LayerCount: 2
Fore
SplineSet
440 0 m 2,0,1
 408 0 408 0 385.5 22.5 c 128,-1,2
 363 45 363 45 363 77 c 2,3,-1
 363 800 l 2,4,5
 363 813 363 813 362.5 819 c 128,-1,6
 362 825 362 825 357 831 c 128,-1,7
 352 837 352 837 343 837 c 2,8,-1
 191 837 l 2,9,10
 156 837 156 837 140 848 c 128,-1,11
 124 859 124 859 124 889 c 2,12,-1
 124 945 l 2,13,14
 124 1006 124 1006 191 1006 c 2,15,-1
 341 1006 l 2,16,17
 356 1006 356 1006 360 1014.5 c 128,-1,18
 364 1023 364 1023 364 1042 c 0,19,20
 366 1139 366 1139 395.5 1215 c 128,-1,21
 425 1291 425 1291 472 1339 c 128,-1,22
 519 1387 519 1387 585 1418.5 c 128,-1,23
 651 1450 651 1450 720 1462.5 c 128,-1,24
 789 1475 789 1475 868 1475 c 0,25,26
 910 1475 910 1475 960.5 1470 c 128,-1,27
 1011 1465 1011 1465 1040.5 1460 c 128,-1,28
 1070 1455 1070 1455 1115 1446.5 c 128,-1,29
 1160 1438 1160 1438 1161 1438 c 0,30,31
 1183 1432 1183 1432 1197 1418 c 128,-1,32
 1211 1404 1211 1404 1211 1384 c 2,33,-1
 1211 1297 l 2,34,35
 1211 1269 1211 1269 1203 1260.5 c 128,-1,36
 1195 1252 1195 1252 1170 1252 c 1,37,-1
 1132 1259 l 2,38,39
 1093 1266 1093 1266 1042.5 1272.5 c 128,-1,40
 992 1279 992 1279 963 1279 c 0,41,42
 820 1279 820 1279 761.5 1221 c 128,-1,43
 703 1163 703 1163 703 1061 c 2,44,-1
 703 1016 l 2,45,46
 703 1006 703 1006 713 1006 c 2,47,-1
 1120 1006 l 2,48,49
 1154 1006 1154 1006 1170.5 994 c 128,-1,50
 1187 982 1187 982 1187 951 c 2,51,-1
 1187 889 l 2,52,53
 1187 859 1187 859 1171 848 c 128,-1,54
 1155 837 1155 837 1120 837 c 2,55,-1
 726 837 l 2,56,57
 703 837 703 837 703 800 c 2,58,-1
 703 77 l 2,59,60
 703 45 703 45 680.5 22.5 c 128,-1,61
 658 0 658 0 626 0 c 2,62,-1
 440 0 l 2,0,1
EndSplineSet
EndChar

StartChar: g
Encoding: 103 103 74
Width: 1629
GlyphClass: 2
Flags: W
LayerCount: 2
Fore
SplineSet
805 -595 m 0,0,1
 479 -595 479 -595 320 -529.5 c 128,-1,2
 161 -464 161 -464 161 -352 c 0,3,4
 161 -177 161 -177 366 -49 c 1,5,6
 380 -42 380 -42 380 -33 c 0,7,8
 380 -25 380 -25 364 -20 c 0,9,10
 260 11 260 11 210.5 50.5 c 128,-1,11
 161 90 161 90 161 155 c 0,12,13
 161 224 161 224 207.5 291.5 c 128,-1,14
 254 359 254 359 319 399 c 0,15,16
 336 410 336 410 336 418 c 0,17,18
 336 421 336 421 334.5 423 c 128,-1,19
 333 425 333 425 328 427.5 c 128,-1,20
 323 430 323 430 322 431 c 0,21,22
 141 537 141 537 141 695 c 0,23,24
 141 754 141 754 160.5 805 c 128,-1,25
 180 856 180 856 227.5 902.5 c 128,-1,26
 275 949 275 949 347.5 981.5 c 128,-1,27
 420 1014 420 1014 532 1033.5 c 128,-1,28
 644 1053 644 1053 786 1053 c 0,29,30
 817 1053 817 1053 940 1039 c 0,31,32
 954 1038 954 1038 966 1046.5 c 128,-1,33
 978 1055 978 1055 981 1068 c 1,34,-1
 1080 1334 l 1,35,36
 1086 1364 1086 1364 1110 1384 c 128,-1,37
 1134 1404 1134 1404 1165 1404 c 2,38,-1
 1306 1404 l 2,39,40
 1330 1404 1330 1404 1341.5 1383 c 128,-1,41
 1353 1362 1353 1362 1340 1343 c 2,42,-1
 1121 1033 l 2,43,44
 1114 1022 1114 1022 1118 1009 c 128,-1,45
 1122 996 1122 996 1134 991 c 1,46,47
 1265 950 1265 950 1341 868.5 c 128,-1,48
 1417 787 1417 787 1417 695 c 0,49,50
 1417 632 1417 632 1401.5 580 c 128,-1,51
 1386 528 1386 528 1345 479.5 c 128,-1,52
 1304 431 1304 431 1238.5 398 c 128,-1,53
 1173 365 1173 365 1067.5 345.5 c 128,-1,54
 962 326 962 326 824 326 c 0,55,56
 644 326 644 326 523 354 c 0,57,58
 511 356 511 356 489.5 345.5 c 128,-1,59
 468 335 468 335 452 320 c 1,60,61
 430 302 430 302 414 276 c 128,-1,62
 398 250 398 250 398 231 c 0,63,64
 398 205 398 205 412 189 c 128,-1,65
 426 173 426 173 471.5 162.5 c 128,-1,66
 517 152 517 152 598 152 c 2,67,-1
 971 152 l 2,68,69
 1126 152 1126 152 1237.5 123.5 c 128,-1,70
 1349 95 1349 95 1411.5 43 c 128,-1,71
 1474 -9 1474 -9 1502 -73 c 128,-1,72
 1530 -137 1530 -137 1530 -216 c 0,73,74
 1530 -339 1530 -339 1460.5 -421 c 128,-1,75
 1391 -503 1391 -503 1228 -549 c 128,-1,76
 1065 -595 1065 -595 805 -595 c 0,0,1
808 -388 m 0,77,78
 959 -388 959 -388 1057.5 -375 c 128,-1,79
 1156 -362 1156 -362 1203.5 -335 c 128,-1,80
 1251 -308 1251 -308 1267.5 -278 c 128,-1,81
 1284 -248 1284 -248 1284 -203 c 0,82,83
 1284 -140 1284 -140 1197.5 -102.5 c 128,-1,84
 1111 -65 1111 -65 969 -65 c 2,85,-1
 626 -65 l 2,86,87
 570 -65 570 -65 496 -132 c 128,-1,88
 422 -199 422 -199 422 -258 c 0,89,90
 422 -388 422 -388 808 -388 c 0,77,78
786 508 m 0,91,92
 876 508 876 508 941.5 519 c 128,-1,93
 1007 530 1007 530 1043.5 546 c 128,-1,94
 1080 562 1080 562 1101 587 c 128,-1,95
 1122 612 1122 612 1128 634.5 c 128,-1,96
 1134 657 1134 657 1134 687 c 0,97,98
 1134 718 1134 718 1126.5 743 c 128,-1,99
 1119 768 1119 768 1096.5 794 c 128,-1,100
 1074 820 1074 820 1036.5 837 c 128,-1,101
 999 854 999 854 934 865 c 128,-1,102
 869 876 869 876 782 876 c 0,103,104
 433 876 433 876 433 699 c 0,105,106
 433 508 433 508 786 508 c 0,91,92
EndSplineSet
EndChar

StartChar: h
Encoding: 104 104 75
Width: 1701
GlyphClass: 2
Flags: W
LayerCount: 2
Fore
SplineSet
230 0 m 2,0,1
 198 0 198 0 179 19 c 128,-1,2
 160 38 160 38 160 70 c 2,3,-1
 160 1367 l 2,4,5
 160 1399 160 1399 179 1418 c 128,-1,6
 198 1437 198 1437 230 1437 c 2,7,-1
 422 1437 l 2,8,9
 454 1437 454 1437 473 1418 c 128,-1,10
 492 1399 492 1399 492 1367 c 2,11,-1
 492 879 l 2,12,13
 492 875 492 875 498.5 871.5 c 128,-1,14
 505 868 505 868 507 870 c 0,15,16
 694 1053 694 1053 991 1053 c 0,17,18
 1156 1053 1156 1053 1282 997 c 128,-1,19
 1408 941 1408 941 1483 823.5 c 128,-1,20
 1558 706 1558 706 1558 540 c 2,21,-1
 1558 70 l 2,22,23
 1558 38 1558 38 1539.5 19 c 128,-1,24
 1521 0 1521 0 1489 0 c 2,25,-1
 1292 0 l 2,26,27
 1260 0 1260 0 1241 19 c 128,-1,28
 1222 38 1222 38 1222 70 c 2,29,-1
 1222 573 l 2,30,31
 1222 715 1222 715 1134.5 786.5 c 128,-1,32
 1047 858 1047 858 901 858 c 0,33,34
 805 858 805 858 709 815 c 128,-1,35
 613 772 613 772 552.5 705 c 128,-1,36
 492 638 492 638 492 573 c 2,37,-1
 492 70 l 2,38,39
 492 38 492 38 473.5 19 c 128,-1,40
 455 0 455 0 423 0 c 2,41,-1
 230 0 l 2,0,1
EndSplineSet
EndChar

StartChar: i
Encoding: 105 105 76
Width: 652
GlyphClass: 2
Flags: W
LayerCount: 2
Fore
SplineSet
230 0 m 2,0,1
 198 0 198 0 179 19 c 128,-1,2
 160 38 160 38 160 70 c 2,3,-1
 160 936 l 2,4,5
 160 968 160 968 179 987 c 128,-1,6
 198 1006 198 1006 230 1006 c 2,7,-1
 422 1006 l 2,8,9
 454 1006 454 1006 473 987 c 128,-1,10
 492 968 492 968 492 936 c 2,11,-1
 492 70 l 2,12,13
 492 38 492 38 473 19 c 128,-1,14
 454 0 454 0 422 0 c 2,15,-1
 230 0 l 2,0,1
230 1171 m 2,16,17
 198 1171 198 1171 179 1190 c 128,-1,18
 160 1209 160 1209 160 1241 c 2,19,-1
 160 1378 l 2,20,21
 160 1410 160 1410 179 1429 c 128,-1,22
 198 1448 198 1448 230 1448 c 2,23,-1
 422 1448 l 2,24,25
 454 1448 454 1448 473 1429 c 128,-1,26
 492 1410 492 1410 492 1378 c 2,27,-1
 492 1241 l 2,28,29
 492 1209 492 1209 473 1190 c 128,-1,30
 454 1171 454 1171 422 1171 c 2,31,-1
 230 1171 l 2,16,17
EndSplineSet
EndChar

StartChar: j
Encoding: 106 106 77
Width: 914
GlyphClass: 2
Flags: W
LayerCount: 2
Fore
SplineSet
492 1171 m 2,0,1
 460 1171 460 1171 441 1190 c 128,-1,2
 422 1209 422 1209 422 1241 c 2,3,-1
 422 1378 l 2,4,5
 422 1410 422 1410 441 1429 c 128,-1,6
 460 1448 460 1448 492 1448 c 2,7,-1
 684 1448 l 2,8,9
 716 1448 716 1448 735 1429 c 128,-1,10
 754 1410 754 1410 754 1378 c 2,11,-1
 754 1241 l 2,12,13
 754 1209 754 1209 735 1190 c 128,-1,14
 716 1171 716 1171 684 1171 c 2,15,-1
 492 1171 l 2,0,1
315 -402 m 0,16,17
 183 -402 183 -402 111 -381 c 0,18,19
 87 -374 87 -374 70.5 -359 c 128,-1,20
 54 -344 54 -344 53 -326 c 2,21,-1
 51 -237 l 2,22,23
 50 -203 50 -203 66 -186.5 c 128,-1,24
 82 -170 82 -170 103 -172 c 0,25,26
 109 -172 109 -172 157 -180 c 128,-1,27
 205 -188 205 -188 246 -188 c 128,-1,28
 287 -188 287 -188 316.5 -175.5 c 128,-1,29
 346 -163 346 -163 371 -132 c 128,-1,30
 396 -101 396 -101 409 -41 c 128,-1,31
 422 19 422 19 422 108 c 2,32,-1
 422 936 l 2,33,34
 422 968 422 968 441 987 c 128,-1,35
 460 1006 460 1006 492 1006 c 2,36,-1
 684 1006 l 2,37,38
 716 1006 716 1006 735 987 c 128,-1,39
 754 968 754 968 754 936 c 2,40,-1
 754 96 l 2,41,42
 754 40 754 40 751 -3 c 128,-1,43
 748 -46 748 -46 737.5 -100.5 c 128,-1,44
 727 -155 727 -155 709 -195 c 128,-1,45
 691 -235 691 -235 658 -276 c 128,-1,46
 625 -317 625 -317 580 -343 c 128,-1,47
 535 -369 535 -369 467.5 -385.5 c 128,-1,48
 400 -402 400 -402 315 -402 c 0,16,17
EndSplineSet
EndChar

StartChar: k
Encoding: 107 107 78
Width: 1795
GlyphClass: 2
Flags: W
LayerCount: 2
Fore
SplineSet
230 0 m 2,0,1
 198 0 198 0 179 19 c 128,-1,2
 160 38 160 38 160 70 c 2,3,-1
 160 1379 l 2,4,5
 160 1411 160 1411 179 1430 c 128,-1,6
 198 1449 198 1449 230 1449 c 2,7,-1
 422 1449 l 2,8,9
 454 1449 454 1449 473 1430 c 128,-1,10
 492 1411 492 1411 492 1379 c 2,11,-1
 492 564 l 2,12,13
 492 552 492 552 502 552 c 0,14,15
 506 552 506 552 510 555 c 2,16,-1
 1136 946 l 2,17,18
 1231 1006 1231 1006 1283 1006 c 2,19,-1
 1597 1006 l 2,20,21
 1626 1006 1626 1006 1626 987 c 0,22,23
 1626 966 1626 966 1589 946 c 1,24,-1
 1023 581 l 1,25,26
 1016 578 1016 578 1016 568 c 0,27,28
 1016 563 1016 563 1023 556 c 1,29,-1
 1649 63 l 2,30,31
 1676 42 1676 42 1676 25 c 0,32,33
 1676 0 1676 0 1641 0 c 2,34,-1
 1367 0 l 2,35,36
 1337 0 1337 0 1311 15.5 c 128,-1,37
 1285 31 1285 31 1244 64 c 2,38,-1
 775 433 l 2,39,40
 764 442 764 442 756 442 c 0,41,42
 746 442 746 442 739 436 c 1,43,44
 716 424 716 424 659.5 389.5 c 128,-1,45
 603 355 603 355 556.5 326.5 c 128,-1,46
 510 298 510 298 509 297 c 0,47,48
 492 283 492 283 492 264 c 2,49,-1
 492 70 l 2,50,51
 492 38 492 38 473 19 c 128,-1,52
 454 0 454 0 422 0 c 2,53,-1
 230 0 l 2,0,1
EndSplineSet
EndChar

StartChar: l
Encoding: 108 108 79
Width: 656
GlyphClass: 2
Flags: W
LayerCount: 2
Fore
SplineSet
231 0 m 2,0,1
 199 0 199 0 180.5 19 c 128,-1,2
 162 38 162 38 162 70 c 2,3,-1
 162 1379 l 2,4,5
 162 1411 162 1411 180.5 1430 c 128,-1,6
 199 1449 199 1449 231 1449 c 2,7,-1
 424 1449 l 2,8,9
 456 1449 456 1449 475 1430 c 128,-1,10
 494 1411 494 1411 494 1379 c 2,11,-1
 494 70 l 2,12,13
 494 38 494 38 475 19 c 128,-1,14
 456 0 456 0 424 0 c 2,15,-1
 231 0 l 2,0,1
EndSplineSet
EndChar

StartChar: m
Encoding: 109 109 80
Width: 2673
GlyphClass: 2
Flags: W
LayerCount: 2
Fore
SplineSet
222 0 m 2,0,1
 190 0 190 0 171.5 19 c 128,-1,2
 153 38 153 38 153 70 c 2,3,-1
 153 929 l 2,4,5
 153 963 153 963 168.5 984.5 c 128,-1,6
 184 1006 184 1006 215 1006 c 2,7,-1
 260 1006 l 2,8,9
 296 1006 296 1006 317.5 991.5 c 128,-1,10
 339 977 339 977 351 942 c 2,11,-1
 394 820 l 1,12,13
 402 808 402 808 411 808 c 128,-1,14
 420 808 420 808 431 822 c 0,15,16
 522 938 522 938 658 995.5 c 128,-1,17
 794 1053 794 1053 950 1053 c 0,18,19
 1276 1053 1276 1053 1412 840 c 0,20,21
 1424 822 1424 822 1433 822 c 0,22,23
 1441 822 1441 822 1458 843 c 0,24,25
 1548 949 1548 949 1680 1001 c 128,-1,26
 1812 1053 1812 1053 1962 1053 c 0,27,28
 2127 1053 2127 1053 2253 997.5 c 128,-1,29
 2379 942 2379 942 2454.5 824.5 c 128,-1,30
 2530 707 2530 707 2530 540 c 2,31,-1
 2530 70 l 2,32,33
 2530 38 2530 38 2511 19 c 128,-1,34
 2492 0 2492 0 2460 0 c 2,35,-1
 2263 0 l 2,36,37
 2231 0 2231 0 2212 19 c 128,-1,38
 2193 38 2193 38 2193 70 c 2,39,-1
 2193 573 l 2,40,41
 2193 859 2193 859 1885 859 c 0,42,43
 1798 859 1798 859 1711.5 822 c 128,-1,44
 1625 785 1625 785 1565.5 715 c 128,-1,45
 1506 645 1506 645 1506 563 c 2,46,-1
 1506 551 l 2,47,48
 1506 539 1506 539 1505.5 522.5 c 128,-1,49
 1505 506 1505 506 1505 495 c 2,50,-1
 1505 70 l 2,51,52
 1505 38 1505 38 1486 19 c 128,-1,53
 1467 0 1467 0 1435 0 c 2,54,-1
 1242 0 l 2,55,56
 1210 0 1210 0 1191 19 c 128,-1,57
 1172 38 1172 38 1172 70 c 2,58,-1
 1172 573 l 2,59,60
 1172 716 1172 716 1092.5 787 c 128,-1,61
 1013 858 1013 858 877 858 c 0,62,63
 805 858 805 858 732.5 829 c 128,-1,64
 660 800 660 800 606 755 c 128,-1,65
 552 710 552 710 518.5 652.5 c 128,-1,66
 485 595 485 595 485 541 c 2,67,-1
 485 70 l 2,68,69
 485 38 485 38 466 19 c 128,-1,70
 447 0 447 0 415 0 c 2,71,-1
 222 0 l 2,0,1
EndSplineSet
EndChar

StartChar: n
Encoding: 110 110 81
Width: 1695
GlyphClass: 2
Flags: W
LayerCount: 2
Fore
SplineSet
222 0 m 2,0,1
 190 0 190 0 171.5 19 c 128,-1,2
 153 38 153 38 153 70 c 2,3,-1
 153 929 l 2,4,5
 153 963 153 963 168.5 984.5 c 128,-1,6
 184 1006 184 1006 215 1006 c 2,7,-1
 260 1006 l 2,8,9
 296 1006 296 1006 317.5 991.5 c 128,-1,10
 339 977 339 977 351 942 c 2,11,-1
 394 820 l 1,12,13
 402 807 402 807 411 807 c 128,-1,14
 420 807 420 807 432 821 c 0,15,16
 526 937 526 937 667 995 c 128,-1,17
 808 1053 808 1053 969 1053 c 0,18,19
 1240 1053 1240 1053 1396 923 c 128,-1,20
 1552 793 1552 793 1552 540 c 2,21,-1
 1552 70 l 2,22,23
 1552 38 1552 38 1533.5 19 c 128,-1,24
 1515 0 1515 0 1483 0 c 2,25,-1
 1290 0 l 2,26,27
 1258 0 1258 0 1239 19 c 128,-1,28
 1220 38 1220 38 1220 70 c 2,29,-1
 1220 573 l 2,30,31
 1220 715 1220 715 1130.5 787 c 128,-1,32
 1041 859 1041 859 894 859 c 0,33,34
 798 859 798 859 702 815.5 c 128,-1,35
 606 772 606 772 545.5 705 c 128,-1,36
 485 638 485 638 485 573 c 2,37,-1
 485 70 l 2,38,39
 485 38 485 38 466 19 c 128,-1,40
 447 0 447 0 415 0 c 2,41,-1
 222 0 l 2,0,1
EndSplineSet
EndChar

StartChar: o
Encoding: 111 111 82
Width: 1763
GlyphClass: 2
Flags: W
LayerCount: 2
Fore
SplineSet
883 148 m 0,0,1
 1068 148 1068 148 1185 240 c 128,-1,2
 1302 332 1302 332 1302 505 c 0,3,4
 1302 623 1302 623 1243.5 706 c 128,-1,5
 1185 789 1185 789 1092.5 826.5 c 128,-1,6
 1000 864 1000 864 883 864 c 0,7,8
 765 864 765 864 671.5 826 c 128,-1,9
 578 788 578 788 519.5 705.5 c 128,-1,10
 461 623 461 623 461 505 c 0,11,12
 461 333 461 333 578 240.5 c 128,-1,13
 695 148 695 148 883 148 c 0,0,1
884 -41 m 0,14,15
 780 -41 780 -41 681 -26 c 128,-1,16
 582 -11 582 -11 479.5 28 c 128,-1,17
 377 67 377 67 301.5 126.5 c 128,-1,18
 226 186 226 186 178 283.5 c 128,-1,19
 130 381 130 381 130 505 c 0,20,21
 130 596 130 596 154.5 672.5 c 128,-1,22
 179 749 179 749 220.5 804 c 128,-1,23
 262 859 262 859 321.5 903 c 128,-1,24
 381 947 381 947 446.5 974.5 c 128,-1,25
 512 1002 512 1002 588 1020 c 128,-1,26
 664 1038 664 1038 736.5 1045.5 c 128,-1,27
 809 1053 809 1053 884 1053 c 128,-1,28
 959 1053 959 1053 1030 1045.5 c 128,-1,29
 1101 1038 1101 1038 1177 1020 c 128,-1,30
 1253 1002 1253 1002 1318.5 974.5 c 128,-1,31
 1384 947 1384 947 1443 903 c 128,-1,32
 1502 859 1502 859 1543.5 804 c 128,-1,33
 1585 749 1585 749 1609.5 672.5 c 128,-1,34
 1634 596 1634 596 1634 505 c 0,35,36
 1634 416 1634 416 1609 340 c 128,-1,37
 1584 264 1584 264 1541 208.5 c 128,-1,38
 1498 153 1498 153 1438.5 109.5 c 128,-1,39
 1379 66 1379 66 1313 38.5 c 128,-1,40
 1247 11 1247 11 1171.5 -7.5 c 128,-1,41
 1096 -26 1096 -26 1026 -33.5 c 128,-1,42
 956 -41 956 -41 884 -41 c 0,14,15
EndSplineSet
EndChar

StartChar: p
Encoding: 112 112 83
Width: 1792
GlyphClass: 2
Flags: W
LayerCount: 2
Fore
SplineSet
221 -389 m 2,0,1
 189 -389 189 -389 171 -370.5 c 128,-1,2
 153 -352 153 -352 153 -320 c 2,3,-1
 153 937 l 2,4,5
 153 1007 153 1007 213 1007 c 2,6,-1
 253 1007 l 2,7,8
 311 1007 311 1007 343 922 c 0,9,10
 347 910 347 910 366.5 866.5 c 128,-1,11
 386 823 386 823 390 811 c 1,12,13
 398 797 398 797 404 797 c 1,14,-1
 417 807 l 1,15,16
 505 924 505 924 657.5 988.5 c 128,-1,17
 810 1053 810 1053 975 1053 c 0,18,19
 1074 1053 1074 1053 1169 1034 c 128,-1,20
 1264 1015 1264 1015 1354 972.5 c 128,-1,21
 1444 930 1444 930 1512 868.5 c 128,-1,22
 1580 807 1580 807 1621 714 c 128,-1,23
 1662 621 1662 621 1662 509 c 0,24,25
 1662 392 1662 392 1622 297.5 c 128,-1,26
 1582 203 1582 203 1515.5 140.5 c 128,-1,27
 1449 78 1449 78 1358.5 36 c 128,-1,28
 1268 -6 1268 -6 1172.5 -24 c 128,-1,29
 1077 -42 1077 -42 974 -42 c 0,30,31
 827 -42 827 -42 704.5 0 c 128,-1,32
 582 42 582 42 501 124 c 1,33,34
 498 129 498 129 493 129 c 0,35,36
 485 129 485 129 485 117 c 2,37,-1
 485 -320 l 2,38,39
 485 -352 485 -352 466.5 -370.5 c 128,-1,40
 448 -389 448 -389 416 -389 c 2,41,-1
 221 -389 l 2,0,1
906 147 m 0,42,43
 991 147 991 147 1065.5 169.5 c 128,-1,44
 1140 192 1140 192 1197.5 235.5 c 128,-1,45
 1255 279 1255 279 1288.5 348 c 128,-1,46
 1322 417 1322 417 1322 504 c 0,47,48
 1322 667 1322 667 1204.5 762.5 c 128,-1,49
 1087 858 1087 858 906 858 c 0,50,51
 722 858 722 858 603.5 762 c 128,-1,52
 485 666 485 666 485 504 c 0,53,54
 485 389 485 389 543 307 c 128,-1,55
 601 225 601 225 694.5 186 c 128,-1,56
 788 147 788 147 906 147 c 0,42,43
EndSplineSet
EndChar

StartChar: q
Encoding: 113 113 84
Width: 1792
GlyphClass: 2
Flags: W
LayerCount: 2
Fore
SplineSet
1378 -389 m 2,0,1
 1346 -389 1346 -389 1327 -370 c 128,-1,2
 1308 -351 1308 -351 1308 -319 c 2,3,-1
 1308 116 l 2,4,5
 1308 128 1308 128 1299 128 c 0,6,7
 1298 128 1298 128 1296 127 c 128,-1,8
 1294 126 1294 126 1292.5 124.5 c 128,-1,9
 1291 123 1291 123 1290 123 c 0,10,11
 1209 42 1209 42 1086.5 0 c 128,-1,12
 964 -42 964 -42 819 -42 c 0,13,14
 716 -42 716 -42 620.5 -24 c 128,-1,15
 525 -6 525 -6 434.5 36 c 128,-1,16
 344 78 344 78 277.5 140.5 c 128,-1,17
 211 203 211 203 171 297.5 c 128,-1,18
 131 392 131 392 131 509 c 0,19,20
 131 621 131 621 172 714 c 128,-1,21
 213 807 213 807 281 868.5 c 128,-1,22
 349 930 349 930 439 972.5 c 128,-1,23
 529 1015 529 1015 624 1034 c 128,-1,24
 719 1053 719 1053 818 1053 c 0,25,26
 984 1053 984 1053 1136.5 988.5 c 128,-1,27
 1289 924 1289 924 1376 807 c 0,28,29
 1381 800 1381 800 1388 800 c 0,30,31
 1394 800 1394 800 1398 809 c 0,32,33
 1401 817 1401 817 1425 865.5 c 128,-1,34
 1449 914 1449 914 1454 929 c 0,35,36
 1483 1007 1483 1007 1540 1007 c 2,37,-1
 1580 1007 l 2,38,39
 1640 1007 1640 1007 1640 937 c 2,40,-1
 1640 -319 l 2,41,42
 1640 -351 1640 -351 1621 -370 c 128,-1,43
 1602 -389 1602 -389 1570 -389 c 2,44,-1
 1378 -389 l 2,0,1
887 147 m 0,45,46
 1005 147 1005 147 1098.5 186 c 128,-1,47
 1192 225 1192 225 1250 307 c 128,-1,48
 1308 389 1308 389 1308 504 c 0,49,50
 1308 666 1308 666 1189.5 762 c 128,-1,51
 1071 858 1071 858 887 858 c 0,52,53
 705 858 705 858 588 762.5 c 128,-1,54
 471 667 471 667 471 504 c 0,55,56
 471 389 471 389 529 306.5 c 128,-1,57
 587 224 587 224 679.5 185.5 c 128,-1,58
 772 147 772 147 887 147 c 0,45,46
EndSplineSet
EndChar

StartChar: r
Encoding: 114 114 85
Width: 1134
GlyphClass: 2
Flags: W
LayerCount: 2
Fore
SplineSet
222 0 m 2,0,1
 190 0 190 0 171.5 19 c 128,-1,2
 153 38 153 38 153 70 c 2,3,-1
 153 929 l 2,4,5
 153 1006 153 1006 210 1006 c 2,6,-1
 268 1006 l 2,7,8
 303 1006 303 1006 321 992 c 128,-1,9
 339 978 339 978 351 942 c 1,10,-1
 394 826 l 2,11,12
 400 807 400 807 412 807 c 0,13,14
 418 807 418 807 432 826 c 0,15,16
 506 924 506 924 625 988 c 128,-1,17
 744 1052 744 1052 872 1053 c 1,18,-1
 920 1053 l 2,19,20
 1012 1053 1012 1053 1012 987 c 2,21,-1
 1012 884 l 2,22,23
 1012 820 1012 820 952 820 c 2,24,-1
 834 820 l 2,25,26
 688 820 688 820 586.5 737.5 c 128,-1,27
 485 655 485 655 485 557 c 2,28,-1
 485 70 l 2,29,30
 485 38 485 38 466 19 c 128,-1,31
 447 0 447 0 415 0 c 2,32,-1
 222 0 l 2,0,1
EndSplineSet
EndChar

StartChar: s
Encoding: 115 115 86
Width: 1633
GlyphClass: 2
Flags: W
LayerCount: 2
Fore
SplineSet
834 -41 m 0,0,1
 445 -41 445 -41 197 59 c 0,2,3
 172 69 172 69 160.5 98 c 128,-1,4
 149 127 149 127 160 152 c 2,5,-1
 182 199 l 2,6,7
 196 230 196 230 223 242 c 128,-1,8
 250 254 250 254 281 243 c 0,9,10
 421 194 421 194 560 173 c 128,-1,11
 699 152 699 152 878 152 c 0,12,13
 1077 152 1077 152 1154.5 186.5 c 128,-1,14
 1232 221 1232 221 1232 295 c 0,15,16
 1232 342 1232 342 1205.5 365 c 128,-1,17
 1179 388 1179 388 1088.5 403 c 128,-1,18
 998 418 998 418 807 426 c 0,19,20
 722 430 722 430 660 435 c 128,-1,21
 598 440 598 440 525.5 450 c 128,-1,22
 453 460 453 460 402 473.5 c 128,-1,23
 351 487 351 487 300.5 509 c 128,-1,24
 250 531 250 531 219.5 560 c 128,-1,25
 189 589 189 589 170 630.5 c 128,-1,26
 151 672 151 672 151 723 c 0,27,28
 151 1053 151 1053 809 1053 c 0,29,30
 987 1053 987 1053 1119 1034 c 128,-1,31
 1251 1015 1251 1015 1373 968 c 0,32,33
 1399 958 1399 958 1410 932.5 c 128,-1,34
 1421 907 1421 907 1409 883 c 1,35,-1
 1386 832 l 2,36,37
 1374 806 1374 806 1342.5 798 c 128,-1,38
 1311 790 1311 790 1282 801 c 1,39,40
 1184 832 1184 832 1091.5 847.5 c 128,-1,41
 999 863 999 863 855 863 c 0,42,43
 635 863 635 863 538 836 c 128,-1,44
 441 809 441 809 441 747 c 0,45,46
 441 687 441 687 510.5 670 c 128,-1,47
 580 653 580 653 873 634 c 0,48,49
 963 628 963 628 1008.5 624.5 c 128,-1,50
 1054 621 1054 621 1128.5 613 c 128,-1,51
 1203 605 1203 605 1241.5 595 c 128,-1,52
 1280 585 1280 585 1333.5 568.5 c 128,-1,53
 1387 552 1387 552 1414 529 c 128,-1,54
 1441 506 1441 506 1469.5 475 c 128,-1,55
 1498 444 1498 444 1509 401.5 c 128,-1,56
 1520 359 1520 359 1520 307 c 0,57,58
 1520 129 1520 129 1356.5 44 c 128,-1,59
 1193 -41 1193 -41 834 -41 c 0,0,1
EndSplineSet
EndChar

StartChar: t
Encoding: 116 116 87
Width: 1340
GlyphClass: 2
Flags: W
LayerCount: 2
Fore
SplineSet
843 -41 m 0,0,1
 606 -41 606 -41 469.5 67.5 c 128,-1,2
 333 176 333 176 333 385 c 2,3,-1
 333 800 l 2,4,5
 333 830 333 830 303 830 c 2,6,-1
 175 830 l 2,7,8
 143 830 143 830 124 849 c 128,-1,9
 105 868 105 868 105 900 c 2,10,-1
 105 936 l 2,11,12
 105 968 105 968 124 987 c 128,-1,13
 143 1006 143 1006 175 1006 c 2,14,-1
 303 1006 l 2,15,16
 333 1006 333 1006 333 1036 c 1,17,-1
 356 1405 l 1,18,19
 364 1475 364 1475 425 1475 c 2,20,-1
 603 1475 l 2,21,22
 635 1475 635 1475 654 1456 c 128,-1,23
 673 1437 673 1437 673 1405 c 2,24,-1
 673 1036 l 2,25,26
 673 1006 673 1006 703 1006 c 2,27,-1
 1082 1006 l 2,28,29
 1114 1006 1114 1006 1132.5 987 c 128,-1,30
 1151 968 1151 968 1151 936 c 2,31,-1
 1151 900 l 2,32,33
 1151 868 1151 868 1132.5 849 c 128,-1,34
 1114 830 1114 830 1082 830 c 2,35,-1
 703 830 l 2,36,37
 673 830 673 830 673 800 c 2,38,-1
 673 350 l 2,39,40
 673 250 673 250 732.5 205.5 c 128,-1,41
 792 161 792 161 906 161 c 0,42,43
 1000 161 1000 161 1121 197 c 0,44,45
 1157 208 1157 208 1173 196 c 128,-1,46
 1189 184 1189 184 1195 153 c 1,47,-1
 1201 82 l 1,48,49
 1213 27 1213 27 1144 3 c 0,50,51
 1015 -41 1015 -41 843 -41 c 0,0,1
EndSplineSet
EndChar

StartChar: u
Encoding: 117 117 88
Width: 1701
GlyphClass: 2
Flags: W
LayerCount: 2
Fore
SplineSet
730 -45 m 0,0,1
 605 -45 605 -45 499.5 -13 c 128,-1,2
 394 19 394 19 314 81.5 c 128,-1,3
 234 144 234 144 189.5 243 c 128,-1,4
 145 342 145 342 145 468 c 2,5,-1
 145 940 l 2,6,7
 145 972 145 972 164 991 c 128,-1,8
 183 1010 183 1010 215 1010 c 2,9,-1
 415 1010 l 2,10,11
 447 1010 447 1010 466 991 c 128,-1,12
 485 972 485 972 485 940 c 2,13,-1
 485 435 l 2,14,15
 485 293 485 293 571.5 223.5 c 128,-1,16
 658 154 658 154 806 154 c 0,17,18
 902 154 902 154 998.5 196 c 128,-1,19
 1095 238 1095 238 1156.5 304 c 128,-1,20
 1218 370 1218 370 1218 435 c 2,21,-1
 1218 940 l 2,22,23
 1218 972 1218 972 1236.5 991 c 128,-1,24
 1255 1010 1255 1010 1287 1010 c 2,25,-1
 1480 1010 l 2,26,27
 1512 1010 1512 1010 1531 991 c 128,-1,28
 1550 972 1550 972 1550 940 c 2,29,-1
 1550 77 l 2,30,31
 1550 43 1550 43 1534 21.5 c 128,-1,32
 1518 0 1518 0 1487 0 c 2,33,-1
 1443 0 l 2,34,35
 1371 0 1371 0 1352 64 c 1,36,-1
 1307 187 l 1,37,38
 1299 200 1299 200 1291 200 c 0,39,40
 1281 200 1281 200 1270 187 c 0,41,42
 1176 71 1176 71 1034 13 c 128,-1,43
 892 -45 892 -45 730 -45 c 0,0,1
EndSplineSet
EndChar

StartChar: v
Encoding: 118 118 89
Width: 1678
GlyphClass: 2
Flags: W
LayerCount: 2
Fore
SplineSet
722 1 m 2,0,1
 660 1 660 1 622 68 c 2,2,-1
 118 939 l 2,3,4
 108 958 108 958 108 972 c 0,5,6
 108 987 108 987 119.5 996.5 c 128,-1,7
 131 1006 131 1006 152 1006 c 2,8,-1
 383 1006 l 2,9,10
 438 1006 438 1006 473 938 c 1,11,-1
 846 252 l 2,12,13
 850 243 850 243 860 243 c 0,14,15
 868 243 868 243 873 252 c 2,16,-1
 1217 938 l 2,17,18
 1252 1006 1252 1006 1316 1006 c 2,19,-1
 1527 1006 l 2,20,21
 1567 1006 1567 1006 1567 976 c 0,22,23
 1567 962 1567 962 1552 939 c 1,24,-1
 1070 67 l 1,25,26
 1027 1 1027 1 962 1 c 2,27,-1
 722 1 l 2,0,1
EndSplineSet
EndChar

StartChar: w
Encoding: 119 119 90
Width: 2566
GlyphClass: 2
Flags: W
LayerCount: 2
Fore
SplineSet
650 0 m 2,0,1
 586 0 586 0 551 69 c 1,2,-1
 127 938 l 2,3,4
 118 956 118 956 118 970 c 0,5,6
 118 1006 118 1006 163 1006 c 2,7,-1
 388 1006 l 2,8,9
 445 1006 445 1006 475 937 c 2,10,-1
 779 258 l 2,11,12
 784 249 784 249 790 249 c 0,13,14
 797 249 797 249 801 258 c 2,15,-1
 1101 937 l 1,16,17
 1130 1006 1130 1006 1196 1006 c 2,18,-1
 1392 1006 l 2,19,20
 1442 1006 1442 1006 1475 937 c 2,21,-1
 1802 258 l 2,22,23
 1805 250 1805 250 1812 250 c 0,24,25
 1823 250 1823 250 1825 258 c 1,26,-1
 2103 937 l 2,27,28
 2132 1006 2132 1006 2198 1006 c 2,29,-1
 2403 1006 l 2,30,31
 2445 1006 2445 1006 2445 974 c 0,32,33
 2445 959 2445 959 2431 938 c 1,34,-1
 2026 68 l 2,35,36
 2012 37 2012 37 1982.5 18.5 c 128,-1,37
 1953 0 1953 0 1920 0 c 2,38,-1
 1673 0 l 2,39,40
 1643 0 1643 0 1617 19 c 128,-1,41
 1591 38 1591 38 1577 69 c 2,42,-1
 1289 675 l 2,43,44
 1286 682 1286 682 1279 682 c 0,45,46
 1270 682 1270 682 1268 675 c 1,47,-1
 998 69 l 1,48,49
 985 37 985 37 956 18.5 c 128,-1,50
 927 0 927 0 895 0 c 2,51,-1
 650 0 l 2,0,1
EndSplineSet
EndChar

StartChar: x
Encoding: 120 120 91
Width: 1867
GlyphClass: 2
Flags: W
LayerCount: 2
Fore
SplineSet
165 0 m 2,0,1
 154 0 154 0 146.5 8 c 128,-1,2
 139 16 139 16 139 26 c 0,3,4
 139 39 139 39 149 46 c 0,5,6
 222 101 222 101 436.5 267.5 c 128,-1,7
 651 434 651 434 711 479 c 1,8,9
 717 487 717 487 717 491 c 0,10,11
 717 498 717 498 711 506 c 1,12,13
 611 585 611 585 390 767 c 128,-1,14
 169 949 169 949 157 958 c 0,15,16
 147 965 147 965 147 979 c 0,17,18
 147 990 147 990 155 998 c 128,-1,19
 163 1006 163 1006 175 1006 c 2,20,-1
 482 1006 l 2,21,22
 538 1006 538 1006 600 956 c 0,23,24
 616 944 616 944 671.5 899 c 128,-1,25
 727 854 727 854 798.5 797.5 c 128,-1,26
 870 741 870 741 936 690 c 0,27,28
 941 685 941 685 951 685 c 0,29,30
 960 685 960 685 969 690 c 1,31,32
 1033 738 1033 738 1105.5 794.5 c 128,-1,33
 1178 851 1178 851 1241 900.5 c 128,-1,34
 1304 950 1304 950 1314 958 c 0,35,36
 1375 1006 1375 1006 1429 1006 c 2,37,-1
 1673 1006 l 2,38,39
 1685 1006 1685 1006 1692 998.5 c 128,-1,40
 1699 991 1699 991 1699 981 c 0,41,42
 1699 968 1699 968 1688 960 c 0,43,44
 1631 915 1631 915 1421.5 749.5 c 128,-1,45
 1212 584 1212 584 1155 539 c 1,46,47
 1147 534 1147 534 1147 527 c 0,48,49
 1147 518 1147 518 1154 510 c 1,50,51
 1203 472 1203 472 1422.5 292.5 c 128,-1,52
 1642 113 1642 113 1727 48 c 0,53,54
 1737 41 1737 41 1737 28 c 0,55,56
 1737 17 1737 17 1729 8.5 c 128,-1,57
 1721 0 1721 0 1709 0 c 2,58,-1
 1406 0 l 2,59,60
 1331 0 1331 0 1271 50 c 0,61,62
 1259 60 1259 60 1200.5 107 c 128,-1,63
 1142 154 1142 154 1070.5 211.5 c 128,-1,64
 999 269 999 269 941 314 c 1,65,66
 933 322 933 322 922 322 c 0,67,68
 909 322 909 322 897 315 c 1,69,70
 848 277 848 277 766 213 c 128,-1,71
 684 149 684 149 629 106.5 c 128,-1,72
 574 64 574 64 551 47 c 0,73,74
 491 0 491 0 413 0 c 2,75,-1
 165 0 l 2,0,1
EndSplineSet
EndChar

StartChar: y
Encoding: 121 121 92
Width: 1664
GlyphClass: 2
Flags: W
LayerCount: 2
Fore
SplineSet
497 -519 m 0,0,1
 330 -519 330 -519 227 -465 c 1,2,3
 199 -452 199 -452 198 -414 c 1,4,5
 196 -396 196 -396 204 -378 c 1,6,-1
 226 -314 l 1,7,8
 241 -279 241 -279 287 -279 c 0,9,10
 295 -279 295 -279 309 -283 c 0,11,12
 344 -295 344 -295 403.5 -303 c 128,-1,13
 463 -311 463 -311 491 -311 c 2,14,-1
 509 -311 l 2,15,16
 631 -311 631 -311 695 -202 c 1,17,18
 708 -189 708 -189 743 -106 c 1,19,20
 743 -102 743 -102 704 -31 c 1,21,-1
 129 940 l 2,22,23
 119 955 119 955 119 973 c 0,24,25
 119 1006 119 1006 162 1006 c 2,26,-1
 393 1006 l 2,27,28
 448 1006 448 1006 484 938 c 1,29,-1
 864 265 l 1,30,31
 868 253 868 253 882 253 c 0,32,33
 892 253 892 253 901 270 c 0,34,35
 909 285 909 285 990.5 450.5 c 128,-1,36
 1072 616 1072 616 1150 774.5 c 128,-1,37
 1228 933 1228 933 1228 934 c 0,38,39
 1258 1006 1258 1006 1328 1006 c 2,40,-1
 1510 1006 l 2,41,42
 1531 1006 1531 1006 1545.5 991.5 c 128,-1,43
 1560 977 1560 977 1561 957 c 0,44,45
 1561 943 1561 943 1557 936 c 2,46,-1
 945 -231 l 1,47,48
 919 -284 919 -284 895 -321.5 c 128,-1,49
 871 -359 871 -359 833 -399 c 128,-1,50
 795 -439 795 -439 750.5 -463.5 c 128,-1,51
 706 -488 706 -488 641.5 -503.5 c 128,-1,52
 577 -519 577 -519 497 -519 c 0,0,1
EndSplineSet
EndChar

StartChar: z
Encoding: 122 122 93
Width: 1528
GlyphClass: 2
Flags: W
LayerCount: 2
Fore
SplineSet
203 0 m 2,0,1
 186 0 186 0 165 11.5 c 128,-1,2
 144 23 144 23 144 37 c 2,3,-1
 144 156 l 2,4,5
 144 196 144 196 173 216 c 1,6,-1
 940 813 l 1,7,-1
 185 813 l 2,8,9
 170 813 170 813 159 824 c 128,-1,10
 148 835 148 835 148 850 c 2,11,-1
 148 969 l 2,12,13
 148 984 148 984 159 995 c 128,-1,14
 170 1006 170 1006 185 1006 c 2,15,-1
 1292 1006 l 2,16,17
 1309 1006 1309 1006 1330 994.5 c 128,-1,18
 1351 983 1351 983 1351 969 c 2,19,-1
 1351 838 l 2,20,21
 1351 803 1351 803 1322 777 c 1,22,-1
 591 193 l 1,23,-1
 1353 193 l 2,24,25
 1368 193 1368 193 1379 182 c 128,-1,26
 1390 171 1390 171 1390 156 c 2,27,-1
 1390 37 l 2,28,29
 1390 22 1390 22 1379 11 c 128,-1,30
 1368 0 1368 0 1353 0 c 2,31,-1
 203 0 l 2,0,1
EndSplineSet
EndChar

StartChar: braceleft
Encoding: 123 123 94
Width: 1012
GlyphClass: 2
Flags: W
LayerCount: 2
Fore
SplineSet
700 -121 m 2,0,1
 632 -121 632 -121 582 -106 c 128,-1,2
 532 -91 532 -91 500.5 -64.5 c 128,-1,3
 469 -38 469 -38 449.5 5 c 128,-1,4
 430 48 430 48 421 95.5 c 128,-1,5
 412 143 412 143 409 209 c 0,6,7
 401 413 401 413 372 494 c 128,-1,8
 343 575 343 575 270 588 c 1,9,10
 268 590 268 590 241 592 c 128,-1,11
 214 594 214 594 213 594 c 0,12,13
 163 598 163 598 144.5 622 c 128,-1,14
 126 646 126 646 126 711 c 0,15,16
 126 779 126 779 144.5 802 c 128,-1,17
 163 825 163 825 213 829 c 0,18,19
 214 829 214 829 241 831 c 128,-1,20
 268 833 268 833 270 834 c 0,21,22
 343 848 343 848 372 928.5 c 128,-1,23
 401 1009 401 1009 409 1214 c 0,24,25
 412 1280 412 1280 421 1327.5 c 128,-1,26
 430 1375 430 1375 449.5 1418 c 128,-1,27
 469 1461 469 1461 500.5 1487 c 128,-1,28
 532 1513 532 1513 582 1528 c 128,-1,29
 632 1543 632 1543 700 1543 c 2,30,-1
 811 1543 l 2,31,32
 844 1543 844 1543 866 1526.5 c 128,-1,33
 888 1510 888 1510 888 1480 c 2,34,-1
 888 1412 l 2,35,36
 888 1374 888 1374 870 1358 c 128,-1,37
 852 1342 852 1342 812 1339 c 0,38,39
 764 1336 764 1336 738.5 1329 c 128,-1,40
 713 1322 713 1322 694 1302 c 128,-1,41
 675 1282 675 1282 669 1247.5 c 128,-1,42
 663 1213 663 1213 663 1152 c 2,43,-1
 663 1111 l 2,44,45
 663 760 663 760 516 725 c 0,46,47
 506 722 506 722 506 711 c 0,48,49
 506 701 506 701 516 698 c 0,50,51
 663 660 663 660 663 312 c 2,52,-1
 663 271 l 2,53,54
 663 190 663 190 677 152 c 128,-1,55
 691 114 691 114 719.5 101 c 128,-1,56
 748 88 748 88 812 84 c 0,57,58
 852 81 852 81 870 65 c 128,-1,59
 888 49 888 49 888 11 c 2,60,-1
 888 -58 l 2,61,62
 888 -88 888 -88 866 -104.5 c 128,-1,63
 844 -121 844 -121 811 -121 c 2,64,-1
 700 -121 l 2,0,1
EndSplineSet
EndChar

StartChar: bar
Encoding: 124 124 95
Width: 559
GlyphClass: 2
Flags: W
LayerCount: 2
Fore
SplineSet
238 -150 m 2,0,1
 204 -150 204 -150 182.5 -134 c 128,-1,2
 161 -118 161 -118 161 -87 c 2,3,-1
 161 1492 l 2,4,5
 161 1523 161 1523 182.5 1539 c 128,-1,6
 204 1555 204 1555 238 1555 c 2,7,-1
 321 1555 l 2,8,9
 355 1555 355 1555 376.5 1539 c 128,-1,10
 398 1523 398 1523 398 1492 c 2,11,-1
 398 -87 l 2,12,13
 398 -118 398 -118 376.5 -134 c 128,-1,14
 355 -150 355 -150 321 -150 c 2,15,-1
 238 -150 l 2,0,1
EndSplineSet
EndChar

StartChar: braceright
Encoding: 125 125 96
Width: 1012
GlyphClass: 2
Flags: W
LayerCount: 2
Fore
SplineSet
201 -121 m 2,0,1
 168 -121 168 -121 146 -104.5 c 128,-1,2
 124 -88 124 -88 124 -58 c 2,3,-1
 124 11 l 2,4,5
 124 49 124 49 142 65 c 128,-1,6
 160 81 160 81 200 84 c 0,7,8
 264 88 264 88 292 101 c 128,-1,9
 320 114 320 114 334 152 c 128,-1,10
 348 190 348 190 348 271 c 2,11,-1
 348 312 l 2,12,13
 348 663 348 663 496 698 c 0,14,15
 506 701 506 701 506 711 c 0,16,17
 506 722 506 722 496 725 c 0,18,19
 348 763 348 763 348 1111 c 2,20,-1
 348 1152 l 2,21,22
 348 1233 348 1233 334 1271 c 128,-1,23
 320 1309 320 1309 292 1322 c 128,-1,24
 264 1335 264 1335 200 1339 c 0,25,26
 160 1342 160 1342 142 1358 c 128,-1,27
 124 1374 124 1374 124 1412 c 2,28,-1
 124 1480 l 2,29,30
 124 1510 124 1510 146 1526.5 c 128,-1,31
 168 1543 168 1543 201 1543 c 2,32,-1
 311 1543 l 2,33,34
 379 1543 379 1543 429 1528 c 128,-1,35
 479 1513 479 1513 510.5 1487 c 128,-1,36
 542 1461 542 1461 561.5 1418 c 128,-1,37
 581 1375 581 1375 590 1327.5 c 128,-1,38
 599 1280 599 1280 602 1214 c 0,39,40
 610 1010 610 1010 639.5 929 c 128,-1,41
 669 848 669 848 742 834 c 0,42,43
 744 833 744 833 770.5 831 c 128,-1,44
 797 829 797 829 798 829 c 0,45,46
 848 825 848 825 867 800.5 c 128,-1,47
 886 776 886 776 886 711 c 0,48,49
 886 644 886 644 867.5 621 c 128,-1,50
 849 598 849 598 798 594 c 0,51,52
 797 594 797 594 783 593 c 128,-1,53
 769 592 769 592 756 590.5 c 128,-1,54
 743 589 743 589 742 588 c 0,55,56
 669 575 669 575 639.5 494 c 128,-1,57
 610 413 610 413 602 209 c 0,58,59
 599 143 599 143 590 95.5 c 128,-1,60
 581 48 581 48 561.5 5 c 128,-1,61
 542 -38 542 -38 510.5 -64.5 c 128,-1,62
 479 -91 479 -91 429 -106 c 128,-1,63
 379 -121 379 -121 311 -121 c 2,64,-1
 201 -121 l 2,0,1
EndSplineSet
EndChar

StartChar: asciitilde
Encoding: 126 126 97
Width: 1458
GlyphClass: 2
Flags: W
LayerCount: 2
Fore
SplineSet
463 763 m 0,0,1
 414 763 414 763 370 775 c 128,-1,2
 326 787 326 787 294 805 c 128,-1,3
 262 823 262 823 231.5 851 c 128,-1,4
 201 879 201 879 180 905 c 128,-1,5
 159 931 159 931 136 966 c 1,6,7
 120 982 120 982 120 1001 c 128,-1,8
 120 1020 120 1020 142 1034 c 1,9,-1
 208 1091 l 1,10,11
 224 1109 224 1109 240 1109 c 0,12,13
 260 1109 260 1109 280 1086 c 1,14,15
 373 970 373 970 465 970 c 0,16,17
 513 970 513 970 579.5 993.5 c 128,-1,18
 646 1017 646 1017 703.5 1045 c 128,-1,19
 761 1073 761 1073 836.5 1096.5 c 128,-1,20
 912 1120 912 1120 974 1120 c 0,21,22
 1163 1120 1163 1120 1312 939 c 1,23,24
 1330 922 1330 922 1330 904 c 0,25,26
 1330 884 1330 884 1310 867 c 1,27,-1
 1271 815 l 1,28,29
 1246 788 1246 788 1227 788 c 0,30,31
 1205 788 1205 788 1188 810 c 1,32,33
 1090 916 1090 916 997 916 c 0,34,35
 943 916 943 916 871.5 892 c 128,-1,36
 800 868 800 868 741 839.5 c 128,-1,37
 682 811 682 811 605 787 c 128,-1,38
 528 763 528 763 463 763 c 0,0,1
EndSplineSet
EndChar

StartChar: cent
Encoding: 162 162 99
Width: 1617
GlyphClass: 2
Flags: W
LayerCount: 2
Fore
SplineSet
891 -204 m 2,0,1
 824 -204 824 -204 824 -146 c 2,2,-1
 824 -25 l 1,3,4
 737 -19 737 -19 655 -2.5 c 128,-1,5
 573 14 573 14 494 42 c 128,-1,6
 415 70 415 70 349.5 113.5 c 128,-1,7
 284 157 284 157 234 212 c 128,-1,8
 184 267 184 267 156.5 342 c 128,-1,9
 129 417 129 417 129 505 c 0,10,11
 129 610 129 610 169.5 697 c 128,-1,12
 210 784 210 784 276.5 842.5 c 128,-1,13
 343 901 343 901 434 943.5 c 128,-1,14
 525 986 525 986 622 1007 c 128,-1,15
 719 1028 719 1028 824 1035 c 1,16,-1
 824 1215 l 2,17,18
 824 1246 824 1246 840.5 1258.5 c 128,-1,19
 857 1271 857 1271 891 1271 c 2,20,-1
 926 1271 l 2,21,22
 960 1271 960 1271 976.5 1258 c 128,-1,23
 993 1245 993 1245 993 1214 c 2,24,-1
 993 1036 l 1,25,26
 1258 1020 1258 1020 1435 927 c 1,27,28
 1484 900 1484 900 1467 855 c 1,29,30
 1441 798 1441 798 1436 779 c 1,31,32
 1424 752 1424 752 1399.5 750 c 128,-1,33
 1375 748 1375 748 1355 760 c 1,34,35
 1186 838 1186 838 993 849 c 1,36,-1
 993 158 l 1,37,38
 1155 167 1155 167 1343 241 c 1,39,40
 1374 252 1374 252 1395.5 246 c 128,-1,41
 1417 240 1417 240 1424 220 c 0,42,43
 1427 211 1427 211 1435 185.5 c 128,-1,44
 1443 160 1443 160 1448 145 c 0,45,46
 1466 92 1466 92 1405 67 c 0,47,48
 1218 -12 1218 -12 993 -26 c 1,49,-1
 993 -147 l 2,50,51
 993 -178 993 -178 976.5 -191 c 128,-1,52
 960 -204 960 -204 926 -204 c 2,53,-1
 891 -204 l 2,0,1
824 167 m 1,54,-1
 824 842 l 1,55,56
 750 831 750 831 687.5 806.5 c 128,-1,57
 625 782 625 782 573.5 742 c 128,-1,58
 522 702 522 702 493 641.5 c 128,-1,59
 464 581 464 581 464 505 c 0,60,61
 463 366 463 366 563.5 279.5 c 128,-1,62
 664 193 664 193 824 167 c 1,54,-1
EndSplineSet
EndChar

StartChar: sterling
Encoding: 163 163 100
Width: 1880
GlyphClass: 2
Flags: W
LayerCount: 2
Fore
SplineSet
209 0 m 2,0,1
 146 0 146 0 146 66 c 2,2,-1
 146 125 l 2,3,4
 146 195 146 195 209 195 c 2,5,-1
 338 195 l 2,6,7
 359 195 359 195 364.5 205 c 128,-1,8
 370 215 370 215 370 249 c 2,9,-1
 370 616 l 2,10,11
 370 659 370 659 338 659 c 2,12,-1
 209 659 l 2,13,14
 146 659 146 659 146 725 c 2,15,-1
 146 777 l 2,16,17
 146 843 146 843 209 843 c 2,18,-1
 365 843 l 1,19,20
 372 995 372 995 415 1108.5 c 128,-1,21
 458 1222 458 1222 545.5 1306 c 128,-1,22
 633 1390 633 1390 777 1432.5 c 128,-1,23
 921 1475 921 1475 1121 1475 c 0,24,25
 1413 1475 1413 1475 1694 1393 c 1,26,27
 1747 1379 1747 1379 1747 1336 c 0,28,29
 1747 1328 1747 1328 1746 1323 c 2,30,-1
 1725 1222 l 2,31,32
 1719 1198 1719 1198 1709.5 1188 c 128,-1,33
 1700 1178 1700 1178 1681 1178 c 0,34,35
 1672 1178 1672 1178 1658 1181 c 0,36,37
 1656 1181 1656 1181 1589.5 1195.5 c 128,-1,38
 1523 1210 1523 1210 1458.5 1222 c 128,-1,39
 1394 1234 1394 1234 1306 1245.5 c 128,-1,40
 1218 1257 1218 1257 1155 1257 c 0,41,42
 934 1257 934 1257 841.5 1179 c 128,-1,43
 749 1101 749 1101 750 906 c 1,44,-1
 750 843 l 1,45,-1
 1161 843 l 2,46,47
 1224 843 1224 843 1224 777 c 2,48,-1
 1224 725 l 2,49,50
 1224 659 1224 659 1161 659 c 2,51,-1
 748 659 l 1,52,-1
 748 275 l 2,53,54
 748 221 748 221 761 208 c 128,-1,55
 774 195 774 195 836 195 c 2,56,-1
 1678 195 l 2,57,58
 1737 195 1737 195 1737 139 c 2,59,-1
 1737 45 l 2,60,61
 1737 0 1737 0 1678 0 c 2,62,-1
 209 0 l 2,0,1
EndSplineSet
EndChar

StartChar: currency
Encoding: 164 164 101
Width: 1326
GlyphClass: 2
Flags: W
LayerCount: 2
Fore
SplineSet
662 426 m 0,0,1
 490 426 490 426 355 515 c 1,2,-1
 324 484 l 2,3,4
 285 445 285 445 267 445 c 0,5,6
 253 445 253 445 242 457 c 2,7,-1
 210 489 l 2,8,9
 196 503 196 503 196 518 c 0,10,11
 196 537 196 537 233 574 c 2,12,-1
 258 599 l 1,13,14
 140 734 140 734 140 931 c 0,15,16
 140 1130 140 1130 260 1268 c 1,17,-1
 233 1295 l 2,18,19
 194 1334 194 1334 194 1352 c 0,20,21
 194 1365 194 1365 207 1377 c 2,22,-1
 239 1409 l 2,23,24
 253 1423 253 1423 268 1423 c 0,25,26
 287 1423 287 1423 324 1386 c 2,27,-1
 358 1352 l 1,28,29
 426 1396 426 1396 497 1418 c 128,-1,30
 568 1440 568 1440 662 1440 c 0,31,32
 832 1440 832 1440 968 1352 c 1,33,-1
 1001 1385 l 2,34,35
 1039 1423 1039 1423 1058 1423 c 0,36,37
 1072 1423 1072 1423 1086 1409 c 2,38,-1
 1119 1377 l 2,39,40
 1131 1364 1131 1364 1131 1352 c 0,41,42
 1131 1334 1131 1334 1092 1295 c 2,43,-1
 1065 1268 l 1,44,45
 1185 1130 1185 1130 1185 931 c 0,46,47
 1185 736 1185 736 1068 599 c 1,48,-1
 1092 575 l 2,49,50
 1130 537 1130 537 1130 518 c 0,51,52
 1130 504 1130 504 1116 490 c 2,53,-1
 1084 457 l 1,54,55
 1070 445 1070 445 1059 445 c 0,56,57
 1039 445 1039 445 1002 484 c 1,58,-1
 971 515 l 1,59,60
 902 470 902 470 830 448 c 128,-1,61
 758 426 758 426 662 426 c 0,0,1
662 548 m 128,-1,63
 743 548 743 548 809 571 c 128,-1,64
 875 594 875 594 918.5 631.5 c 128,-1,65
 962 669 962 669 991.5 719.5 c 128,-1,66
 1021 770 1021 770 1034 823 c 128,-1,67
 1047 876 1047 876 1047 931 c 0,68,69
 1047 1005 1047 1005 1025.5 1071 c 128,-1,70
 1004 1137 1004 1137 960 1194 c 128,-1,71
 916 1251 916 1251 839.5 1284.5 c 128,-1,72
 763 1318 763 1318 662 1318 c 0,73,74
 581 1318 581 1318 515 1295.5 c 128,-1,75
 449 1273 449 1273 406 1235.5 c 128,-1,76
 363 1198 363 1198 333.5 1147.5 c 128,-1,77
 304 1097 304 1097 291 1043 c 128,-1,78
 278 989 278 989 278 931 c 0,79,80
 278 876 278 876 291 823 c 128,-1,81
 304 770 304 770 333.5 719.5 c 128,-1,82
 363 669 363 669 406 631.5 c 128,-1,83
 449 594 449 594 515 571 c 128,-1,62
 581 548 581 548 662 548 c 128,-1,63
EndSplineSet
EndChar

StartChar: yen
Encoding: 165 165 102
Width: 1866
GlyphClass: 2
Flags: W
LayerCount: 2
Fore
SplineSet
816 0 m 2,0,1
 784 0 784 0 765 19 c 128,-1,2
 746 38 746 38 746 70 c 2,3,-1
 746 227 l 1,4,-1
 493 227 l 2,5,6
 463 227 463 227 454.5 240.5 c 128,-1,7
 446 254 446 254 446 290 c 2,8,-1
 446 321 l 2,9,10
 446 357 446 357 454.5 370.5 c 128,-1,11
 463 384 463 384 493 384 c 2,12,-1
 746 384 l 1,13,-1
 721 566 l 1,14,-1
 429 566 l 2,15,16
 399 566 399 566 390.5 579.5 c 128,-1,17
 382 593 382 593 382 629 c 2,18,-1
 382 660 l 2,19,20
 382 696 382 696 390.5 709.5 c 128,-1,21
 399 723 399 723 429 723 c 2,22,-1
 681 723 l 1,23,-1
 103 1373 l 1,24,25
 78 1397 78 1397 78 1414 c 0,26,27
 78 1438 78 1438 112 1438 c 2,28,-1
 392 1438 l 2,29,30
 462 1438 462 1438 522 1373 c 1,31,-1
 952 884 l 1,32,-1
 1373 1372 l 1,33,34
 1428 1438 1428 1438 1498 1438 c 2,35,-1
 1747 1438 l 2,36,37
 1783 1438 1783 1438 1783 1413 c 0,38,39
 1783 1392 1783 1392 1761 1373 c 1,40,-1
 1182 723 l 1,41,-1
 1430 723 l 2,42,43
 1460 723 1460 723 1468.5 709.5 c 128,-1,44
 1477 696 1477 696 1477 660 c 2,45,-1
 1477 629 l 2,46,47
 1477 593 1477 593 1468.5 579.5 c 128,-1,48
 1460 566 1460 566 1430 566 c 2,49,-1
 1145 566 l 1,50,-1
 1121 384 l 1,51,-1
 1398 384 l 2,52,53
 1428 384 1428 384 1436.5 370.5 c 128,-1,54
 1445 357 1445 357 1445 321 c 2,55,-1
 1445 290 l 2,56,57
 1445 254 1445 254 1436.5 240.5 c 128,-1,58
 1428 227 1428 227 1398 227 c 2,59,-1
 1121 227 l 1,60,-1
 1121 70 l 2,61,62
 1121 38 1121 38 1102 19 c 128,-1,63
 1083 0 1083 0 1051 0 c 2,64,-1
 816 0 l 2,0,1
EndSplineSet
EndChar

StartChar: brokenbar
Encoding: 166 166 103
Width: 546
GlyphClass: 2
Flags: W
LayerCount: 2
Fore
SplineSet
223 -150 m 2,0,1
 192 -150 192 -150 176 -128.5 c 128,-1,2
 160 -107 160 -107 160 -73 c 2,3,-1
 160 509 l 2,4,5
 160 543 160 543 176 564.5 c 128,-1,6
 192 586 192 586 223 586 c 2,7,-1
 324 586 l 2,8,9
 355 586 355 586 370.5 564.5 c 128,-1,10
 386 543 386 543 386 509 c 2,11,-1
 386 -73 l 2,12,13
 386 -107 386 -107 370.5 -128.5 c 128,-1,14
 355 -150 355 -150 324 -150 c 2,15,-1
 223 -150 l 2,0,1
223 819 m 2,16,17
 192 819 192 819 176 840.5 c 128,-1,18
 160 862 160 862 160 896 c 2,19,-1
 160 1478 l 2,20,21
 160 1512 160 1512 176 1533.5 c 128,-1,22
 192 1555 192 1555 223 1555 c 2,23,-1
 324 1555 l 2,24,25
 355 1555 355 1555 370.5 1533.5 c 128,-1,26
 386 1512 386 1512 386 1478 c 2,27,-1
 386 896 l 2,28,29
 386 862 386 862 370.5 840.5 c 128,-1,30
 355 819 355 819 324 819 c 2,31,-1
 223 819 l 2,16,17
EndSplineSet
EndChar

StartChar: section
Encoding: 167 167 104
Width: 1672
GlyphClass: 2
Flags: W
LayerCount: 2
Fore
SplineSet
839 -41 m 0,0,1
 449 -41 449 -41 202 60 c 0,2,3
 176 70 176 70 164.5 98.5 c 128,-1,4
 153 127 153 127 164 152 c 2,5,-1
 186 199 l 2,6,7
 200 230 200 230 227.5 242.5 c 128,-1,8
 255 255 255 255 285 244 c 0,9,10
 424 195 424 195 563 174 c 128,-1,11
 702 153 702 153 882 153 c 0,12,13
 1082 153 1082 153 1159.5 187.5 c 128,-1,14
 1237 222 1237 222 1237 296 c 0,15,16
 1237 331 1237 331 1224.5 350.5 c 128,-1,17
 1212 370 1212 370 1167 386.5 c 128,-1,18
 1122 403 1122 403 1039 412 c 128,-1,19
 956 421 956 421 811 427 c 0,20,21
 726 431 726 431 664 436 c 128,-1,22
 602 441 602 441 529.5 451 c 128,-1,23
 457 461 457 461 406 474.5 c 128,-1,24
 355 488 355 488 305 510 c 128,-1,25
 255 532 255 532 224.5 561 c 128,-1,26
 194 590 194 590 175 631.5 c 128,-1,27
 156 673 156 673 156 724 c 0,28,29
 156 788 156 788 190 844.5 c 128,-1,30
 224 901 224 901 282 943 c 1,31,32
 156 1013 156 1013 156 1146 c 0,33,34
 156 1209 156 1209 180.5 1260.5 c 128,-1,35
 205 1312 205 1312 244 1345.5 c 128,-1,36
 283 1379 283 1379 341 1404 c 128,-1,37
 399 1429 399 1429 454.5 1442.5 c 128,-1,38
 510 1456 510 1456 580 1464 c 128,-1,39
 650 1472 650 1472 701.5 1474 c 128,-1,40
 753 1476 753 1476 813 1476 c 0,41,42
 991 1476 991 1476 1123 1457 c 128,-1,43
 1255 1438 1255 1438 1377 1391 c 0,44,45
 1403 1380 1403 1380 1414 1355 c 128,-1,46
 1425 1330 1425 1330 1413 1306 c 1,47,-1
 1390 1254 l 2,48,49
 1378 1228 1378 1228 1346.5 1220.5 c 128,-1,50
 1315 1213 1315 1213 1286 1224 c 1,51,52
 1190 1255 1190 1255 1096.5 1270.5 c 128,-1,53
 1003 1286 1003 1286 859 1286 c 0,54,55
 639 1286 639 1286 542 1258.5 c 128,-1,56
 445 1231 445 1231 445 1169 c 0,57,58
 445 1110 445 1110 515.5 1093 c 128,-1,59
 586 1076 586 1076 878 1057 c 0,60,61
 1147 1039 1147 1039 1250 1016 c 0,62,63
 1436 975 1436 975 1493 869 c 0,64,65
 1524 811 1524 811 1524 730 c 0,66,67
 1524 621 1524 621 1428 521 c 1,68,69
 1524 450 1524 450 1524 308 c 0,70,71
 1524 130 1524 130 1360.5 44.5 c 128,-1,72
 1197 -41 1197 -41 839 -41 c 0,0,1
1232 598 m 1,73,74
 1272 688 1272 688 1272 718 c 0,75,76
 1272 763 1272 763 1235.5 787 c 128,-1,77
 1199 811 1199 811 1102 825.5 c 128,-1,78
 1005 840 1005 840 811 849 c 0,79,80
 595 858 595 858 471 886 c 1,81,82
 426 824 426 824 426 757 c 0,83,84
 426 728 426 728 438 712 c 128,-1,85
 450 696 450 696 497 681 c 128,-1,86
 544 666 544 666 632.5 656 c 128,-1,87
 721 646 721 646 878 635 c 0,88,89
 892 634 892 634 942 630.5 c 128,-1,90
 992 627 992 627 1009.5 625.5 c 128,-1,91
 1027 624 1027 624 1067 620.5 c 128,-1,92
 1107 617 1107 617 1129 614 c 128,-1,93
 1151 611 1151 611 1180 607 c 128,-1,94
 1209 603 1209 603 1232 598 c 1,73,74
EndSplineSet
EndChar

StartChar: dieresis
Encoding: 168 168 105
Width: 1209
GlyphClass: 2
Flags: W
LayerCount: 2
Fore
SplineSet
228 735 m 2,0,1
 196 735 196 735 173.5 757.5 c 128,-1,2
 151 780 151 780 151 812 c 2,3,-1
 151 920 l 2,4,5
 151 952 151 952 173.5 974.5 c 128,-1,6
 196 997 196 997 228 997 c 2,7,-1
 361 997 l 2,8,9
 393 997 393 997 415.5 974.5 c 128,-1,10
 438 952 438 952 438 920 c 2,11,-1
 438 812 l 2,12,13
 438 780 438 780 415.5 757.5 c 128,-1,14
 393 735 393 735 361 735 c 2,15,-1
 228 735 l 2,0,1
850 735 m 2,16,17
 818 735 818 735 795.5 757.5 c 128,-1,18
 773 780 773 780 773 812 c 2,19,-1
 773 920 l 2,20,21
 773 952 773 952 795.5 974.5 c 128,-1,22
 818 997 818 997 850 997 c 2,23,-1
 982 997 l 2,24,25
 1014 997 1014 997 1036.5 974.5 c 128,-1,26
 1059 952 1059 952 1059 920 c 2,27,-1
 1059 812 l 2,28,29
 1059 780 1059 780 1036.5 757.5 c 128,-1,30
 1014 735 1014 735 982 735 c 2,31,-1
 850 735 l 2,16,17
EndSplineSet
EndChar

StartChar: copyright
Encoding: 169 169 106
Width: 1901
GlyphClass: 2
Flags: W
LayerCount: 2
Fore
SplineSet
977 327 m 0,0,1
 885 327 885 327 804.5 350 c 128,-1,2
 724 373 724 373 657 419 c 128,-1,3
 590 465 590 465 551 544.5 c 128,-1,4
 512 624 512 624 512 728 c 0,5,6
 512 811 512 811 539.5 879 c 128,-1,7
 567 947 567 947 611.5 991.5 c 128,-1,8
 656 1036 656 1036 715.5 1066.5 c 128,-1,9
 775 1097 775 1097 836.5 1110.5 c 128,-1,10
 898 1124 898 1124 962 1124 c 0,11,12
 1145 1124 1145 1124 1278 1050 c 1,13,14
 1309 1035 1309 1035 1305 992 c 0,15,16
 1303 980 1303 980 1297 957 c 128,-1,17
 1291 934 1291 934 1290 930 c 0,18,19
 1283 908 1283 908 1267.5 897 c 128,-1,20
 1252 886 1252 886 1236 894 c 0,21,22
 1110 950 1110 950 997 950 c 0,23,24
 880 950 880 950 806.5 895 c 128,-1,25
 733 840 733 840 733 727 c 0,26,27
 733 608 733 608 807 552.5 c 128,-1,28
 881 497 881 497 998 497 c 0,29,30
 1114 497 1114 497 1245 547 c 1,31,32
 1260 554 1260 554 1273.5 544.5 c 128,-1,33
 1287 535 1287 535 1292 515 c 0,34,35
 1293 512 1293 512 1299 491 c 128,-1,36
 1305 470 1305 470 1307 459 c 1,37,38
 1314 439 1314 439 1306 418.5 c 128,-1,39
 1298 398 1298 398 1283 391 c 0,40,41
 1142 327 1142 327 977 327 c 0,0,1
953 96 m 128,-1,43
 1089 96 1089 96 1200 133 c 128,-1,44
 1311 170 1311 170 1384 230.5 c 128,-1,45
 1457 291 1457 291 1506.5 372.5 c 128,-1,46
 1556 454 1556 454 1577.5 539 c 128,-1,47
 1599 624 1599 624 1599 713 c 0,48,49
 1599 806 1599 806 1577.5 892.5 c 128,-1,50
 1556 979 1556 979 1506.5 1060 c 128,-1,51
 1457 1141 1457 1141 1384 1201.5 c 128,-1,52
 1311 1262 1311 1262 1200 1298 c 128,-1,53
 1089 1334 1089 1334 953 1334 c 0,54,55
 816 1334 816 1334 705 1298 c 128,-1,56
 594 1262 594 1262 521 1201.5 c 128,-1,57
 448 1141 448 1141 398.5 1060 c 128,-1,58
 349 979 349 979 327.5 892.5 c 128,-1,59
 306 806 306 806 306 713 c 0,60,61
 306 624 306 624 327.5 539 c 128,-1,62
 349 454 349 454 398.5 372.5 c 128,-1,63
 448 291 448 291 521 230.5 c 128,-1,64
 594 170 594 170 705.5 133 c 128,-1,42
 817 96 817 96 953 96 c 128,-1,43
950 -41 m 128,-1,66
 752 -41 752 -41 594 21 c 128,-1,67
 436 83 436 83 337 189 c 128,-1,68
 238 295 238 295 186 430 c 128,-1,69
 134 565 134 565 134 717 c 128,-1,70
 134 869 134 869 186 1004 c 128,-1,71
 238 1139 238 1139 337 1245 c 128,-1,72
 436 1351 436 1351 594 1413 c 128,-1,73
 752 1475 752 1475 950 1475 c 128,-1,74
 1148 1475 1148 1475 1306 1413 c 128,-1,75
 1464 1351 1464 1351 1563 1245 c 128,-1,76
 1662 1139 1662 1139 1714 1004 c 128,-1,77
 1766 869 1766 869 1766 717 c 128,-1,78
 1766 565 1766 565 1714 430 c 128,-1,79
 1662 295 1662 295 1563 189 c 128,-1,80
 1464 83 1464 83 1306 21 c 128,-1,65
 1148 -41 1148 -41 950 -41 c 128,-1,66
EndSplineSet
EndChar

StartChar: ordfeminine
Encoding: 170 170 107
Width: 1871
GlyphClass: 2
Flags: W
LayerCount: 2
Fore
SplineSet
522 531 m 0,0,1
 277 531 277 531 144.5 594 c 128,-1,2
 12 657 12 657 10 772 c 0,3,4
 9 838 9 838 51.5 891 c 128,-1,5
 94 944 94 944 163.5 976.5 c 128,-1,6
 233 1009 233 1009 322.5 1034 c 128,-1,7
 412 1059 412 1059 505.5 1071 c 128,-1,8
 599 1083 599 1083 688.5 1091 c 128,-1,9
 778 1099 778 1099 848 1102 c 128,-1,10
 918 1105 918 1105 961 1109 c 128,-1,11
 1004 1113 1004 1113 1004 1118 c 2,12,-1
 1004 1131 l 2,13,14
 1004 1180 1004 1180 989 1214 c 128,-1,15
 974 1248 974 1248 938 1274.5 c 128,-1,16
 902 1301 902 1301 836 1313.5 c 128,-1,17
 770 1326 770 1326 672 1326 c 0,18,19
 621 1326 621 1326 560.5 1321 c 128,-1,20
 500 1316 500 1316 420.5 1296 c 128,-1,21
 341 1276 341 1276 307 1243 c 0,22,23
 268 1204 268 1204 246 1204 c 1,24,-1
 230 1206 l 1,25,-1
 69 1225 l 2,26,27
 58 1226 58 1226 49.5 1236.5 c 128,-1,28
 41 1247 41 1247 41 1258 c 0,29,30
 41 1278 41 1278 50 1296 c 1,31,32
 105 1388 105 1388 250.5 1430.5 c 128,-1,33
 396 1473 396 1473 669 1473 c 0,34,35
 995 1473 995 1473 1146.5 1380 c 128,-1,36
 1298 1287 1298 1287 1298 1074 c 2,37,-1
 1298 640 l 2,38,39
 1298 568 1298 568 1251 568 c 2,40,-1
 1202 568 l 2,41,42
 1155 568 1155 568 1135 655 c 0,43,44
 1125 695 1125 695 1105 763 c 1,45,46
 1100 789 1100 789 1095 789 c 0,47,48
 1093 789 1093 789 1091 785 c 128,-1,49
 1089 781 1089 781 1086.5 775 c 128,-1,50
 1084 769 1084 769 1083 767 c 0,51,52
 1026 661 1026 661 881.5 596 c 128,-1,53
 737 531 737 531 522 531 c 0,0,1
552 677 m 0,54,55
 679 677 679 677 780 707 c 128,-1,56
 881 737 881 737 944.5 803.5 c 128,-1,57
 1008 870 1008 870 1008 964 c 0,58,59
 1008 975 1008 975 1006 979.5 c 128,-1,60
 1004 984 1004 984 994 984 c 0,61,62
 990 984 990 984 934 981.5 c 128,-1,63
 878 979 878 979 875 978 c 0,64,65
 553 952 553 952 425 909.5 c 128,-1,66
 297 867 297 867 299 789 c 0,67,68
 301 733 301 733 358.5 705 c 128,-1,69
 416 677 416 677 552 677 c 0,54,55
EndSplineSet
EndChar

StartChar: guillemotleft
Encoding: 171 171 108
Width: 1384
GlyphClass: 2
Flags: W
LayerCount: 2
Fore
SplineSet
658 169 m 0,0,1
 646 169 646 169 626 179 c 1,2,-1
 198 488 l 2,3,4
 160 516 160 516 143 538.5 c 128,-1,5
 126 561 126 561 126 596 c 2,6,-1
 126 688 l 2,7,8
 126 723 126 723 143.5 747.5 c 128,-1,9
 161 772 161 772 199 799 c 2,10,-1
 626 1097 l 1,11,12
 644 1107 644 1107 658 1107 c 0,13,14
 678 1107 678 1107 691 1093.5 c 128,-1,15
 704 1080 704 1080 704 1063 c 2,16,-1
 704 979 l 2,17,18
 704 945 704 945 690.5 925 c 128,-1,19
 677 905 677 905 643 878 c 1,20,-1
 346 665 l 1,21,22
 335 655 335 655 335 645 c 0,23,24
 335 633 335 633 346 623 c 1,25,-1
 643 410 l 1,26,27
 677 383 677 383 690.5 362.5 c 128,-1,28
 704 342 704 342 704 308 c 2,29,-1
 704 213 l 2,30,31
 704 196 704 196 691 182.5 c 128,-1,32
 678 169 678 169 658 169 c 0,0,1
1193 169 m 0,33,34
 1181 169 1181 169 1161 179 c 1,35,-1
 733 488 l 2,36,37
 695 516 695 516 678 538.5 c 128,-1,38
 661 561 661 561 661 596 c 2,39,-1
 661 688 l 2,40,41
 661 723 661 723 678.5 747.5 c 128,-1,42
 696 772 696 772 734 799 c 2,43,-1
 1160 1097 l 1,44,45
 1180 1107 1180 1107 1192 1107 c 0,46,47
 1211 1107 1211 1107 1224.5 1093.5 c 128,-1,48
 1238 1080 1238 1080 1238 1063 c 2,49,-1
 1238 979 l 2,50,51
 1238 945 1238 945 1224.5 925 c 128,-1,52
 1211 905 1211 905 1177 878 c 1,53,-1
 881 665 l 1,54,55
 870 655 870 655 870 645 c 0,56,57
 870 633 870 633 881 623 c 1,58,-1
 1177 410 l 1,59,60
 1211 383 1211 383 1224.5 362.5 c 128,-1,61
 1238 342 1238 342 1238 308 c 2,62,-1
 1238 213 l 2,63,64
 1238 196 1238 196 1224.5 182.5 c 128,-1,65
 1211 169 1211 169 1193 169 c 0,33,34
EndSplineSet
EndChar

StartChar: logicalnot
Encoding: 172 172 109
Width: 1270
GlyphClass: 2
Flags: W
LayerCount: 2
Fore
SplineSet
941 200 m 2,0,1
 910 200 910 200 894.5 221.5 c 128,-1,2
 879 243 879 243 879 277 c 2,3,-1
 879 540 l 2,4,5
 879 555 879 555 868 566 c 128,-1,6
 857 577 857 577 842 577 c 2,7,-1
 189 577 l 2,8,9
 126 577 126 577 126 640 c 2,10,-1
 126 729 l 2,11,12
 126 792 126 792 189 792 c 2,13,-1
 1054 792 l 2,14,15
 1087 792 1087 792 1109 773 c 128,-1,16
 1131 754 1131 754 1131 722 c 2,17,-1
 1131 277 l 2,18,19
 1131 243 1131 243 1115 221.5 c 128,-1,20
 1099 200 1099 200 1068 200 c 2,21,-1
 941 200 l 2,0,1
EndSplineSet
EndChar

StartChar: uni00AD
Encoding: 173 173 110
Width: 1024
GlyphClass: 2
Flags: W
LayerCount: 2
Fore
SplineSet
127 449 m 1,0,-1
 127 709 l 1,1,-1
 896 709 l 1,2,-1
 896 449 l 1,3,-1
 127 449 l 1,0,-1
EndSplineSet
EndChar

StartChar: registered
Encoding: 174 174 111
Width: 1901
GlyphClass: 2
Flags: W
LayerCount: 2
Fore
SplineSet
587 387 m 2,0,1
 574 387 574 387 564.5 397.5 c 128,-1,2
 555 408 555 408 555 422 c 2,3,-1
 555 1014 l 2,4,5
 555 1029 555 1029 564 1039 c 128,-1,6
 573 1049 573 1049 587 1049 c 2,7,-1
 1006 1049 l 2,8,9
 1064 1049 1064 1049 1094.5 1048.5 c 128,-1,10
 1125 1048 1125 1048 1172 1044 c 128,-1,11
 1219 1040 1219 1040 1244 1033 c 128,-1,12
 1269 1026 1269 1026 1300 1011.5 c 128,-1,13
 1331 997 1331 997 1346 976.5 c 128,-1,14
 1361 956 1361 956 1372 925 c 128,-1,15
 1383 894 1383 894 1383 853 c 0,16,17
 1383 784 1383 784 1342 743.5 c 128,-1,18
 1301 703 1301 703 1236 692 c 0,19,20
 1235 692 1235 692 1235 690 c 128,-1,21
 1235 688 1235 688 1236 688 c 0,22,23
 1301 674 1301 674 1331 620.5 c 128,-1,24
 1361 567 1361 567 1371 472 c 0,25,26
 1372 461 1372 461 1374 446.5 c 128,-1,27
 1376 432 1376 432 1377.5 422.5 c 128,-1,28
 1379 413 1379 413 1379 409 c 0,29,30
 1379 387 1379 387 1362 387 c 2,31,-1
 1214 387 l 2,32,33
 1194 387 1194 387 1185.5 393.5 c 128,-1,34
 1177 400 1177 400 1173 418 c 0,35,36
 1171 428 1171 428 1165.5 461.5 c 128,-1,37
 1160 495 1160 495 1156 516 c 128,-1,38
 1152 537 1152 537 1143 563.5 c 128,-1,39
 1134 590 1134 590 1124 605 c 0,40,41
 1110 628 1110 628 1094.5 633 c 128,-1,42
 1079 638 1079 638 1034 638 c 2,43,-1
 781 638 l 2,44,45
 775 638 775 638 770 632.5 c 128,-1,46
 765 627 765 627 765 620 c 2,47,-1
 765 422 l 2,48,49
 765 408 765 408 755.5 397.5 c 128,-1,50
 746 387 746 387 733 387 c 2,51,-1
 587 387 l 2,0,1
781 754 m 2,52,-1
 1097 754 l 2,53,54
 1136 754 1136 754 1156 776 c 128,-1,55
 1176 798 1176 798 1176 834 c 0,56,57
 1176 857 1176 857 1168 873 c 128,-1,58
 1160 889 1160 889 1149.5 897.5 c 128,-1,59
 1139 906 1139 906 1117 910 c 128,-1,60
 1095 914 1095 914 1078 915 c 128,-1,61
 1061 916 1061 916 1030 916 c 2,62,-1
 781 916 l 2,63,64
 775 916 775 916 770 911 c 128,-1,65
 765 906 765 906 765 899 c 2,66,-1
 765 771 l 2,67,68
 765 764 765 764 770 759 c 128,-1,69
 775 754 775 754 781 754 c 2,52,-1
953 96 m 128,-1,71
 1089 96 1089 96 1200 133 c 128,-1,72
 1311 170 1311 170 1384 230.5 c 128,-1,73
 1457 291 1457 291 1506.5 372.5 c 128,-1,74
 1556 454 1556 454 1577.5 539 c 128,-1,75
 1599 624 1599 624 1599 713 c 0,76,77
 1599 806 1599 806 1577.5 892.5 c 128,-1,78
 1556 979 1556 979 1506.5 1060 c 128,-1,79
 1457 1141 1457 1141 1384 1201.5 c 128,-1,80
 1311 1262 1311 1262 1200 1298 c 128,-1,81
 1089 1334 1089 1334 953 1334 c 0,82,83
 816 1334 816 1334 705 1298 c 128,-1,84
 594 1262 594 1262 521 1201.5 c 128,-1,85
 448 1141 448 1141 398.5 1060 c 128,-1,86
 349 979 349 979 327.5 892.5 c 128,-1,87
 306 806 306 806 306 713 c 0,88,89
 306 624 306 624 327.5 539 c 128,-1,90
 349 454 349 454 398.5 372.5 c 128,-1,91
 448 291 448 291 521 230.5 c 128,-1,92
 594 170 594 170 705.5 133 c 128,-1,70
 817 96 817 96 953 96 c 128,-1,71
950 -41 m 128,-1,94
 752 -41 752 -41 594 21 c 128,-1,95
 436 83 436 83 337 189 c 128,-1,96
 238 295 238 295 186 430 c 128,-1,97
 134 565 134 565 134 717 c 128,-1,98
 134 869 134 869 186 1004 c 128,-1,99
 238 1139 238 1139 337 1245 c 128,-1,100
 436 1351 436 1351 594 1413 c 128,-1,101
 752 1475 752 1475 950 1475 c 128,-1,102
 1148 1475 1148 1475 1306 1413 c 128,-1,103
 1464 1351 1464 1351 1563 1245 c 128,-1,104
 1662 1139 1662 1139 1714 1004 c 128,-1,105
 1766 869 1766 869 1766 717 c 128,-1,106
 1766 565 1766 565 1714 430 c 128,-1,107
 1662 295 1662 295 1563 189 c 128,-1,108
 1464 83 1464 83 1306 21 c 128,-1,93
 1148 -41 1148 -41 950 -41 c 128,-1,94
EndSplineSet
EndChar

StartChar: macron
Encoding: 175 175 112
Width: 1079
GlyphClass: 2
Flags: W
LayerCount: 2
Fore
SplineSet
203 1057 m 2,0,1
 141 1057 141 1057 141 1127 c 2,2,-1
 141 1188 l 2,3,4
 141 1258 141 1258 203 1258 c 2,5,-1
 878 1258 l 2,6,7
 941 1258 941 1258 941 1188 c 2,8,-1
 941 1127 l 2,9,10
 941 1057 941 1057 878 1057 c 2,11,-1
 203 1057 l 2,0,1
EndSplineSet
EndChar

StartChar: degree
Encoding: 176 176 113
Width: 1333
GlyphClass: 2
Flags: W
LayerCount: 2
Fore
SplineSet
667 261 m 128,-1,1
 748 261 748 261 814 284 c 128,-1,2
 880 307 880 307 923.5 344.5 c 128,-1,3
 967 382 967 382 996.5 432.5 c 128,-1,4
 1026 483 1026 483 1039 536 c 128,-1,5
 1052 589 1052 589 1052 644 c 0,6,7
 1052 718 1052 718 1030.5 784 c 128,-1,8
 1009 850 1009 850 965 907 c 128,-1,9
 921 964 921 964 844.5 997.5 c 128,-1,10
 768 1031 768 1031 667 1031 c 0,11,12
 586 1031 586 1031 520 1008.5 c 128,-1,13
 454 986 454 986 411 948.5 c 128,-1,14
 368 911 368 911 338.5 860.5 c 128,-1,15
 309 810 309 810 296 756 c 128,-1,16
 283 702 283 702 283 644 c 0,17,18
 283 589 283 589 296 536 c 128,-1,19
 309 483 309 483 338.5 432.5 c 128,-1,20
 368 382 368 382 411 344.5 c 128,-1,21
 454 307 454 307 520 284 c 128,-1,0
 586 261 586 261 667 261 c 128,-1,1
666 129 m 128,-1,23
 537 129 537 129 433.5 171 c 128,-1,24
 330 213 330 213 265.5 285 c 128,-1,25
 201 357 201 357 166.5 449.5 c 128,-1,26
 132 542 132 542 132 646 c 0,27,28
 132 729 132 729 153 805.5 c 128,-1,29
 174 882 174 882 218 947.5 c 128,-1,30
 262 1013 262 1013 324.5 1061.5 c 128,-1,31
 387 1110 387 1110 474.5 1137.5 c 128,-1,32
 562 1165 562 1165 666 1165 c 0,33,34
 795 1165 795 1165 898.5 1123 c 128,-1,35
 1002 1081 1002 1081 1067 1008.5 c 128,-1,36
 1132 936 1132 936 1166.5 843.5 c 128,-1,37
 1201 751 1201 751 1201 646 c 0,38,39
 1201 542 1201 542 1166.5 449.5 c 128,-1,40
 1132 357 1132 357 1067 285 c 128,-1,41
 1002 213 1002 213 898.5 171 c 128,-1,22
 795 129 795 129 666 129 c 128,-1,23
EndSplineSet
EndChar

StartChar: plusminus
Encoding: 177 177 114
Width: 1289
GlyphClass: 2
Flags: W
LayerCount: 2
Fore
SplineSet
568 203 m 2,0,1
 506 203 506 203 506 273 c 2,2,-1
 506 578 l 2,3,4
 506 594 506 594 498 604.5 c 128,-1,5
 490 615 490 615 476 615 c 2,6,-1
 192 615 l 2,7,8
 129 615 129 615 129 678 c 2,9,-1
 129 780 l 2,10,11
 129 843 129 843 192 843 c 2,12,-1
 476 843 l 2,13,14
 490 843 490 843 498 853.5 c 128,-1,15
 506 864 506 864 506 880 c 2,16,-1
 506 1192 l 2,17,18
 506 1262 506 1262 568 1262 c 2,19,-1
 672 1262 l 2,20,21
 735 1262 735 1262 735 1192 c 2,22,-1
 735 880 l 2,23,24
 735 843 735 843 764 843 c 2,25,-1
 1048 843 l 2,26,27
 1110 843 1110 843 1110 780 c 2,28,-1
 1110 678 l 2,29,30
 1110 615 1110 615 1048 615 c 2,31,-1
 764 615 l 2,32,33
 735 615 735 615 735 578 c 2,34,-1
 735 273 l 2,35,36
 735 203 735 203 672 203 c 2,37,-1
 568 203 l 2,0,1
172 -72 m 2,38,39
 140 -72 140 -72 121 -53 c 128,-1,40
 102 -34 102 -34 102 -2 c 2,41,-1
 102 78 l 2,42,43
 102 110 102 110 121 129 c 128,-1,44
 140 148 140 148 172 148 c 2,45,-1
 1061 148 l 2,46,47
 1093 148 1093 148 1111.5 129 c 128,-1,48
 1130 110 1130 110 1130 78 c 2,49,-1
 1130 -2 l 2,50,51
 1130 -34 1130 -34 1111.5 -53 c 128,-1,52
 1093 -72 1093 -72 1061 -72 c 2,53,-1
 172 -72 l 2,38,39
EndSplineSet
EndChar

StartChar: acute
Encoding: 180 180 117
Width: 1745
GlyphClass: 2
Flags: W
LayerCount: 2
Fore
SplineSet
983 1168 m 2,0,1
 950 1168 950 1168 965 1235 c 1,2,-1
 1028 1550 l 2,3,4
 1034 1582 1034 1582 1048 1593.5 c 128,-1,5
 1062 1605 1062 1605 1095 1605 c 2,6,-1
 1291 1605 l 2,7,8
 1319 1605 1319 1605 1319 1577 c 0,9,10
 1319 1561 1319 1561 1307 1540 c 1,11,-1
 1095 1207 l 2,12,13
 1079 1183 1079 1183 1069 1175.5 c 128,-1,14
 1059 1168 1059 1168 1045 1168 c 2,15,-1
 983 1168 l 2,0,1
EndSplineSet
EndChar

StartChar: uni00B5
Encoding: 181 181 118
Width: 1709
GlyphClass: 2
Flags: W
LayerCount: 2
Fore
SplineSet
223 -299 m 2,0,1
 191 -299 191 -299 172 -280 c 128,-1,2
 153 -261 153 -261 153 -229 c 2,3,-1
 153 940 l 2,4,5
 153 972 153 972 171.5 991 c 128,-1,6
 190 1010 190 1010 222 1010 c 2,7,-1
 423 1010 l 2,8,9
 455 1010 455 1010 474 991 c 128,-1,10
 493 972 493 972 493 940 c 2,11,-1
 493 435 l 2,12,13
 493 293 493 293 579.5 223.5 c 128,-1,14
 666 154 666 154 814 154 c 0,15,16
 910 154 910 154 1006.5 196 c 128,-1,17
 1103 238 1103 238 1164.5 304 c 128,-1,18
 1226 370 1226 370 1226 435 c 2,19,-1
 1226 940 l 2,20,21
 1226 972 1226 972 1244 991 c 128,-1,22
 1262 1010 1262 1010 1294 1010 c 2,23,-1
 1488 1010 l 2,24,25
 1520 1010 1520 1010 1539 991 c 128,-1,26
 1558 972 1558 972 1558 940 c 2,27,-1
 1558 77 l 2,28,29
 1558 43 1558 43 1542 21.5 c 128,-1,30
 1526 0 1526 0 1495 0 c 2,31,-1
 1451 0 l 2,32,33
 1380 0 1380 0 1359 64 c 1,34,-1
 1315 188 l 1,35,36
 1307 201 1307 201 1299 201 c 0,37,38
 1290 201 1290 201 1278 187 c 0,39,40
 1184 71 1184 71 1042 13 c 128,-1,41
 900 -45 900 -45 738 -45 c 0,42,43
 656 -45 656 -45 582 -27 c 128,-1,44
 508 -9 508 -9 468 27 c 1,45,-1
 468 -229 l 2,46,47
 468 -299 468 -299 404 -299 c 2,48,-1
 223 -299 l 2,0,1
EndSplineSet
EndChar

StartChar: paragraph
Encoding: 182 182 119
Width: 1423
GlyphClass: 2
Flags: W
LayerCount: 2
Fore
SplineSet
680 -1 m 2,0,1
 649 -1 649 -1 633.5 20.5 c 128,-1,2
 618 42 618 42 618 76 c 2,3,-1
 618 730 l 1,4,-1
 591 730 l 2,5,6
 122 730 122 730 122 1091 c 0,7,8
 122 1273 122 1273 263.5 1355.5 c 128,-1,9
 405 1438 405 1438 692 1438 c 0,10,11
 990 1438 990 1438 1195 1412 c 0,12,13
 1227 1407 1227 1407 1245.5 1386.5 c 128,-1,14
 1264 1366 1264 1366 1264 1334 c 2,15,-1
 1264 76 l 2,16,17
 1264 42 1264 42 1248 20.5 c 128,-1,18
 1232 -1 1232 -1 1201 -1 c 2,19,-1
 1099 -1 l 2,20,21
 1068 -1 1068 -1 1052.5 20.5 c 128,-1,22
 1037 42 1037 42 1037 76 c 2,23,-1
 1037 709 l 2,24,25
 1037 718 1037 718 1031.5 724 c 128,-1,26
 1026 730 1026 730 1018 730 c 2,27,-1
 845 730 l 1,28,-1
 845 76 l 2,29,30
 845 42 845 42 829 20.5 c 128,-1,31
 813 -1 813 -1 782 -1 c 2,32,-1
 680 -1 l 2,0,1
EndSplineSet
EndChar

StartChar: periodcentered
Encoding: 183 183 120
Width: 571
GlyphClass: 2
Flags: W
LayerCount: 2
Fore
SplineSet
205 687 m 2,0,1
 173 687 173 687 150.5 709.5 c 128,-1,2
 128 732 128 732 128 764 c 2,3,-1
 128 924 l 2,4,5
 128 956 128 956 150.5 978.5 c 128,-1,6
 173 1001 173 1001 205 1001 c 2,7,-1
 366 1001 l 2,8,9
 398 1001 398 1001 420.5 978.5 c 128,-1,10
 443 956 443 956 443 924 c 2,11,-1
 443 764 l 2,12,13
 443 732 443 732 420.5 709.5 c 128,-1,14
 398 687 398 687 366 687 c 2,15,-1
 205 687 l 2,0,1
EndSplineSet
EndChar

StartChar: cedilla
Encoding: 184 184 121
Width: 716
GlyphClass: 2
Flags: W
LayerCount: 2
Fore
SplineSet
403 -580 m 0,0,1
 315 -580 315 -580 255 -530.5 c 128,-1,2
 195 -481 195 -481 195 -402 c 0,3,4
 195 -374 195 -374 201 -346 c 0,5,6
 204 -332 204 -332 217.5 -321.5 c 128,-1,7
 231 -311 231 -311 245 -311 c 2,8,-1
 312 -311 l 2,9,10
 328 -311 328 -311 336.5 -321.5 c 128,-1,11
 345 -332 345 -332 343 -347 c 0,12,13
 338 -377 338 -377 338 -395 c 0,14,15
 338 -434 338 -434 356 -460 c 128,-1,16
 374 -486 374 -486 410 -486 c 0,17,18
 447 -486 447 -486 465 -453.5 c 128,-1,19
 483 -421 483 -421 483 -345 c 0,20,21
 483 -285 483 -285 460.5 -238.5 c 128,-1,22
 438 -192 438 -192 402 -192 c 2,23,-1
 363 -192 l 1,24,25
 347 -193 347 -193 347 -182 c 2,26,-1
 347 -111 l 2,27,28
 347 -94 347 -94 363 -94 c 2,29,-1
 447 -94 l 2,30,31
 525 -94 525 -94 578 -161 c 128,-1,32
 631 -228 631 -228 631 -315 c 0,33,34
 631 -447 631 -447 572 -513.5 c 128,-1,35
 513 -580 513 -580 403 -580 c 0,0,1
EndSplineSet
EndChar

StartChar: ordmasculine
Encoding: 186 186 123
Width: 1875
GlyphClass: 2
Flags: W
LayerCount: 2
Fore
SplineSet
649 704 m 0,0,1
 806 704 806 704 905.5 782.5 c 128,-1,2
 1005 861 1005 861 1005 1008 c 0,3,4
 1005 1108 1005 1108 955.5 1178.5 c 128,-1,5
 906 1249 906 1249 827.5 1281 c 128,-1,6
 749 1313 749 1313 649 1313 c 128,-1,7
 549 1313 549 1313 469.5 1281 c 128,-1,8
 390 1249 390 1249 340.5 1178.5 c 128,-1,9
 291 1108 291 1108 291 1008 c 0,10,11
 290 862 290 862 390 783 c 128,-1,12
 490 704 490 704 649 704 c 0,0,1
650 544 m 0,13,14
 561 544 561 544 477 556.5 c 128,-1,15
 393 569 393 569 306 602 c 128,-1,16
 219 635 219 635 154.5 686 c 128,-1,17
 90 737 90 737 49 820 c 128,-1,18
 8 903 8 903 8 1008 c 0,19,20
 8 1115 8 1115 48 1198 c 128,-1,21
 88 1281 88 1281 151 1332 c 128,-1,22
 214 1383 214 1383 301 1415.5 c 128,-1,23
 388 1448 388 1448 472.5 1460.5 c 128,-1,24
 557 1473 557 1473 649 1473 c 0,25,26
 740 1473 740 1473 824 1460.5 c 128,-1,27
 908 1448 908 1448 994.5 1415.5 c 128,-1,28
 1081 1383 1081 1383 1144 1332 c 128,-1,29
 1207 1281 1207 1281 1247 1198 c 128,-1,30
 1287 1115 1287 1115 1287 1008 c 0,31,32
 1287 903 1287 903 1246 820 c 128,-1,33
 1205 737 1205 737 1141 686.5 c 128,-1,34
 1077 636 1077 636 990.5 602.5 c 128,-1,35
 904 569 904 569 820.5 556.5 c 128,-1,36
 737 544 737 544 650 544 c 0,13,14
EndSplineSet
EndChar

StartChar: guillemotright
Encoding: 187 187 124
Width: 1389
GlyphClass: 2
Flags: W
LayerCount: 2
Fore
SplineSet
192 169 m 0,0,1
 172 169 172 169 159 182.5 c 128,-1,2
 146 196 146 196 146 213 c 2,3,-1
 146 296 l 2,4,5
 146 330 146 330 159.5 350.5 c 128,-1,6
 173 371 173 371 207 398 c 1,7,-1
 504 610 l 1,8,9
 515 620 515 620 515 631 c 0,10,11
 515 643 515 643 504 652 c 2,12,-1
 207 866 l 1,13,14
 173 893 173 893 159.5 913.5 c 128,-1,15
 146 934 146 934 146 968 c 2,16,-1
 146 1063 l 2,17,18
 146 1080 146 1080 159 1093.5 c 128,-1,19
 172 1107 172 1107 192 1107 c 0,20,21
 206 1107 206 1107 223 1096 c 1,22,-1
 651 788 l 2,23,24
 689 760 689 760 706 737.5 c 128,-1,25
 723 715 723 715 723 680 c 2,26,-1
 723 588 l 2,27,28
 723 553 723 553 705.5 528 c 128,-1,29
 688 503 688 503 651 476 c 1,30,-1
 224 179 l 1,31,32
 204 169 204 169 192 169 c 0,0,1
732 169 m 0,33,34
 712 169 712 169 699 182.5 c 128,-1,35
 686 196 686 196 686 213 c 2,36,-1
 686 296 l 2,37,38
 686 330 686 330 700 350.5 c 128,-1,39
 714 371 714 371 748 398 c 1,40,-1
 1043 610 l 1,41,42
 1055 620 1055 620 1055 631 c 0,43,44
 1055 643 1055 643 1043 652 c 2,45,-1
 748 866 l 1,46,47
 714 893 714 893 700 913.5 c 128,-1,48
 686 934 686 934 686 968 c 2,49,-1
 686 1063 l 2,50,51
 686 1080 686 1080 699 1093.5 c 128,-1,52
 712 1107 712 1107 731 1107 c 0,53,54
 744 1107 744 1107 764 1096 c 1,55,-1
 1191 788 l 2,56,57
 1229 760 1229 760 1246 737.5 c 128,-1,58
 1263 715 1263 715 1263 680 c 2,59,-1
 1263 588 l 2,60,61
 1263 553 1263 553 1245.5 528 c 128,-1,62
 1228 503 1228 503 1190 476 c 2,63,-1
 764 179 l 1,64,65
 744 169 744 169 732 169 c 0,33,34
EndSplineSet
EndChar

StartChar: onequarter
Encoding: 188 188 125
Width: 2665
GlyphClass: 2
Flags: W
LayerCount: 2
Fore
SplineSet
610 -203 m 1,0,1
 588 -201 588 -201 583 -190.5 c 128,-1,2
 578 -180 578 -180 582 -170 c 2,3,-1
 1463 1597 l 2,4,5
 1478 1628 1478 1628 1498 1637.5 c 128,-1,6
 1518 1647 1518 1647 1550 1647 c 2,7,-1
 1653 1647 l 2,8,9
 1712 1647 1712 1647 1679 1573 c 1,10,-1
 813 -167 l 2,11,12
 795 -203 795 -203 750 -203 c 2,13,-1
 610 -203 l 1,0,1
369 434 m 2,14,15
 346 434 346 434 333 447 c 128,-1,16
 320 460 320 460 320 483 c 2,17,-1
 320 1227 l 2,18,19
 320 1238 320 1238 312 1245.5 c 128,-1,20
 304 1253 304 1253 294 1253 c 1,21,-1
 117 1234 l 1,22,23
 94 1234 94 1234 81 1247 c 128,-1,24
 68 1260 68 1260 68 1283 c 2,25,-1
 68 1348 l 2,26,27
 68 1370 68 1370 81 1383.5 c 128,-1,28
 94 1397 94 1397 117 1397 c 1,29,-1
 539 1439 l 1,30,31
 561 1439 561 1439 574 1426 c 128,-1,32
 587 1413 587 1413 587 1390 c 2,33,-1
 587 483 l 2,34,35
 587 460 587 460 574 447 c 128,-1,36
 561 434 561 434 539 434 c 2,37,-1
 369 434 l 2,14,15
2220 -38 m 2,38,39
 2198 -38 2198 -38 2185 -25 c 128,-1,40
 2172 -12 2172 -12 2172 10 c 2,41,-1
 2172 170 l 1,42,-1
 1544 169 l 2,43,44
 1523 169 1523 169 1508 180 c 128,-1,45
 1493 191 1493 191 1493 208 c 0,46,47
 1493 215 1493 215 1495 219 c 2,48,-1
 1720 957 l 2,49,50
 1728 982 1728 982 1738 994.5 c 128,-1,51
 1748 1007 1748 1007 1769 1007 c 2,52,-1
 1923 1007 l 2,53,54
 1944 1007 1944 1007 1959 996 c 128,-1,55
 1974 985 1974 985 1974 967 c 0,56,57
 1974 965 1974 965 1972 957 c 2,58,-1
 1804 359 l 2,59,60
 1803 358 1803 358 1803 355 c 0,61,62
 1803 347 1803 347 1809.5 341.5 c 128,-1,63
 1816 336 1816 336 1825 336 c 2,64,-1
 2172 336 l 1,65,-1
 2172 958 l 2,66,67
 2172 981 2172 981 2185 994 c 128,-1,68
 2198 1007 2198 1007 2220 1007 c 2,69,-1
 2344 1007 l 2,70,71
 2366 1007 2366 1007 2379.5 993.5 c 128,-1,72
 2393 980 2393 980 2393 958 c 2,73,-1
 2393 336 l 1,74,-1
 2549 336 l 2,75,76
 2572 336 2572 336 2585 323 c 128,-1,77
 2598 310 2598 310 2598 287 c 2,78,-1
 2598 220 l 2,79,80
 2598 198 2598 198 2585 184.5 c 128,-1,81
 2572 171 2572 171 2549 171 c 2,82,-1
 2393 171 l 1,83,-1
 2393 12 l 2,84,85
 2393 -10 2393 -10 2379.5 -23.5 c 128,-1,86
 2366 -37 2366 -37 2344 -37 c 2,87,-1
 2220 -38 l 2,38,39
EndSplineSet
EndChar

StartChar: onehalf
Encoding: 189 189 126
Width: 3032
GlyphClass: 2
Flags: W
LayerCount: 2
Fore
SplineSet
1770 0 m 2,0,1
 1738 0 1738 0 1720 17 c 128,-1,2
 1702 34 1702 34 1702 64 c 0,3,4
 1702 67 1702 67 1702.5 75.5 c 128,-1,5
 1703 84 1703 84 1704.5 94 c 128,-1,6
 1706 104 1706 104 1706 106 c 0,7,8
 1717 171 1717 171 1739.5 225.5 c 128,-1,9
 1762 280 1762 280 1788 320.5 c 128,-1,10
 1814 361 1814 361 1855.5 394.5 c 128,-1,11
 1897 428 1897 428 1931.5 450.5 c 128,-1,12
 1966 473 1966 473 2021 491.5 c 128,-1,13
 2076 510 2076 510 2112.5 520 c 128,-1,14
 2149 530 2149 530 2211 539.5 c 128,-1,15
 2273 549 2273 549 2306 552.5 c 128,-1,16
 2339 556 2339 556 2400 561 c 1,17,18
 2445 566 2445 566 2467 568 c 128,-1,19
 2489 570 2489 570 2526.5 575 c 128,-1,20
 2564 580 2564 580 2583.5 584.5 c 128,-1,21
 2603 589 2603 589 2630 597 c 128,-1,22
 2657 605 2657 605 2671 614.5 c 128,-1,23
 2685 624 2685 624 2699.5 637 c 128,-1,24
 2714 650 2714 650 2720 667.5 c 128,-1,25
 2726 685 2726 685 2726 705 c 0,26,27
 2726 754 2726 754 2709 785.5 c 128,-1,28
 2692 817 2692 817 2648.5 841.5 c 128,-1,29
 2605 866 2605 866 2524.5 877.5 c 128,-1,30
 2444 889 2444 889 2322 889 c 0,31,32
 2226 889 2226 889 2108 869 c 128,-1,33
 1990 849 1990 849 1932.5 833 c 128,-1,34
 1875 817 1875 817 1851 809 c 0,35,36
 1846 808 1846 808 1843 807 c 128,-1,37
 1840 806 1840 806 1836.5 805 c 128,-1,38
 1833 804 1833 804 1830 803.5 c 128,-1,39
 1827 803 1827 803 1824 802.5 c 128,-1,40
 1821 802 1821 802 1818 802 c 0,41,42
 1783 802 1783 802 1778 823 c 1,43,44
 1767 845 1767 845 1759.5 865 c 128,-1,45
 1752 885 1752 885 1749.5 894.5 c 128,-1,46
 1747 904 1747 904 1747 906 c 0,47,48
 1747 944 1747 944 1773 955 c 0,49,50
 1806 968 1806 968 1867 984 c 128,-1,51
 1928 1000 1928 1000 1999.5 1014 c 128,-1,52
 2071 1028 2071 1028 2151 1037.5 c 128,-1,53
 2231 1047 2231 1047 2292 1048 c 1,54,55
 2379 1048 2379 1048 2452 1043 c 128,-1,56
 2525 1038 2525 1038 2594 1027.5 c 128,-1,57
 2663 1017 2663 1017 2717.5 999.5 c 128,-1,58
 2772 982 2772 982 2818 956 c 128,-1,59
 2864 930 2864 930 2894.5 895.5 c 128,-1,60
 2925 861 2925 861 2943 815.5 c 128,-1,61
 2961 770 2961 770 2963 714 c 0,62,63
 2965 637 2965 637 2939.5 581 c 128,-1,64
 2914 525 2914 525 2867.5 493 c 128,-1,65
 2821 461 2821 461 2760 440.5 c 128,-1,66
 2699 420 2699 420 2627.5 410 c 128,-1,67
 2556 400 2556 400 2482.5 393 c 128,-1,68
 2409 386 2409 386 2336 375 c 128,-1,69
 2263 364 2263 364 2200.5 346.5 c 128,-1,70
 2138 329 2138 329 2087 294 c 128,-1,71
 2036 259 2036 259 2008 208 c 1,72,73
 2000 201 2000 201 2000 189 c 256,74,75
 2000 177 2000 177 2006 169 c 128,-1,76
 2012 161 2012 161 2023 156.5 c 128,-1,77
 2034 152 2034 152 2047 152 c 2,78,-1
 2899 152 l 2,79,80
 2934 152 2934 152 2934 107 c 2,81,-1
 2934 41 l 2,82,83
 2934 29 2934 29 2932 21 c 128,-1,84
 2930 13 2930 13 2925 8.5 c 128,-1,85
 2920 4 2920 4 2913 2 c 128,-1,86
 2906 0 2906 0 2895 0 c 2,87,-1
 1770 0 l 2,0,1
669 -203 m 0,88,89
 647 -201 647 -201 642 -190.5 c 128,-1,90
 637 -180 637 -180 641 -170 c 2,91,-1
 1522 1597 l 2,92,93
 1537 1628 1537 1628 1557 1637.5 c 128,-1,94
 1577 1647 1577 1647 1609 1647 c 2,95,-1
 1712 1647 l 2,96,97
 1771 1647 1771 1647 1738 1573 c 1,98,-1
 872 -167 l 2,99,100
 854 -203 854 -203 809 -203 c 2,101,-1
 800 -203 l 2,102,103
 790 -203 790 -203 777 -203 c 128,-1,104
 764 -203 764 -203 747 -203 c 128,-1,105
 730 -203 730 -203 715 -203 c 128,-1,106
 700 -203 700 -203 687 -203 c 128,-1,107
 674 -203 674 -203 669 -203 c 0,88,89
368 434 m 2,108,109
 346 434 346 434 332.5 447 c 128,-1,110
 319 460 319 460 319 483 c 2,111,-1
 319 1227 l 2,112,113
 319 1238 319 1238 311.5 1245.5 c 128,-1,114
 304 1253 304 1253 293 1253 c 1,115,-1
 116 1234 l 1,116,117
 94 1234 94 1234 80.5 1247 c 128,-1,118
 67 1260 67 1260 67 1283 c 2,119,-1
 67 1348 l 2,120,121
 67 1370 67 1370 80.5 1383.5 c 128,-1,122
 94 1397 94 1397 116 1397 c 1,123,-1
 538 1439 l 1,124,125
 560 1439 560 1439 573 1426 c 128,-1,126
 586 1413 586 1413 586 1390 c 2,127,-1
 586 483 l 2,128,129
 586 460 586 460 573 447 c 128,-1,130
 560 434 560 434 538 434 c 2,131,-1
 368 434 l 2,108,109
EndSplineSet
EndChar

StartChar: threequarters
Encoding: 190 190 127
Width: 3352
GlyphClass: 2
Flags: W
LayerCount: 2
Fore
SplineSet
2918 -37 m 2,0,1
 2895 -37 2895 -37 2882 -24 c 128,-1,2
 2869 -11 2869 -11 2869 12 c 2,3,-1
 2869 171 l 1,4,-1
 2248 171 l 2,5,6
 2227 171 2227 171 2212 182 c 128,-1,7
 2197 193 2197 193 2197 210 c 0,8,9
 2197 215 2197 215 2199 220 c 2,10,-1
 2425 958 l 2,11,12
 2433 983 2433 983 2443 995 c 128,-1,13
 2453 1007 2453 1007 2474 1007 c 2,14,-1
 2620 1007 l 2,15,16
 2625 1007 2625 1007 2630 1006 c 128,-1,17
 2635 1005 2635 1005 2639.5 1003.5 c 128,-1,18
 2644 1002 2644 1002 2648 1000 c 128,-1,19
 2652 998 2652 998 2655.5 995.5 c 128,-1,20
 2659 993 2659 993 2662 990 c 128,-1,21
 2665 987 2665 987 2667 983.5 c 128,-1,22
 2669 980 2669 980 2670 976 c 128,-1,23
 2671 972 2671 972 2671 967 c 256,24,25
 2671 962 2671 962 2669 958 c 2,26,-1
 2502 360 l 2,27,28
 2501 358 2501 358 2501 356 c 0,29,30
 2501 347 2501 347 2507 342 c 128,-1,31
 2513 337 2513 337 2523 337 c 2,32,-1
 2869 337 l 1,33,-1
 2869 958 l 2,34,35
 2869 980 2869 980 2882 993.5 c 128,-1,36
 2895 1007 2895 1007 2918 1007 c 2,37,-1
 3032 1007 l 2,38,39
 3037 1007 3037 1007 3041 1006 c 128,-1,40
 3045 1005 3045 1005 3049 1004 c 128,-1,41
 3053 1003 3053 1003 3056 1001.5 c 128,-1,42
 3059 1000 3059 1000 3062 998 c 128,-1,43
 3065 996 3065 996 3067.5 993.5 c 128,-1,44
 3070 991 3070 991 3072 988 c 128,-1,45
 3074 985 3074 985 3076 981.5 c 128,-1,46
 3078 978 3078 978 3079 974 c 128,-1,47
 3080 970 3080 970 3080.5 966 c 128,-1,48
 3081 962 3081 962 3081 958 c 2,49,-1
 3081 337 l 1,50,-1
 3237 337 l 2,51,52
 3260 337 3260 337 3273 323.5 c 128,-1,53
 3286 310 3286 310 3286 288 c 2,54,-1
 3286 220 l 2,55,56
 3286 197 3286 197 3273 184 c 128,-1,57
 3260 171 3260 171 3237 171 c 2,58,-1
 3081 171 l 1,59,-1
 3081 12 l 2,60,61
 3081 -11 3081 -11 3068 -24 c 128,-1,62
 3055 -37 3055 -37 3032 -37 c 2,63,-1
 2918 -37 l 2,0,1
695 602 m 0,64,65
 586 602 586 602 381.5 629.5 c 128,-1,66
 177 657 177 657 111 677 c 1,67,68
 73 687 73 687 73 717 c 0,69,70
 73 723 73 723 74 727 c 2,71,-1
 82 800 l 2,72,73
 86 831 86 831 113 831 c 0,74,75
 120 831 120 831 129 829 c 0,76,77
 130 829 130 829 156.5 823.5 c 128,-1,78
 183 818 183 818 213.5 812.5 c 128,-1,79
 244 807 244 807 290 799.5 c 128,-1,80
 336 792 336 792 385 785 c 128,-1,81
 434 778 434 778 486.5 772 c 128,-1,82
 539 766 539 766 595 762.5 c 128,-1,83
 651 759 651 759 699 759 c 0,84,85
 776 759 776 759 836.5 767 c 128,-1,86
 897 775 897 775 936.5 788.5 c 128,-1,87
 976 802 976 802 1002.5 821 c 128,-1,88
 1029 840 1029 840 1041 861.5 c 128,-1,89
 1053 883 1053 883 1055 908 c 0,90,91
 1071 1074 1071 1074 767 1074 c 2,92,-1
 599 1074 l 2,93,94
 576 1074 576 1074 576 1105 c 2,95,-1
 576 1185 l 2,96,97
 576 1190 576 1190 576.5 1192.5 c 128,-1,98
 577 1195 577 1195 578 1200 c 128,-1,99
 579 1205 579 1205 581 1208 c 128,-1,100
 583 1211 583 1211 588 1213.5 c 128,-1,101
 593 1216 593 1216 599 1216 c 2,102,-1
 767 1216 l 2,103,104
 819 1216 819 1216 861.5 1221 c 128,-1,105
 904 1226 904 1226 933 1235 c 128,-1,106
 962 1244 962 1244 984 1256.5 c 128,-1,107
 1006 1269 1006 1269 1017.5 1284.5 c 128,-1,108
 1029 1300 1029 1300 1036.5 1317 c 128,-1,109
 1044 1334 1044 1334 1044 1352 c 128,-1,110
 1044 1370 1044 1370 1044 1388 c 1,111,112
 1040 1425 1040 1425 1015.5 1451 c 128,-1,113
 991 1477 991 1477 946.5 1491.5 c 128,-1,114
 902 1506 902 1506 845.5 1512.5 c 128,-1,115
 789 1519 789 1519 713 1519 c 0,116,117
 661 1519 661 1519 603 1515.5 c 128,-1,118
 545 1512 545 1512 491.5 1506 c 128,-1,119
 438 1500 438 1500 388 1493 c 128,-1,120
 338 1486 338 1486 293.5 1478.5 c 128,-1,121
 249 1471 249 1471 218 1465 c 128,-1,122
 187 1459 187 1459 162 1454 c 128,-1,123
 137 1449 137 1449 135 1449 c 0,124,125
 126 1446 126 1446 119 1446 c 0,126,127
 88 1446 88 1446 84 1478 c 2,128,-1
 74 1550 l 2,129,130
 73 1553 73 1553 73 1555 c 128,-1,131
 73 1557 73 1557 73 1559 c 0,132,133
 73 1590 73 1590 111 1600 c 1,134,135
 152 1612 152 1612 260 1630 c 128,-1,136
 368 1648 368 1648 499 1662.5 c 128,-1,137
 630 1677 630 1677 711 1677 c 0,138,139
 870 1677 870 1677 985 1656 c 128,-1,140
 1100 1635 1100 1635 1170.5 1595 c 128,-1,141
 1241 1555 1241 1555 1274 1498.5 c 128,-1,142
 1307 1442 1307 1442 1307 1367 c 0,143,144
 1307 1272 1307 1272 1249 1213 c 128,-1,145
 1191 1154 1191 1154 1085 1143 c 1,146,147
 1130 1138 1130 1138 1167 1124.5 c 128,-1,148
 1204 1111 1204 1111 1232 1090 c 128,-1,149
 1260 1069 1260 1069 1279.5 1042 c 128,-1,150
 1299 1015 1299 1015 1309 982 c 128,-1,151
 1319 949 1319 949 1319 911 c 0,152,153
 1319 602 1319 602 695 602 c 0,64,65
1258 -203 m 0,154,155
 1236 -201 1236 -201 1231 -190.5 c 128,-1,156
 1226 -180 1226 -180 1230 -170 c 2,157,-1
 2111 1597 l 2,158,159
 2126 1628 2126 1628 2146 1637.5 c 128,-1,160
 2166 1647 2166 1647 2198 1647 c 2,161,-1
 2301 1647 l 2,162,163
 2360 1647 2360 1647 2327 1573 c 1,164,-1
 1461 -167 l 2,165,166
 1443 -203 1443 -203 1398 -203 c 2,167,168
 1388.5 -203 l 0,169,170
 1379 -203 1379 -203 1366 -203 c 128,-1,171
 1353 -203 1353 -203 1336 -203 c 128,-1,172
 1319 -203 1319 -203 1304 -203 c 128,-1,173
 1289 -203 1289 -203 1276 -203 c 128,-1,174
 1263 -203 1263 -203 1258 -203 c 0,154,155
EndSplineSet
EndChar

StartChar: AE
Encoding: 198 198 135
Width: 2440
GlyphClass: 2
Flags: W
LayerCount: 2
Fore
SplineSet
151 0 m 2,0,1
 130 0 130 0 117.5 10 c 128,-1,2
 105 20 105 20 105 37 c 0,3,4
 105 53 105 53 114 68 c 1,5,-1
 791 1370 l 1,6,7
 823 1435 823 1435 889 1438 c 1,8,-1
 2211 1438 l 2,9,10
 2243 1438 2243 1438 2262 1416 c 128,-1,11
 2281 1394 2281 1394 2281 1361 c 2,12,-1
 2281 1290 l 2,13,14
 2281 1257 2281 1257 2262 1235 c 128,-1,15
 2243 1213 2243 1213 2211 1213 c 2,16,-1
 1431 1213 l 2,17,18
 1415 1213 1415 1213 1408.5 1207.5 c 128,-1,19
 1402 1202 1402 1202 1402 1188 c 2,20,-1
 1402 863 l 2,21,22
 1402 858 1402 858 1409.5 847.5 c 128,-1,23
 1417 837 1417 837 1421 837 c 2,24,-1
 2107 837 l 2,25,26
 2139 837 2139 837 2158 815 c 128,-1,27
 2177 793 2177 793 2177 760 c 2,28,-1
 2177 717 l 2,29,30
 2177 684 2177 684 2158 662 c 128,-1,31
 2139 640 2139 640 2107 640 c 2,32,-1
 1426 640 l 2,33,34
 1421 640 1421 640 1411.5 632 c 128,-1,35
 1402 624 1402 624 1402 620 c 2,36,-1
 1402 243 l 2,37,38
 1402 239 1402 239 1409.5 231 c 128,-1,39
 1417 223 1417 223 1421 223 c 2,40,-1
 2232 223 l 2,41,42
 2264 223 2264 223 2282.5 201.5 c 128,-1,43
 2301 180 2301 180 2301 147 c 2,44,-1
 2301 77 l 2,45,46
 2301 44 2301 44 2282 22 c 128,-1,47
 2263 0 2263 0 2232 0 c 2,48,-1
 1113 0 l 2,49,50
 1081 0 1081 0 1062 19 c 128,-1,51
 1043 38 1043 38 1043 70 c 2,52,-1
 1043 292 l 1,53,-1
 597 292 l 2,54,55
 586 292 586 292 579 279 c 2,56,-1
 474 64 l 1,57,58
 445 0 445 0 375 0 c 2,59,-1
 151 0 l 2,0,1
690 495 m 2,60,-1
 1043 495 l 1,61,-1
 1043 1233 l 1,62,63
 1036 1234 1036 1234 1035 1234 c 128,-1,64
 1034 1234 1034 1234 1030 1230 c 1,65,-1
 679 509 l 2,66,67
 679 508 679 508 678.5 507 c 128,-1,68
 678 506 678 506 678 505 c 0,69,70
 678 495 678 495 690 495 c 2,60,-1
EndSplineSet
EndChar

StartChar: Eth
Encoding: 208 208 145
Width: 2281
GlyphClass: 2
Flags: W
LayerCount: 2
Fore
SplineSet
560 226 m 0,0,1
 566 226 566 226 626 226 c 128,-1,2
 686 226 686 226 770.5 226 c 128,-1,3
 855 226 855 226 936 226 c 128,-1,4
 1017 226 1017 226 1080 226 c 128,-1,5
 1143 226 1143 226 1144 226 c 0,6,7
 1227 226 1227 226 1291.5 230.5 c 128,-1,8
 1356 235 1356 235 1424.5 248 c 128,-1,9
 1493 261 1493 261 1543 283.5 c 128,-1,10
 1593 306 1593 306 1639.5 343.5 c 128,-1,11
 1686 381 1686 381 1714.5 432.5 c 128,-1,12
 1743 484 1743 484 1760 557.5 c 128,-1,13
 1777 631 1777 631 1777 723 c 0,14,15
 1777 835 1777 835 1745 921 c 128,-1,16
 1713 1007 1713 1007 1657.5 1062 c 128,-1,17
 1602 1117 1602 1117 1521.5 1152 c 128,-1,18
 1441 1187 1441 1187 1351.5 1201 c 128,-1,19
 1262 1215 1262 1215 1153 1215 c 0,20,21
 1144 1215 1144 1215 854 1214.5 c 128,-1,22
 564 1214 564 1214 556 1214 c 0,23,24
 551 1214 551 1214 540.5 1204 c 128,-1,25
 530 1194 530 1194 530 1190 c 2,26,-1
 530 832 l 1,27,-1
 791 832 l 2,28,29
 853 832 853 832 853 762 c 2,30,-1
 853 706 l 1,31,32
 851 639 851 639 791 639 c 2,33,-1
 530 639 l 1,34,-1
 530 252 l 2,35,36
 530 248 530 248 543 237 c 128,-1,37
 556 226 556 226 560 226 c 0,0,1
230 0 m 2,38,39
 198 0 198 0 179 19 c 128,-1,40
 160 38 160 38 160 70 c 2,41,-1
 160 639 l 1,42,-1
 64 639 l 2,43,44
 1 639 1 639 1 709 c 2,45,-1
 1 762 l 2,46,47
 1 832 1 832 64 832 c 2,48,-1
 160 832 l 1,49,-1
 160 1367 l 2,50,51
 160 1399 160 1399 179 1418.5 c 128,-1,52
 198 1438 198 1438 230 1438 c 2,53,-1
 1198 1438 l 2,54,55
 1304 1438 1304 1438 1401 1428 c 128,-1,56
 1498 1418 1498 1418 1594.5 1394 c 128,-1,57
 1691 1370 1691 1370 1771.5 1333.5 c 128,-1,58
 1852 1297 1852 1297 1922 1240 c 128,-1,59
 1992 1183 1992 1183 2041 1111 c 128,-1,60
 2090 1039 2090 1039 2117.5 940.5 c 128,-1,61
 2145 842 2145 842 2145 725 c 0,62,63
 2145 589 2145 589 2116 481 c 128,-1,64
 2087 373 2087 373 2039 298 c 128,-1,65
 1991 223 1991 223 1915.5 168 c 128,-1,66
 1840 113 1840 113 1761 81 c 128,-1,67
 1682 49 1682 49 1576.5 30.5 c 128,-1,68
 1471 12 1471 12 1377 6 c 128,-1,69
 1283 0 1283 0 1165 0 c 2,70,-1
 230 0 l 2,38,39
EndSplineSet
EndChar

StartChar: multiply
Encoding: 215 215 152
Width: 1142
GlyphClass: 2
Flags: W
LayerCount: 2
Fore
SplineSet
286 235 m 0,0,1
 255 235 255 235 232 258 c 2,2,-1
 167 326 l 2,3,4
 145 349 145 349 145 381 c 128,-1,5
 145 413 145 413 167 435 c 0,6,7
 169 437 169 437 206 475 c 128,-1,8
 243 513 243 513 299.5 569.5 c 128,-1,9
 356 626 356 626 397 667 c 1,10,11
 358 703 358 703 302 758 c 128,-1,12
 246 813 246 813 205.5 852.5 c 128,-1,13
 165 892 165 892 161 896 c 0,14,15
 138 919 138 919 138 951 c 0,16,17
 138 982 138 982 161 1005 c 2,18,-1
 228 1072 l 1,19,20
 253 1095 253 1095 283 1095 c 0,21,22
 315 1095 315 1095 337 1072 c 0,23,24
 500 909 500 909 570 842 c 1,25,26
 596 867 596 867 629 900 c 128,-1,27
 662 933 662 933 691 963 c 128,-1,28
 720 993 720 993 745 1018.5 c 128,-1,29
 770 1044 770 1044 786.5 1060.5 c 128,-1,30
 803 1077 803 1077 804 1078 c 0,31,32
 827 1101 827 1101 859 1101 c 128,-1,33
 891 1101 891 1101 913 1078 c 2,34,-1
 974 1014 l 2,35,36
 997 991 997 991 997 959 c 0,37,38
 997 929 997 929 974 905 c 0,39,40
 972 904 972 904 935 865.5 c 128,-1,41
 898 827 898 827 840 767.5 c 128,-1,42
 782 708 782 708 743 669 c 1,43,44
 755 659 755 659 774 640.5 c 128,-1,45
 793 622 793 622 814.5 600.5 c 128,-1,46
 836 579 836 579 859 556.5 c 128,-1,47
 882 534 882 534 903 512.5 c 128,-1,48
 924 491 924 491 940.5 474 c 128,-1,49
 957 457 957 457 968 446 c 2,50,-1
 979 435 l 2,51,52
 1002 413 1002 413 1002 380 c 0,53,54
 1002 348 1002 348 980 326 c 2,55,-1
 918 263 l 2,56,57
 895 240 895 240 863 240 c 0,58,59
 832 240 832 240 810 263 c 0,60,61
 699 374 699 374 572 493 c 1,62,63
 535 456 535 456 479.5 399 c 128,-1,64
 424 342 424 342 385 302.5 c 128,-1,65
 346 263 346 263 341 258 c 0,66,67
 319 235 319 235 286 235 c 0,0,1
EndSplineSet
EndChar

StartChar: Oslash
Encoding: 216 216 153
Width: 2343
GlyphClass: 2
Flags: W
LayerCount: 2
Fore
SplineSet
866 -202 m 2,0,-1
 743 -200 l 2,1,2
 732 -200 732 -200 726.5 -189 c 128,-1,3
 721 -178 721 -178 726 -167 c 2,4,-1
 793 -7 l 1,5,6
 682 15 682 15 588.5 51 c 128,-1,7
 495 87 495 87 409.5 147 c 128,-1,8
 324 207 324 207 264.5 285.5 c 128,-1,9
 205 364 205 364 169.5 476 c 128,-1,10
 134 588 134 588 134 723 c 0,11,12
 134 844 134 844 166.5 947.5 c 128,-1,13
 199 1051 199 1051 255.5 1126.5 c 128,-1,14
 312 1202 312 1202 392 1262.5 c 128,-1,15
 472 1323 472 1323 562 1362 c 128,-1,16
 652 1401 652 1401 757 1427 c 128,-1,17
 862 1453 862 1453 963.5 1464 c 128,-1,18
 1065 1475 1065 1475 1172 1475 c 0,19,20
 1294 1475 1294 1475 1402 1461 c 1,21,-1
 1461 1602 l 2,22,23
 1474 1635 1474 1635 1505 1635 c 2,24,-1
 1628 1635 l 2,25,26
 1638 1635 1638 1635 1644 1624 c 128,-1,27
 1650 1613 1650 1613 1645 1602 c 2,28,-1
 1574 1430 l 1,29,30
 1681 1404 1681 1404 1772 1365.5 c 128,-1,31
 1863 1327 1863 1327 1945 1266.5 c 128,-1,32
 2027 1206 2027 1206 2084.5 1130 c 128,-1,33
 2142 1054 2142 1054 2175.5 950 c 128,-1,34
 2209 846 2209 846 2209 723 c 0,35,36
 2209 592 2209 592 2176 483 c 128,-1,37
 2143 374 2143 374 2087.5 296.5 c 128,-1,38
 2032 219 2032 219 1951.5 159 c 128,-1,39
 1871 99 1871 99 1782 62 c 128,-1,40
 1693 25 1693 25 1586.5 1 c 128,-1,41
 1480 -23 1480 -23 1380.5 -32 c 128,-1,42
 1281 -41 1281 -41 1172 -41 c 0,43,44
 1055 -41 1055 -41 968 -32 c 1,45,-1
 911 -169 l 2,46,47
 905 -184 905 -184 892.5 -193 c 128,-1,48
 880 -202 880 -202 866 -202 c 2,0,-1
888 230 m 1,49,-1
 1310 1232 l 1,50,51
 1250 1240 1250 1240 1172 1240 c 0,52,53
 1063 1240 1063 1240 969.5 1223 c 128,-1,54
 876 1206 876 1206 795 1167 c 128,-1,55
 714 1128 714 1128 657.5 1069 c 128,-1,56
 601 1010 601 1010 568.5 922 c 128,-1,57
 536 834 536 834 536 723 c 0,58,59
 536 326 536 326 888 230 c 1,49,-1
1172 196 m 0,60,61
 1283 196 1283 196 1372 209.5 c 128,-1,62
 1461 223 1461 223 1544.5 258.5 c 128,-1,63
 1628 294 1628 294 1684 352 c 128,-1,64
 1740 410 1740 410 1773.5 504 c 128,-1,65
 1807 598 1807 598 1807 723 c 0,66,67
 1807 908 1807 908 1720 1024.5 c 128,-1,68
 1633 1141 1633 1141 1478 1194 c 1,69,-1
 1062 200 l 1,70,71
 1097 196 1097 196 1172 196 c 0,60,61
EndSplineSet
EndChar

StartChar: Thorn
Encoding: 222 222 159
Width: 2004
GlyphClass: 2
Flags: W
LayerCount: 2
Fore
SplineSet
230 0 m 2,0,1
 198 0 198 0 179 19 c 128,-1,2
 160 38 160 38 160 70 c 2,3,-1
 160 1368 l 2,4,5
 160 1400 160 1400 179 1419 c 128,-1,6
 198 1438 198 1438 230 1438 c 2,7,-1
 460 1438 l 2,8,9
 492 1438 492 1438 511 1419 c 128,-1,10
 530 1400 530 1400 530 1368 c 2,11,-1
 530 1232 l 1,12,-1
 862 1232 l 2,13,14
 965 1232 965 1232 1026 1231.5 c 128,-1,15
 1087 1231 1087 1231 1184 1226.5 c 128,-1,16
 1281 1222 1281 1222 1341.5 1214.5 c 128,-1,17
 1402 1207 1402 1207 1483 1191.5 c 128,-1,18
 1564 1176 1564 1176 1614 1154.5 c 128,-1,19
 1664 1133 1664 1133 1719.5 1099.5 c 128,-1,20
 1775 1066 1775 1066 1805.5 1023.5 c 128,-1,21
 1836 981 1836 981 1856 922.5 c 128,-1,22
 1876 864 1876 864 1876 794 c 0,23,24
 1876 698 1876 698 1848 623.5 c 128,-1,25
 1820 549 1820 549 1777 499 c 128,-1,26
 1734 449 1734 449 1657 413.5 c 128,-1,27
 1580 378 1580 378 1509 359 c 128,-1,28
 1438 340 1438 340 1325 330 c 128,-1,29
 1212 320 1212 320 1126.5 317.5 c 128,-1,30
 1041 315 1041 315 907 314 c 1,31,-1
 554 314 l 2,32,33
 550 314 550 314 540 303.5 c 128,-1,34
 530 293 530 293 530 288 c 2,35,-1
 530 70 l 2,36,37
 530 38 530 38 511 19 c 128,-1,38
 492 0 492 0 460 0 c 2,39,-1
 230 0 l 2,0,1
552 529 m 2,40,-1
 881 529 l 2,41,42
 956 529 956 529 1004.5 529.5 c 128,-1,43
 1053 530 1053 530 1114 533 c 128,-1,44
 1175 536 1175 536 1214 541 c 128,-1,45
 1253 546 1253 546 1298 555.5 c 128,-1,46
 1343 565 1343 565 1371 578 c 128,-1,47
 1399 591 1399 591 1427 610.5 c 128,-1,48
 1455 630 1455 630 1469.5 655.5 c 128,-1,49
 1484 681 1484 681 1493.5 714 c 128,-1,50
 1503 747 1503 747 1503 788 c 0,51,52
 1503 831 1503 831 1490.5 866 c 128,-1,53
 1478 901 1478 901 1446.5 925 c 128,-1,54
 1415 949 1415 949 1386 966.5 c 128,-1,55
 1357 984 1357 984 1300 994.5 c 128,-1,56
 1243 1005 1243 1005 1204 1011.5 c 128,-1,57
 1165 1018 1165 1018 1089 1020.5 c 128,-1,58
 1013 1023 1013 1023 971.5 1023.5 c 128,-1,59
 930 1024 930 1024 843 1024 c 0,60,61
 821 1024 821 1024 810 1024 c 2,62,-1
 552 1024 l 2,63,64
 548 1024 548 1024 539 1014.5 c 128,-1,65
 530 1005 530 1005 530 1001 c 2,66,-1
 530 555 l 2,67,68
 530 550 530 550 539 539.5 c 128,-1,69
 548 529 548 529 552 529 c 2,40,-1
EndSplineSet
EndChar

StartChar: germandbls
Encoding: 223 223 160
Width: 1822
GlyphClass: 2
Flags: W
LayerCount: 2
Fore
SplineSet
219 0 m 2,0,1
 188 0 188 0 172 21.5 c 128,-1,2
 156 43 156 43 156 77 c 2,3,-1
 156 969 l 2,4,5
 156 1030 156 1030 162 1078.5 c 128,-1,6
 168 1127 168 1127 184.5 1177 c 128,-1,7
 201 1227 201 1227 229 1264.5 c 128,-1,8
 257 1302 257 1302 303 1336 c 128,-1,9
 349 1370 349 1370 411.5 1391.5 c 128,-1,10
 474 1413 474 1413 562 1425.5 c 128,-1,11
 650 1438 650 1438 760 1438 c 2,12,-1
 865 1438 l 2,13,14
 1031 1438 1031 1438 1155.5 1417.5 c 128,-1,15
 1280 1397 1280 1397 1373.5 1351.5 c 128,-1,16
 1467 1306 1467 1306 1515 1228 c 128,-1,17
 1563 1150 1563 1150 1563 1040 c 0,18,19
 1563 870 1563 870 1387 783 c 0,20,21
 1377 779 1377 779 1378 771.5 c 128,-1,22
 1379 764 1379 764 1390 761 c 0,23,24
 1528 719 1528 719 1609 632 c 128,-1,25
 1690 545 1690 545 1690 424 c 0,26,27
 1690 304 1690 304 1628 220 c 128,-1,28
 1566 136 1566 136 1448 88.5 c 128,-1,29
 1330 41 1330 41 1181 20.5 c 128,-1,30
 1032 0 1032 0 835 0 c 2,31,-1
 692 0 l 2,32,33
 651 0 651 0 651 42 c 2,34,-1
 651 187 l 2,35,36
 651 202 651 202 662.5 212.5 c 128,-1,37
 674 223 674 223 694 222 c 1,38,-1
 848 222 l 2,39,40
 1055 222 1055 222 1167.5 245.5 c 128,-1,41
 1280 269 1280 269 1322.5 316 c 128,-1,42
 1365 363 1365 363 1365 448 c 0,43,44
 1365 524 1365 524 1322 568.5 c 128,-1,45
 1279 613 1279 613 1174.5 635.5 c 128,-1,46
 1070 658 1070 658 888 658 c 2,47,-1
 714 658 l 2,48,49
 674 658 674 658 674 692 c 2,50,-1
 674 806 l 2,51,52
 674 844 674 844 714 844 c 2,53,-1
 901 844 l 2,54,55
 1009 844 1009 844 1084.5 858 c 128,-1,56
 1160 872 1160 872 1200.5 898 c 128,-1,57
 1241 924 1241 924 1258 954.5 c 128,-1,58
 1275 985 1275 985 1275 1025 c 0,59,60
 1275 1105 1275 1105 1232 1148.5 c 128,-1,61
 1189 1192 1189 1192 1086 1212 c 128,-1,62
 983 1232 983 1232 795 1232 c 0,63,64
 632 1232 632 1232 558.5 1167.5 c 128,-1,65
 485 1103 485 1103 485 955 c 2,66,-1
 485 86 l 2,67,68
 485 0 485 0 409 0 c 2,69,-1
 219 0 l 2,0,1
EndSplineSet
EndChar

StartChar: ae
Encoding: 230 230 167
Width: 2859
GlyphClass: 2
Flags: W
LayerCount: 2
Fore
SplineSet
2078 -42 m 0,0,1
 1631 -42 1631 -42 1437 212 c 0,2,3
 1430 221 1430 221 1424 223 c 1,4,5
 1414 217 1414 217 1407 209 c 0,6,7
 1183 -41 1183 -41 723 -41 c 0,8,9
 439 -41 439 -41 289.5 32 c 128,-1,10
 140 105 140 105 138 238 c 1,11,12
 138 314 138 314 187.5 375 c 128,-1,13
 237 436 237 436 318.5 474.5 c 128,-1,14
 400 513 400 513 504 541.5 c 128,-1,15
 608 570 608 570 716.5 584 c 128,-1,16
 825 598 825 598 929 608 c 128,-1,17
 1033 618 1033 618 1114.5 621 c 128,-1,18
 1196 624 1196 624 1245.5 629 c 128,-1,19
 1295 634 1295 634 1295 640 c 0,20,21
 1295 654 1295 654 1296 669 c 128,-1,22
 1297 684 1297 684 1297 688 c 0,23,24
 1297 717 1297 717 1290 740.5 c 128,-1,25
 1283 764 1283 764 1258.5 791.5 c 128,-1,26
 1234 819 1234 819 1193 838 c 128,-1,27
 1152 857 1152 857 1079 869.5 c 128,-1,28
 1006 882 1006 882 908 882 c 0,29,30
 848 882 848 882 780.5 876.5 c 128,-1,31
 713 871 713 871 623 847.5 c 128,-1,32
 533 824 533 824 493 785 c 0,33,34
 448 740 448 740 423 740 c 0,35,36
 422 740 422 740 404 742 c 2,37,-1
 195 766 l 2,38,39
 183 767 183 767 174 778.5 c 128,-1,40
 165 790 165 790 165 802 c 0,41,42
 165 813 165 813 176 846 c 1,43,44
 217 953 217 953 398 1003 c 128,-1,45
 579 1053 579 1053 906 1053 c 0,46,47
 1348 1053 1348 1053 1477 859 c 1,48,49
 1582 953 1582 953 1736.5 1003 c 128,-1,50
 1891 1053 1891 1053 2044 1053 c 0,51,52
 2341 1053 2341 1053 2520.5 922.5 c 128,-1,53
 2700 792 2700 792 2726 581 c 1,54,-1
 2726 534 l 1,55,56
 2725 504 2725 504 2700.5 478 c 128,-1,57
 2676 452 2676 452 2620 452 c 2,58,-1
 1652 452 l 2,59,60
 1648 452 1648 452 1643 453 c 0,61,62
 1633 454 1633 454 1633 446 c 0,63,64
 1633 392 1633 392 1661.5 340.5 c 128,-1,65
 1690 289 1690 289 1746 244 c 128,-1,66
 1802 199 1802 199 1899 171.5 c 128,-1,67
 1996 144 1996 144 2120 144 c 0,68,69
 2228 144 2228 144 2351.5 173.5 c 128,-1,70
 2475 203 2475 203 2558 235 c 1,71,72
 2590 246 2590 246 2611.5 239.5 c 128,-1,73
 2633 233 2633 233 2640 213 c 1,74,75
 2665 127 2665 127 2666 124 c 0,76,77
 2673 81 2673 81 2621 58 c 0,78,79
 2524 17 2524 17 2356 -12.5 c 128,-1,80
 2188 -42 2188 -42 2078 -42 c 0,0,1
766 128 m 0,81,82
 909 128 909 128 1030 167.5 c 128,-1,83
 1151 207 1151 207 1226.5 284 c 128,-1,84
 1302 361 1302 361 1302 462 c 0,85,86
 1302 474 1302 474 1299 479.5 c 128,-1,87
 1296 485 1296 485 1285 485 c 0,88,89
 1282 485 1282 485 1240 481.5 c 128,-1,90
 1198 478 1198 478 1195 477 c 0,91,92
 811 446 811 446 642.5 396.5 c 128,-1,93
 474 347 474 347 474 258 c 1,94,95
 475 193 475 193 542 160.5 c 128,-1,96
 609 128 609 128 766 128 c 0,81,82
1645 598 m 2,97,-1
 2433 598 l 2,98,99
 2436 598 2436 598 2436 608 c 1,100,101
 2423 652 2423 652 2407 686.5 c 128,-1,102
 2391 721 2391 721 2360.5 758 c 128,-1,103
 2330 795 2330 795 2290 820 c 128,-1,104
 2250 845 2250 845 2187.5 861 c 128,-1,105
 2125 877 2125 877 2046 877 c 0,106,107
 1892 877 1892 877 1773.5 807.5 c 128,-1,108
 1655 738 1655 738 1636 613 c 1,109,110
 1636 598 1636 598 1645 598 c 2,97,-1
EndSplineSet
EndChar

StartChar: eth
Encoding: 240 240 177
Width: 1929
GlyphClass: 2
Flags: W
LayerCount: 2
Fore
SplineSet
969 -41 m 0,0,1
 814 -41 814 -41 689 -26 c 128,-1,2
 564 -11 564 -11 458 24 c 128,-1,3
 352 59 352 59 280.5 113 c 128,-1,4
 209 167 209 167 169 247.5 c 128,-1,5
 129 328 129 328 129 433 c 0,6,7
 129 515 129 515 153.5 583 c 128,-1,8
 178 651 178 651 235.5 710.5 c 128,-1,9
 293 770 293 770 381 810.5 c 128,-1,10
 469 851 469 851 602 874.5 c 128,-1,11
 735 898 735 898 905 898 c 0,12,13
 1104 898 1104 898 1249 865.5 c 128,-1,14
 1394 833 1394 833 1451 779 c 1,15,16
 1405 914 1405 914 1301.5 1010 c 128,-1,17
 1198 1106 1198 1106 1035 1185 c 1,18,19
 1030 1179 1030 1179 949 1094 c 128,-1,20
 868 1009 868 1009 861 1001 c 0,21,22
 846 985 846 985 824 985 c 0,23,24
 803 985 803 985 788 1000 c 2,25,-1
 748 1039 l 2,26,27
 733 1054 733 1054 733 1075 c 128,-1,28
 733 1096 733 1096 748 1111 c 0,29,30
 750 1113 750 1113 813 1180 c 128,-1,31
 876 1247 876 1247 881 1253 c 1,32,33
 834 1271 834 1271 633 1343 c 1,34,35
 605 1355 605 1355 605 1379 c 0,36,37
 605 1390 605 1390 609 1399 c 2,38,-1
 652 1502 l 2,39,40
 658 1515 658 1515 662 1521 c 128,-1,41
 666 1527 666 1527 673.5 1531 c 128,-1,42
 681 1535 681 1535 693 1535 c 0,43,44
 698 1535 698 1535 714 1533 c 1,45,46
 881 1500 881 1500 1047 1435 c 1,47,48
 1054 1443 1054 1443 1091.5 1483 c 128,-1,49
 1129 1523 1129 1523 1167.5 1564 c 128,-1,50
 1206 1605 1206 1605 1209 1608 c 0,51,52
 1224 1624 1224 1624 1246 1624 c 0,53,54
 1267 1624 1267 1624 1282 1609 c 0,55,56
 1298 1593 1298 1593 1313 1577 c 0,57,58
 1319 1571 1319 1571 1321 1570 c 2,59,-1
 1323 1568 l 2,60,61
 1337 1554 1337 1554 1337 1532 c 0,62,63
 1337 1511 1337 1511 1323 1497 c 0,64,65
 1321 1494 1321 1494 1264.5 1434.5 c 128,-1,66
 1208 1375 1208 1375 1202 1368 c 1,67,68
 1471 1238 1471 1238 1633.5 1033 c 128,-1,69
 1796 828 1796 828 1796 603 c 0,70,71
 1796 444 1796 444 1750 326 c 128,-1,72
 1704 208 1704 208 1606 125 c 128,-1,73
 1508 42 1508 42 1349 0.5 c 128,-1,74
 1190 -41 1190 -41 969 -41 c 0,0,1
973 175 m 0,75,76
 1209 175 1209 175 1334.5 248.5 c 128,-1,77
 1460 322 1460 322 1460 465 c 0,78,79
 1460 516 1460 516 1442 556 c 128,-1,80
 1424 596 1424 596 1389 623 c 128,-1,81
 1354 650 1354 650 1309.5 669 c 128,-1,82
 1265 688 1265 688 1206 698 c 128,-1,83
 1147 708 1147 708 1088 712.5 c 128,-1,84
 1029 717 1029 717 958 717 c 0,85,86
 813 717 813 717 713.5 698 c 128,-1,87
 614 679 614 679 559.5 641.5 c 128,-1,88
 505 604 505 604 482.5 556.5 c 128,-1,89
 460 509 460 509 460 444 c 128,-1,90
 460 379 460 379 482.5 332 c 128,-1,91
 505 285 505 285 545.5 254.5 c 128,-1,92
 586 224 586 224 651 206.5 c 128,-1,93
 716 189 716 189 792.5 182 c 128,-1,94
 869 175 869 175 973 175 c 0,75,76
EndSplineSet
EndChar

StartChar: divide
Encoding: 247 247 184
Width: 1279
GlyphClass: 2
Flags: W
LayerCount: 2
Fore
SplineSet
577 10 m 2,0,1
 545 10 545 10 522.5 32.5 c 128,-1,2
 500 55 500 55 500 87 c 2,3,-1
 500 217 l 2,4,5
 500 249 500 249 522.5 271.5 c 128,-1,6
 545 294 545 294 577 294 c 2,7,-1
 713 294 l 2,8,9
 745 294 745 294 767.5 271.5 c 128,-1,10
 790 249 790 249 790 217 c 2,11,-1
 790 87 l 2,12,13
 790 55 790 55 767.5 32.5 c 128,-1,14
 745 10 745 10 713 10 c 2,15,-1
 577 10 l 2,0,1
187 437 m 2,16,17
 120 437 120 437 120 504 c 2,18,-1
 120 566 l 2,19,20
 120 633 120 633 187 633 c 2,21,-1
 1091 633 l 2,22,23
 1158 633 1158 633 1158 566 c 2,24,-1
 1158 504 l 2,25,26
 1158 437 1158 437 1091 437 c 2,27,-1
 187 437 l 2,16,17
577 750 m 2,28,29
 545 750 545 750 522.5 772.5 c 128,-1,30
 500 795 500 795 500 827 c 2,31,-1
 500 957 l 2,32,33
 500 989 500 989 522.5 1011.5 c 128,-1,34
 545 1034 545 1034 577 1034 c 2,35,-1
 713 1034 l 2,36,37
 745 1034 745 1034 767.5 1011.5 c 128,-1,38
 790 989 790 989 790 957 c 2,39,-1
 790 827 l 2,40,41
 790 795 790 795 767.5 772.5 c 128,-1,42
 745 750 745 750 713 750 c 2,43,-1
 577 750 l 2,28,29
EndSplineSet
EndChar

StartChar: oslash
Encoding: 248 248 185
Width: 1764
GlyphClass: 2
Flags: W
LayerCount: 2
Fore
SplineSet
628 -202 m 2,0,-1
 551 -200 l 2,1,2
 540 -200 540 -200 534.5 -189 c 128,-1,3
 529 -178 529 -178 534 -167 c 2,4,-1
 601 -8 l 1,5,6
 503 15 503 15 422.5 54 c 128,-1,7
 342 93 342 93 274 153 c 128,-1,8
 206 213 206 213 168 303 c 128,-1,9
 130 393 130 393 130 505 c 0,10,11
 130 596 130 596 154.5 672.5 c 128,-1,12
 179 749 179 749 221 804 c 128,-1,13
 263 859 263 859 322 903 c 128,-1,14
 381 947 381 947 447 974.5 c 128,-1,15
 513 1002 513 1002 589 1020 c 128,-1,16
 665 1038 665 1038 737 1045.5 c 128,-1,17
 809 1053 809 1053 884 1053 c 0,18,19
 960 1053 960 1053 1036 1044 c 1,20,-1
 1086 1164 l 2,21,22
 1099 1197 1099 1197 1130 1197 c 2,23,-1
 1207 1197 l 2,24,25
 1217 1197 1217 1197 1223 1186 c 128,-1,26
 1229 1175 1229 1175 1224 1164 c 2,27,-1
 1165 1022 l 1,28,29
 1263 1000 1263 1000 1343.5 961.5 c 128,-1,30
 1424 923 1424 923 1491.5 862.5 c 128,-1,31
 1559 802 1559 802 1597 711 c 128,-1,32
 1635 620 1635 620 1635 505 c 0,33,34
 1635 416 1635 416 1610 340 c 128,-1,35
 1585 264 1585 264 1542 208.5 c 128,-1,36
 1499 153 1499 153 1439.5 109.5 c 128,-1,37
 1380 66 1380 66 1314 38.5 c 128,-1,38
 1248 11 1248 11 1172.5 -7.5 c 128,-1,39
 1097 -26 1097 -26 1026.5 -33.5 c 128,-1,40
 956 -41 956 -41 884 -41 c 0,41,42
 810 -41 810 -41 730 -32 c 1,43,-1
 673 -169 l 2,44,45
 667 -184 667 -184 654.5 -193 c 128,-1,46
 642 -202 642 -202 628 -202 c 2,0,-1
678 184 m 1,47,-1
 961 859 l 1,48,49
 930 864 930 864 884 864 c 0,50,51
 796 864 796 864 720.5 842 c 128,-1,52
 645 820 645 820 586.5 776.5 c 128,-1,53
 528 733 528 733 495 663.5 c 128,-1,54
 462 594 462 594 462 505 c 0,55,56
 461 387 461 387 519 306 c 128,-1,57
 577 225 577 225 678 184 c 1,47,-1
884 148 m 0,58,59
 1069 148 1069 148 1186 240 c 128,-1,60
 1303 332 1303 332 1303 505 c 0,61,62
 1303 626 1303 626 1245 707 c 128,-1,63
 1187 788 1187 788 1086 827 c 1,64,-1
 804 152 l 1,65,66
 856 148 856 148 884 148 c 0,58,59
EndSplineSet
EndChar

